<svg width="85" height="97" viewBox="0 0 85 97" fill="none" xmlns="http://www.w3.org/2000/svg">
<g clip-path="url(#clip0)">
<path d="M60.496 54.6762L51.4538 90.9375L45.4004 65.1719L51.4538 54.5625H33.2936L39.347 65.1719L33.2936 90.9375L24.2514 54.6762C10.7637 55.3203 0 66.3654 0 80.025V87.9062C0 92.9268 4.06712 97 9.08007 97H75.6673C80.6802 97 84.7474 92.9268 84.7474 87.9062V80.025C84.7474 66.3654 73.9837 55.3203 60.496 54.6762Z" fill="#4053F3"/>
<ellipse cx="42.5569" cy="27.9243" rx="23.4798" ry="23.5152" fill="#FFCC99"/>
<path d="M9.6001 66.0672C13.2945 61.7608 21.2288 60.2576 21.2288 60.2576L29.2235 92.2107C29.2235 92.2107 6.91438 93.9372 5.23927 90.0321C3.05867 84.9486 5.23912 71.1507 9.6001 66.0672Z" fill="#4053F3"/>
<path d="M75.1479 66.0672C71.4535 61.7608 63.5192 60.2576 63.5192 60.2576L55.5245 92.2107C55.5245 92.2107 77.8336 93.9372 79.5088 90.0321C81.6894 84.9486 79.5089 71.1507 75.1479 66.0672Z" fill="#4053F3"/>
</g>
<defs>
<clipPath id="clip0">
<rect width="84.7474" height="97" fill="white"/>
</clipPath>
</defs>
</svg>
