<svg width="97" height="97" viewBox="0 0 97 97" fill="none" xmlns="http://www.w3.org/2000/svg">
<path d="M83.875 78.8125H11.125V46.4792L47.5 12.125L83.875 46.4792V78.8125Z" fill="white"/>
<path d="M89.8132 42.4375L79.709 32.3333V18.1875H89.8132V42.4375Z" fill="#C5CAE9"/>
<path d="M11.125 78.8125H83.875V88.9167H11.125V78.8125Z" fill="#C5CAE9"/>
<path d="M48.4167 9L8 46.5875L12.0417 51.0333L48.4167 17.2854L84.7917 51.0333L88.8333 46.5875L48.4167 9Z" fill="#FF7247"/>
<path d="M36.291 56.8936H60.541V89.2269H36.291V56.8936Z" fill="#4053F3"/>
<path d="M42.3535 34.6646H54.4785V46.7896H42.3535V34.6646Z" fill="#4053F3"/>
<path d="M55.4889 72.0498C54.8827 72.0498 54.4785 72.454 54.4785 73.0602V77.1019C54.4785 77.7081 54.8827 78.1123 55.4889 78.1123C56.0952 78.1123 56.4993 77.7081 56.4993 77.1019V73.0602C56.4993 72.454 56.0952 72.0498 55.4889 72.0498Z" fill="#FF8A65"/>
</svg>
