<svg width="97" height="97" viewBox="0 0 97 97" fill="none" xmlns="http://www.w3.org/2000/svg">
<path d="M80.833 44.4584H64.6663L56.583 52.5417V24.2501C56.583 19.8042 60.2205 16.1667 64.6663 16.1667H80.833C85.2789 16.1667 88.9164 19.8042 88.9164 24.2501V36.3751C88.9164 40.8209 85.2789 44.4584 80.833 44.4584Z" fill="#4053F3"/>
<path d="M34.3542 54.5626C43.2828 54.5626 50.5208 47.3245 50.5208 38.3959C50.5208 29.4673 43.2828 22.2292 34.3542 22.2292C25.4256 22.2292 18.1875 29.4673 18.1875 38.3959C18.1875 47.3245 25.4256 54.5626 34.3542 54.5626Z" fill="#FFCC99"/>
<path d="M60.6247 74.1646C60.6247 74.1646 53.3497 60.625 34.3538 60.625C15.358 60.625 8.08301 74.1646 8.08301 74.1646V80.8333H60.6247V74.1646Z" fill="black"/>
</svg>
