<svg width="87" height="87" viewBox="0 0 87 87" fill="none" xmlns="http://www.w3.org/2000/svg">
<path d="M69.7812 80.8375L62.5312 73.5875L66.3375 69.7812L73.5875 77.0313C74.675 78.1188 74.675 79.75 73.5875 80.8375C72.6812 81.7438 70.8687 81.7438 69.7812 80.8375Z" fill="#37474F"/>
<path d="M17.2176 80.8375L24.4676 73.5875L20.6613 69.7812L13.4113 77.0313C12.3238 78.1188 12.3238 79.75 13.4113 80.8375C14.3176 81.7438 16.1301 81.7438 17.2176 80.8375Z" fill="#37474F"/>
<path d="M43.5 79.75C63.5203 79.75 79.75 63.5203 79.75 43.5C79.75 23.4797 63.5203 7.25 43.5 7.25C23.4797 7.25 7.25 23.4797 7.25 43.5C7.25 63.5203 23.4797 79.75 43.5 79.75Z" fill="#FF7247"/>
<path d="M43.5 72.5C59.5163 72.5 72.5 59.5163 72.5 43.5C72.5 27.4837 59.5163 14.5 43.5 14.5C27.4837 14.5 14.5 27.4837 14.5 43.5C14.5 59.5163 27.4837 72.5 43.5 72.5Z" fill="#EEEEEE"/>
<path d="M27.3608 60.6826L26.335 59.6567L42.9936 42.998L44.0195 44.0221L27.3608 60.6826Z" fill="#FF7247"/>
<path d="M41.6875 19.9375H45.3125V43.5H41.6875V19.9375Z" fill="#4053F3"/>
<path d="M56.7045 53.7478L53.7592 56.695L41.9707 44.9065L44.9178 41.9575L56.7045 53.7478Z" fill="#4053F3"/>
<path d="M43.5 47.125C45.502 47.125 47.125 45.502 47.125 43.5C47.125 41.498 45.502 39.875 43.5 39.875C41.498 39.875 39.875 41.498 39.875 43.5C39.875 45.502 41.498 47.125 43.5 47.125Z" fill="black"/>
<path d="M43.5 45.3125C44.501 45.3125 45.3125 44.501 45.3125 43.5C45.3125 42.499 44.501 41.6875 43.5 41.6875C42.499 41.6875 41.6875 42.499 41.6875 43.5C41.6875 44.501 42.499 45.3125 43.5 45.3125Z" fill="#FF7247"/>
<path d="M39.875 1.8125H47.125V7.25H39.875V1.8125Z" fill="#37474F"/>
<path d="M80.4746 29.3627C85.0059 23.019 84.2809 14.1377 78.6621 8.51896C73.0434 2.9002 64.1621 2.1752 57.8184 6.70646L80.4746 29.3627Z" fill="#37474F"/>
<path d="M6.52384 29.3627C1.99259 23.019 2.71759 14.1377 8.33634 8.51896C13.9551 2.9002 22.8363 2.1752 29.1801 6.70646L6.52384 29.3627Z" fill="#37474F"/>
</svg>
