<svg width="85" height="88" viewBox="0 0 85 88" fill="none" xmlns="http://www.w3.org/2000/svg">
<path d="M41.5866 80.8278C61.5668 80.8278 77.764 64.7726 77.764 44.9675C77.764 25.1624 61.5668 9.10718 41.5866 9.10718C21.6064 9.10718 5.40918 25.1624 5.40918 44.9675C5.40918 64.7726 21.6064 80.8278 41.5866 80.8278Z" fill="#FF7247"/>
<path d="M37.9701 37.7953C38.3319 38.5125 38.3319 38.8711 39.0555 39.2297C39.4172 39.5884 40.1408 39.9469 40.8643 40.6642C41.5879 41.0228 42.6732 41.3814 43.7585 41.74C45.5674 42.4572 47.0145 43.1744 48.4616 43.8916C49.9087 44.6088 50.994 45.326 52.0793 46.4018C53.1646 47.4776 53.8882 48.5534 54.6117 49.6292C55.3353 51.0636 55.3353 52.498 55.3353 54.291C55.3353 55.7255 54.9735 57.1599 54.6117 58.5943C54.25 60.0287 53.5264 61.1045 52.4411 61.8217C51.3558 62.8975 50.2704 63.6147 49.1851 63.9733C47.738 64.6905 46.2909 65.0491 44.8438 65.0491V70.4282H40.5026V65.0491C39.0555 65.0491 37.6084 64.6905 36.1613 63.9733C34.7142 63.2561 33.6288 62.5389 32.5435 61.8217C31.4582 60.7459 30.7346 59.6701 30.0111 57.8771C29.2876 56.4427 28.9258 54.6497 28.9258 52.498H36.8848C36.8848 53.9324 36.8848 55.0083 37.2466 55.7255C37.6084 56.4427 37.9701 57.1599 38.6937 57.8771C39.4172 58.2357 39.779 58.5943 40.5026 58.9529C41.2261 59.3115 41.9496 59.3115 42.6732 59.3115C43.3967 59.3115 44.1203 59.3115 44.8438 58.9529C45.5674 58.5943 45.9292 58.2357 46.2909 57.8771C46.6527 57.5185 47.0145 56.8013 47.3763 56.4427C47.738 55.7255 47.738 55.3669 47.738 54.6497C47.738 53.9325 47.738 53.2152 47.3763 52.498C47.0145 51.7808 47.0145 51.4222 46.2909 51.0636C45.9292 50.705 45.2056 49.9878 44.4821 49.6292C43.7585 49.2706 43.035 48.912 41.9496 48.5534C40.1408 47.8362 38.6937 47.119 37.2466 46.4018C35.7995 45.6846 34.7142 44.9674 33.6288 43.8916C32.5435 42.8158 31.82 41.74 31.0964 40.6642C30.3729 39.2297 30.3729 37.7953 30.3729 36.0023C30.3729 34.5679 30.7346 33.1335 31.0964 31.6991C31.4582 30.6233 32.1818 29.1889 33.2671 28.4717C34.3524 27.3959 35.4377 26.6786 36.523 26.32C37.9701 25.6028 39.4172 25.2442 40.8643 25.2442V19.5066H45.2056V25.2442C46.6527 25.6028 48.0998 25.9614 49.5469 26.6786C50.994 27.3959 51.7175 28.1131 52.8029 29.1889C53.5264 30.2647 54.25 31.3405 54.9735 32.7749C55.3353 34.2093 55.6971 36.0023 55.6971 37.7953H47.738C47.738 35.6437 47.3763 34.2093 46.2909 33.1335C45.5674 32.0577 44.1203 31.6991 42.6732 31.6991C41.9496 31.6991 41.2261 31.6991 40.5026 32.0577C39.779 32.4163 39.4172 32.7749 39.0555 33.1335C38.3319 33.1335 37.9701 33.4921 37.9701 34.2093C37.9701 34.9265 37.6084 35.2851 37.6084 36.0023C37.6084 36.7195 37.6084 37.4367 37.9701 37.7953Z" fill="white"/>
</svg>
