<svg width="109" height="97" viewBox="0 0 109 97" fill="none" xmlns="http://www.w3.org/2000/svg">
<path d="M67.1538 84.5641H9.94872C4.47692 84.5641 0 80.0872 0 74.6154V9.94872C0 4.47692 4.47692 0 9.94872 0H89.5385C95.0103 0 99.4872 4.47692 99.4872 9.94872V52.2308C99.4872 70.1385 85.0615 84.5641 67.1538 84.5641Z" fill="#4053F3"/>
<path d="M75.6904 71.1953H26.5949C22.896 71.1953 19.8975 68.2046 19.8975 64.5155V20.0481C19.8975 16.3586 22.896 13.3684 26.5949 13.3684H75.6904C79.3897 13.3684 82.3878 16.3586 82.3878 20.0481V64.5155C82.3878 68.2046 79.3897 71.1953 75.6904 71.1953Z" fill="#7D97F4"/>
<path d="M56.0502 44.7118L51.8452 30.912C51.5871 30.0649 50.384 30.0736 50.1401 30.9243C49.0332 34.7891 47.0313 41.2864 45.9711 44.7048C45.623 45.8286 46.4634 46.9647 47.6399 46.9647H54.3795C55.5523 46.9647 56.3919 45.8321 56.0502 44.7118ZM69.4615 64.6663H64.1818C63.023 64.6663 61.9971 63.918 61.6443 62.8153L59.4804 56.0545C59.2235 55.2518 58.4768 54.7072 57.6335 54.7072H44.532C43.6867 54.7072 42.9387 55.2544 42.6834 56.0596L40.5447 62.8081C40.1942 63.9143 39.1666 64.6663 38.005 64.6663H32.8235C30.9744 64.6663 29.6877 62.8301 30.3202 61.0943L43.7114 24.3429C44.6836 21.6736 47.2226 19.897 50.0651 19.897H52.5274C55.3881 19.897 57.9394 21.6964 58.8981 24.3902L71.9722 61.1127C72.5889 62.8455 71.3029 64.6663 69.4615 64.6663Z" fill="white"/>
<path d="M23.9807 54.4067H23.6279V25.7098C23.6279 21.9904 26.7462 18.9644 30.5796 18.9644H43.2145V19.3074H30.5796C26.941 19.3074 23.9807 22.1795 23.9807 25.7098V54.4067Z" fill="#BDD0FB"/>
<path d="M108.167 49.992L101.203 43.0279C100.208 42.033 98.4672 42.033 97.2236 43.0279L93.9902 46.2612L104.934 57.2048L108.167 53.9715C109.162 52.9766 109.162 51.2356 108.167 49.992Z" fill="#E57373"/>
<path d="M57.8438 82.492L88.4435 51.8948L99.3473 62.7986L68.7451 93.3933L57.8438 82.492Z" fill="#FF7247"/>
<path d="M104.934 57.2995L99.4824 62.7514L88.5811 51.8476L94.0329 46.3982L104.934 57.2995Z" fill="#B0BEC5"/>
<path d="M57.9261 82.5742L54.1953 96.9999L68.6209 93.2691L57.9261 82.5742Z" fill="#FFC107"/>
<path d="M55.9363 89.5386L54.1953 97.0001L61.6569 95.2591L55.9363 89.5386Z" fill="#37474F"/>
</svg>
