<svg width="797" height="584" viewBox="0 0 797 584" fill="none" xmlns="http://www.w3.org/2000/svg">
<g clip-path="url(#clip0)">
<path d="M650.238 355.439C649.572 356.752 648.881 358.056 648.165 359.352L648.108 359.457L623.446 404.089L621.215 408.12L595.591 454.498L593.467 458.352L576.011 489.938C566.937 506.366 554.43 520.44 539.422 531.111C537.995 532.135 536.545 533.113 535.074 534.065C515.976 546.444 493.948 553.003 471.473 553H327.166C297.376 553.002 268.637 541.492 246.48 520.685C245.268 519.549 244.078 518.385 242.911 517.192C234.984 509.124 228.159 499.953 222.628 489.938L203.319 454.991L201.07 450.914L171.449 397.32L168.847 392.604L150.475 359.35C147.967 354.815 145.734 350.12 143.789 345.293C143.029 343.416 142.319 341.531 141.659 339.627C135.586 322.299 133.228 303.789 134.751 285.405C136.275 267.02 141.642 249.209 150.475 233.23L159.435 217.012L161.816 212.705L186.284 168.421L188.508 164.396L216.596 113.567L218.795 109.572L222.628 102.639C232.536 84.7138 246.513 69.6119 263.328 58.6654C280.142 47.7189 299.276 41.2643 319.042 39.8709C321.48 39.6938 323.935 39.5998 326.406 39.5889C326.657 39.5822 326.913 39.5822 327.166 39.5822H471.473C499.54 39.5795 526.73 49.7995 548.364 68.4832C549.627 69.574 550.867 70.6902 552.084 71.8317C561.568 80.7165 569.644 91.1161 576.011 102.643L604.205 153.677L606.367 157.583L633.08 205.931L635.512 210.323L648.167 233.23C652.212 240.546 655.543 248.269 658.107 256.282C658.591 257.785 659.046 259.3 659.471 260.825C668.329 292.414 665.016 326.369 650.238 355.439Z" fill="#EDFBFF"/>
<path d="M606.367 157.583C589.254 164.154 571.795 169.698 554.076 174.186C520.633 182.688 486.343 187.007 451.925 187.054C427.421 187.054 402.964 184.82 378.831 180.377C314.312 168.5 260.187 142.764 216.598 113.567L218.797 109.573C261.996 138.54 315.644 164.073 379.597 175.845C454.521 189.639 529.754 182.174 604.207 153.673L606.367 157.583Z" fill="white"/>
<path d="M595.59 454.498L593.466 458.352C546.943 434.323 491.844 415.998 428.38 411.18C336.057 404.174 258.135 428.709 203.318 454.991L201.069 450.914C216.754 443.355 232.814 436.677 249.181 430.909C307.945 410.195 368.342 402.021 428.695 406.597C476.575 410.242 523.575 421.958 567.874 441.289C577.204 445.353 586.443 449.756 595.59 454.498Z" fill="white"/>
<path d="M539.422 531.111C537.995 532.135 536.545 533.113 535.074 534.065C512.209 523.025 488.348 514.392 463.845 508.296C377.171 486.807 300.851 501.159 246.48 520.685C245.268 519.549 244.078 518.385 242.911 517.192C258.259 511.6 273.904 506.941 289.767 503.241C348.876 489.477 407.79 489.67 464.863 503.818C490.549 510.208 515.535 519.354 539.422 531.111Z" fill="white"/>
<path d="M552.083 71.8307C530.473 79.7068 508.028 84.8106 485.239 87.0298C477.668 87.7385 470.121 88.093 462.6 88.0933C441.365 88.113 420.219 85.2417 399.694 79.5517C371.238 71.6536 343.872 58.1417 319.041 39.8709C321.479 39.6938 323.934 39.5998 326.405 39.5889C349.509 55.7923 374.7 67.8595 400.827 75.1142C456.568 90.5939 507.765 82.7496 548.363 68.4822C549.625 69.5724 550.865 70.6885 552.083 71.8307Z" fill="white"/>
<path d="M514.331 351.493C543.676 369.692 580.654 387.478 623.444 404.089L621.214 408.12C578.467 391.49 541.488 373.677 512.088 355.445C465.358 326.472 442.455 299.192 445.842 276.57C447.419 266.058 454.802 256.282 467.783 247.511C479.779 239.416 496.593 232.128 517.768 225.865C548.784 216.693 588.098 209.917 633.077 205.932L635.509 210.324C526.333 219.72 455.028 244.97 450.189 277.279C447.143 297.597 469.926 323.957 514.331 351.493Z" fill="white"/>
<path d="M615.873 329.223C625.135 338.638 636.83 347.514 650.237 355.439C649.571 356.752 648.881 358.056 648.165 359.352L648.108 359.457C607.536 335.499 586.681 305.331 592.317 286.101C597.193 269.464 623.08 258.355 658.105 256.281C658.589 257.784 659.043 259.298 659.468 260.824C626.04 262.61 600.868 272.629 596.527 287.44C593.397 298.116 600.629 313.735 615.873 329.223Z" fill="white"/>
<path d="M387.355 312.062C385.245 326.86 372.307 341.83 349.957 355.361C329.492 367.743 302.428 378.34 271.683 386.002C241.271 393.578 210.3 397.518 182.112 397.518C178.512 397.518 174.957 397.452 171.449 397.321L168.848 392.605C173.089 392.802 177.385 392.898 181.735 392.893C210.991 392.893 242.264 388.606 270.666 381.528C300.562 374.077 327.939 363.375 347.752 351.38C368.908 338.579 381.097 324.744 383.008 311.377C386.056 290.058 364.013 263.409 319.262 234.305C285.249 212.179 239.839 189.718 186.285 168.422L188.509 164.398C242.045 185.717 287.48 208.222 321.587 230.407C343.95 244.949 360.915 259.065 372.012 272.354C383.919 286.62 389.083 299.974 387.355 312.062Z" fill="white"/>
<path d="M217.105 332.361C206.46 343.792 190.136 350.239 172.014 350.239C171.179 350.239 170.337 350.226 169.488 350.199C160.74 349.87 152.084 348.218 143.788 345.295C143.028 343.418 142.318 341.533 141.658 339.629C150.604 343.212 160.053 345.23 169.626 345.604C187.515 346.188 203.67 340.194 213.95 329.157C232.09 309.677 231.531 276.172 220.51 255.04C209.903 234.7 187.629 221.707 159.435 217.013L161.816 212.706C162.243 212.778 162.671 212.863 163.091 212.942C192.121 218.562 213.881 232.73 224.368 252.847C236.156 275.439 236.659 311.358 217.105 332.361Z" fill="white"/>
<path d="M211.735 462.226H56.7602C52.6523 462.226 48.7127 460.521 45.808 457.486C42.9033 454.451 41.2715 450.335 41.2715 446.043V364.222C41.2712 362.097 41.6716 359.992 42.4499 358.029C43.2281 356.065 44.369 354.281 45.8073 352.778C47.2456 351.275 48.9532 350.083 50.8325 349.27C52.7118 348.456 54.7261 348.038 56.7602 348.038H211.735C213.769 348.038 215.783 348.457 217.662 349.27C219.541 350.083 221.249 351.275 222.687 352.778C224.126 354.281 225.267 356.065 226.045 358.029C226.823 359.992 227.224 362.097 227.224 364.222V446.043C227.224 450.335 225.592 454.452 222.687 457.487C219.782 460.521 215.843 462.226 211.735 462.226Z" fill="#4053F3" fill-opacity="0.87"/>
<path d="M192.634 457.399L226.243 427.065L225.383 456.488L192.634 457.399Z" fill="#3950FE"/>
<path d="M189.281 366.7H63.7348C61.246 366.7 59.2285 368.808 59.2285 371.408C59.2285 374.009 61.246 376.117 63.7348 376.117H189.281C191.77 376.117 193.787 374.009 193.787 371.408C193.787 368.808 191.77 366.7 189.281 366.7Z" fill="white"/>
<path d="M143.026 390.914H63.7348C61.246 390.914 59.2285 393.022 59.2285 395.623C59.2285 398.223 61.246 400.331 63.7348 400.331H143.026C145.515 400.331 147.533 398.223 147.533 395.623C147.533 393.022 145.515 390.914 143.026 390.914Z" fill="white"/>
<path d="M171.994 417.819H63.7348C61.246 417.819 59.2285 419.927 59.2285 422.527C59.2285 425.127 61.246 427.235 63.7348 427.235H171.994C174.483 427.235 176.5 425.127 176.5 422.527C176.5 419.927 174.483 417.819 171.994 417.819Z" fill="white"/>
<path d="M34.9315 366.634C48.1484 366.634 58.8629 355.439 58.8629 341.629C58.8629 327.819 48.1484 316.624 34.9315 316.624C21.7145 316.624 11 327.819 11 341.629C11 355.439 21.7145 366.634 34.9315 366.634Z" fill="#FF7247"/>
<path d="M542.657 239H709.341C713.759 239 717.996 237.163 721.12 233.894C724.244 230.625 725.999 226.191 725.999 221.568V133.432C725.999 131.143 725.568 128.876 724.731 126.761C723.894 124.646 722.667 122.724 721.12 121.106C719.573 119.487 717.737 118.203 715.716 117.327C713.694 116.451 711.528 116 709.341 116H542.657C540.47 116 538.303 116.451 536.282 117.327C534.261 118.203 532.425 119.487 530.878 121.106C529.331 122.724 528.104 124.646 527.267 126.761C526.43 128.876 525.999 131.143 525.999 133.432V221.567C525.999 223.856 526.43 226.123 527.267 228.238C528.104 230.353 529.331 232.275 530.878 233.894C532.425 235.513 534.261 236.797 536.282 237.673C538.303 238.549 540.47 239 542.657 239Z" fill="#5769F5" fill-opacity="0.89"/>
<path d="M726.999 205L692.999 240H724.969L726.999 205Z" fill="#4053F3"/>
<path d="M557.821 156L692.177 156C694.84 156 696.999 153.761 696.999 151C696.999 148.239 694.84 146 692.177 146L557.821 146C555.158 146 552.999 148.239 552.999 151C552.999 153.761 555.158 156 557.821 156Z" fill="white"/>
<path d="M606.847 182H692.151C694.829 182 696.999 179.761 696.999 177C696.999 174.239 694.829 172 692.151 172H606.847C604.169 172 601.999 174.239 601.999 177C601.999 179.761 604.169 182 606.847 182Z" fill="white"/>
<path d="M575.841 211L692.158 211C694.831 211 696.999 208.761 696.999 206C696.999 203.239 694.831 201 692.158 201L575.841 201C573.167 201 570.999 203.239 570.999 206C570.999 208.761 573.167 211 575.841 211Z" fill="white"/>
<path d="M723.499 146C737.582 146 748.999 133.912 748.999 119C748.999 104.088 737.582 92 723.499 92C709.416 92 697.999 104.088 697.999 119C697.999 133.912 709.416 146 723.499 146Z" fill="#FF7247"/>
<path d="M275.999 194C302.509 194 323.999 171.614 323.999 144C323.999 116.386 302.509 94 275.999 94C249.489 94 227.999 116.386 227.999 144C227.999 171.614 249.489 194 275.999 194Z" fill="#4053F3"/>
<path d="M599.499 482C611.925 482 621.999 471.479 621.999 458.5C621.999 445.521 611.925 435 599.499 435C587.073 435 576.999 445.521 576.999 458.5C576.999 471.479 587.073 482 599.499 482Z" fill="#FF7247"/>
<path d="M273.499 520C282.612 520 289.999 512.165 289.999 502.5C289.999 492.835 282.612 485 273.499 485C264.386 485 256.999 492.835 256.999 502.5C256.999 512.165 264.386 520 273.499 520Z" stroke="#494E6D" stroke-width="5" stroke-miterlimit="10"/>
<path d="M160.999 233C170.388 233 177.999 224.941 177.999 215C177.999 205.059 170.388 197 160.999 197C151.61 197 143.999 205.059 143.999 215C143.999 224.941 151.61 233 160.999 233Z" fill="#FF7247"/>
<path d="M666.999 338C674.731 338 680.999 331.284 680.999 323C680.999 314.716 674.731 308 666.999 308C659.267 308 652.999 314.716 652.999 323C652.999 331.284 659.267 338 666.999 338Z" fill="#4053F3"/>
<path d="M441.999 167C451.388 167 458.999 158.941 458.999 149C458.999 139.059 451.388 131 441.999 131C432.61 131 424.999 139.059 424.999 149C424.999 158.941 432.61 167 441.999 167Z" fill="#F1446F"/>
<path d="M414.235 323.269C415.474 323.258 416.696 322.971 417.82 322.428L416.905 320.314C413.919 321.721 411.338 320.484 410.695 319.092C410.129 317.864 410.98 316.494 412.973 315.422C420.295 311.492 419.247 303.303 419.235 303.22L417.035 303.55C417.071 303.82 417.845 310.195 411.957 313.356C408.186 315.381 407.842 318.254 408.694 320.099C409.537 321.922 411.652 323.269 414.235 323.269Z" fill="#30354F"/>
<path d="M432.932 301.722L434.959 300.769C434.334 299.261 433.334 297.954 432.064 296.985C430.793 296.017 429.297 295.42 427.732 295.259L427.612 297.577C428.77 297.716 429.872 298.172 430.807 298.9C431.741 299.628 432.474 300.602 432.932 301.722Z" fill="#30354F"/>
<path d="M417.241 295.18L418.526 293.287C414.749 290.485 409.803 291.673 409.596 291.725L410.108 293.984C410.148 293.974 414.295 292.995 417.241 295.18Z" fill="#30354F"/>
<g opacity="0.3">
<g opacity="0.3">
<path opacity="0.3" d="M326.374 231.853L370.237 257.097H481.55V231.853H326.374Z" fill="black"/>
<path opacity="0.3" d="M380.377 294.136C362.554 302.816 346.586 314.609 333.135 328.921V266.904L380.377 294.136ZM312.927 400.479C320.878 372.85 336.846 348.666 358.181 330.511L398.598 400.479H421.987L374.613 318.452C390.515 308.381 408.537 301.358 427.884 298.178L312.927 231.854V400.479Z" fill="black"/>
<path opacity="0.3" d="M449.681 303.014H481.551V328.258H388.062L383.755 320.837C403.235 309.772 425.696 303.345 449.681 303.014Z" fill="black"/>
<path opacity="0.3" d="M415.163 375.169L429.806 400.479H481.553V375.169H415.163Z" fill="black"/>
</g>
</g>
<path d="M329.689 228.542L373.552 253.786H484.865V228.542H329.689Z" fill="#F78F01"/>
<path d="M383.693 290.824C365.869 299.503 349.901 311.297 336.451 325.609V263.592L383.693 290.824ZM316.242 397.167C324.193 369.538 340.161 345.354 361.496 327.199L401.913 397.167H425.302L377.928 315.14C393.83 305.069 411.852 298.046 431.199 294.865L316.242 228.542V397.167Z" fill="#FBBF13"/>
<path d="M452.998 299.7H484.868V324.944H391.378L387.071 317.523C406.551 306.458 429.012 300.031 452.998 299.7Z" fill="#F78F01"/>
<path d="M418.478 371.854L433.12 397.165H484.868V371.854H418.478Z" fill="#F78F01"/>
</g>
<defs>
<clipPath id="clip0">
<rect width="797" height="584" fill="white"/>
</clipPath>
</defs>
</svg>
