<svg width="814" height="884" viewBox="0 0 814 884" fill="none" xmlns="http://www.w3.org/2000/svg">
<path d="M169.246 305.096C165.258 285.169 159.098 268.013 147.522 258.2C139.08 251.043 122.29 248.693 103.861 248.693C96.1219 248.693 88.096 249.108 80.2746 249.756C77.5761 246.357 75.0079 242.663 72.6156 238.651C62.1621 221.111 54.994 197.328 54.2301 163.909C52.8596 103.976 51.3765 77.77 50.3827 66.3481C50.0329 62.3212 53.226 59 57.0838 59C57.5005 59 57.9239 59.0363 58.352 59.1193C79.1677 63.0425 131.31 75.139 169.87 103.39C174.171 106.54 178.3 109.887 182.2 113.452L190.264 279.964C186.524 250.857 179.56 234.043 177.058 225.818C156.017 171.936 116.543 118.05 82.4043 87.6039C82.1594 87.3859 81.8501 87.2769 81.5408 87.2769C81.219 87.2769 80.8978 87.3963 80.6477 87.635C78.5719 89.6225 83.246 89.8301 105.449 118.346L108.397 122.077C137.054 160.001 164.76 204.718 177.182 250.836C181.706 268.309 184.505 286.663 185.781 304.665L169.246 305.096Z" fill="url(#paint0_linear)"/>
<path d="M185.781 304.665C184.505 286.663 181.706 268.31 177.181 250.835C164.76 204.718 137.054 160.001 108.397 122.076L105.448 118.344C83.2459 89.8288 78.5716 89.6232 80.6477 87.6318C80.897 87.3961 81.219 87.2757 81.54 87.2757C81.8495 87.2757 82.159 87.3861 82.4037 87.6018C116.542 118.048 156.017 171.934 177.058 225.815C179.559 234.041 186.524 250.86 190.264 279.962L191.452 304.52L185.781 304.665Z" fill="url(#paint1_linear)"/>
<path d="M73.9319 317.029C73.6883 316.268 73.4585 315.503 73.2423 314.731C70.2758 304.103 63.2212 293.523 55.4928 284.389C47.3123 274.724 38.3774 266.685 32.7435 261.954C30.5214 260.086 31.4827 256.484 34.3377 255.96C41.6229 254.628 53.6829 252.607 67.4007 251.033C71.5672 250.554 75.8911 250.119 80.2755 249.753C88.0969 249.105 96.1228 248.69 103.862 248.69C122.291 248.69 139.081 251.045 147.523 258.198C159.1 268.009 165.259 285.17 169.248 305.093L141.601 305.81C125.389 282.022 94.9099 269.333 66.4683 268.142C66.4599 268.138 66.4518 268.138 66.4434 268.138C66.1257 268.138 65.8512 268.383 65.8182 268.701C65.7832 269.048 66.034 269.358 66.3786 269.39C66.3786 269.39 66.3786 269.39 66.379 269.39C66.5315 269.39 89.0103 270.827 112.535 284.188C124.086 290.967 131.284 297.915 136.943 305.926L93.1112 307.062C92.5971 307.025 92.0923 307.009 91.5952 307.009C83.2085 307.009 77.224 311.848 73.9319 317.029Z" fill="url(#paint2_linear)"/>
<path d="M136.943 305.93C131.283 297.915 124.086 290.969 112.534 284.188C89.0099 270.828 66.5314 269.391 66.3787 269.391C66.3783 269.391 66.3779 269.391 66.3783 269.391C66.0334 269.359 65.7826 269.051 65.8177 268.703C65.8506 268.383 66.1252 268.141 66.4428 268.141C66.4513 268.141 66.4595 268.141 66.4677 268.145C94.9092 269.332 125.389 282.024 141.6 305.809L136.943 305.93Z" fill="url(#paint3_linear)"/>
<path d="M741.247 712.858H577.672H219.532H88.4777C81.8381 712.858 76.4061 707.43 76.4061 700.798L74.9024 596.92L70.9746 325.672C70.9746 323.289 71.9806 320.096 73.9311 317.03C77.2236 311.848 83.2079 307.007 91.5948 307.007C92.092 307.007 92.5966 307.028 93.1106 307.06L136.943 305.926L141.6 305.81L169.247 305.091L185.782 304.666L191.453 304.519L192.166 319.246L117.135 321.262C116.834 321.246 116.528 321.241 116.217 321.241C105.265 321.241 88.2609 328.754 87.6739 348.684L92.7992 689.227C92.7992 695.508 97.9383 700.649 104.219 700.649H210.634L211.007 708.311H698.289L698.661 700.649H729.98C736.259 700.649 741.399 695.508 741.399 689.227L750.493 326.733C750.64 320.884 748.377 315.224 744.234 311.087C740.223 307.086 734.799 304.849 729.15 304.849C728.961 304.849 728.772 304.855 728.578 304.86L717.914 305.143L718.607 290.878L731.066 290.553C731.329 290.547 731.597 290.542 731.859 290.542C739.908 290.542 747.637 293.729 753.349 299.426C759.25 305.306 762.479 313.344 762.28 321.666L757.57 520.847L753.317 700.798C753.317 707.43 747.883 712.858 741.247 712.858Z" fill="url(#paint4_linear)"/>
<path d="M729.978 700.649H698.657L699.63 680.678C711.41 678.637 720.456 668.571 720.839 656.23C722.279 609.813 725.411 508.876 727.301 447.604C729.103 389.1 726.939 353.234 716.293 338.383L717.914 305.141L728.575 304.856C728.767 304.851 728.958 304.851 729.15 304.851C734.799 304.851 740.22 307.088 744.233 311.09C748.376 315.227 750.638 320.882 750.488 326.738L741.396 689.228C741.396 695.509 736.259 700.649 729.978 700.649ZM210.633 700.649H104.219C97.9377 700.649 92.7985 695.509 92.7985 689.228L87.6729 348.682C88.26 328.758 105.264 321.244 116.216 321.244C116.528 321.244 116.833 321.249 117.134 321.26L192.164 319.246L193.358 343.898C147.126 346.414 117.647 351.204 119.163 371.419C120.778 392.947 121.022 642.192 120.367 670.336C120.137 680.19 130.072 683.449 153.52 683.449C156.631 683.449 159.982 683.394 163.575 683.286C168.334 683.145 185.005 682.99 209.771 682.833L210.633 700.649Z" fill="url(#paint5_linear)"/>
<path d="M99.5613 526.851C98.9735 526.851 98.4926 526.378 98.484 525.787L98.0782 498.17C98.0697 497.576 98.5451 497.085 99.1401 497.076C99.7154 497.046 100.225 497.543 100.233 498.14L100.639 525.757C100.648 526.351 100.173 526.84 99.5773 526.851H99.5613Z" fill="white"/>
<path d="M98.5691 459.173C97.9812 459.173 97.5004 458.702 97.4915 458.109L95.9385 352.338C95.9706 345.224 98.1629 339.545 102.455 335.43C110.253 327.959 122.445 328.334 122.96 328.355L318.205 323.116C318.794 323.062 319.294 323.569 319.311 324.165C319.326 324.757 318.858 325.254 318.262 325.268L122.955 330.508C122.4 330.486 111.091 330.14 103.946 336.99C100.092 340.68 98.1229 345.838 98.0933 352.324L99.647 458.077C99.6556 458.673 99.1802 459.166 98.5852 459.173H98.5691Z" fill="white"/>
<path d="M153.52 683.45C130.072 683.45 120.137 680.19 120.367 670.337C121.022 642.192 120.778 392.95 119.163 371.423C117.647 351.206 147.126 346.413 193.358 343.904L209.771 682.833C185.005 682.991 168.334 683.146 163.576 683.286C159.982 683.394 156.631 683.45 153.52 683.45ZM699.63 680.679L716.289 338.381C726.937 353.231 729.104 389.1 727.3 447.605C725.41 508.878 722.276 609.813 720.84 656.23C720.457 668.572 711.406 678.638 699.63 680.679Z" fill="url(#paint6_linear)" fill-opacity="0.66"/>
<path d="M789.794 743.998H53.1643C44.1008 743.998 36.6846 736.581 36.6846 727.518C36.6846 718.455 44.1008 711.038 53.1643 711.038H789.794C798.853 711.038 806.272 718.455 806.272 727.518C806.272 736.581 798.853 743.998 789.794 743.998Z" fill="url(#paint7_linear)"/>
<path d="M698.288 708.312H211.007L210.635 700.649L209.772 682.832L193.359 343.899L192.166 319.244L191.453 304.516L190.266 279.959L182.201 113.449L181.212 93.0192L180.881 86.1867C180.171 71.8633 191.594 59.8779 205.911 59.8779C205.963 59.8779 206.016 59.8779 206.068 59.8779L223.849 59.9868L606.671 62.33L643.949 62.5581L725.343 152.474L723.695 186.414L718.609 290.877L717.914 305.143L716.297 338.378L699.636 680.678L698.661 700.649L698.288 708.312ZM270.369 658.483C264.377 658.483 259.706 663.497 260.303 669.278L260.435 670.557C260.955 675.595 265.333 679.432 270.548 679.432C270.567 679.432 270.59 679.432 270.609 679.432L542.758 677.857C548.216 677.824 552.659 673.615 552.82 668.328C552.986 662.778 548.393 658.187 542.669 658.187C542.664 658.187 542.659 658.187 542.654 658.187C497.429 658.248 318.984 658.483 271.062 658.483C270.83 658.483 270.595 658.483 270.371 658.483C270.371 658.483 270.371 658.483 270.369 658.483ZM273.791 607.491C266.034 607.491 260.074 612.496 260.933 618.278L261.123 619.557C261.872 624.601 267.604 628.443 274.363 628.443C274.385 628.443 274.41 628.443 274.432 628.443L626.842 627.101C633.908 627.073 639.6 622.866 639.729 617.579C639.859 612.024 633.84 607.428 626.417 607.428H626.412C579.289 607.445 420.465 607.503 327.876 607.503C304.842 607.503 285.898 607.5 273.805 607.491C273.799 607.491 273.796 607.491 273.791 607.491ZM266.529 546.832C260.469 546.832 255.745 551.832 256.342 557.61L256.475 558.889C256.997 563.933 261.435 567.781 266.728 567.781C266.741 567.781 266.755 567.781 266.769 567.781L542.4 566.693C547.926 566.674 552.431 562.472 552.602 557.185C552.773 551.63 548.118 547.028 542.317 547.025C496.293 547.006 314.026 546.92 266.548 546.832C266.543 546.832 266.535 546.832 266.529 546.832ZM270.203 500.824C262.447 500.824 256.483 505.829 257.342 511.61L257.532 512.889C258.281 517.933 264.015 521.775 270.775 521.775C270.797 521.775 270.819 521.775 270.841 521.775L623.25 520.433C630.315 520.405 636.013 516.199 636.137 510.911C636.272 505.359 630.248 500.76 622.83 500.76C622.824 500.76 622.824 500.76 622.824 500.76C575.697 500.779 416.874 500.835 324.285 500.835C301.251 500.835 282.31 500.832 270.214 500.824C270.211 500.824 270.205 500.824 270.203 500.824ZM267.905 439.462C261.844 439.462 257.12 444.462 257.72 450.238L257.853 451.52C258.375 456.564 262.814 460.412 268.103 460.412C268.117 460.412 268.134 460.412 268.148 460.412L543.779 459.323C549.305 459.301 553.81 455.1 553.976 449.813C554.152 444.261 549.497 439.656 543.691 439.656C497.667 439.634 315.405 439.548 267.927 439.462C267.918 439.462 267.913 439.462 267.905 439.462ZM273.194 392.902C265.438 392.902 259.474 397.907 260.336 403.688L260.526 404.97C261.275 410.011 267.007 413.854 273.766 413.854C273.788 413.854 273.813 413.854 273.835 413.854L626.246 412.511C633.312 412.483 639.004 408.279 639.133 402.989C639.263 397.437 633.244 392.838 625.821 392.838H625.816C578.714 392.857 420.028 392.913 327.421 392.913C304.32 392.913 285.329 392.91 273.208 392.902C273.203 392.902 273.2 392.902 273.194 392.902ZM545.531 331.436C545.51 331.436 545.49 331.436 545.469 331.436C499.663 331.701 318.255 332.732 271.001 332.934C264.957 332.966 260.275 337.994 260.905 343.774L261.046 345.055C261.59 350.078 265.999 353.883 271.233 353.883C271.269 353.883 271.308 353.883 271.344 353.883L545.671 351.104C551.171 351.047 555.629 346.817 555.764 341.53C555.904 335.998 551.28 331.436 545.531 331.436ZM273.791 287.139C266.034 287.139 260.074 292.147 260.933 297.927L261.123 299.207C261.872 304.251 267.606 308.093 274.366 308.093C274.388 308.093 274.41 308.093 274.432 308.093L626.842 306.75C633.908 306.724 639.6 302.515 639.729 297.227C639.859 291.675 633.84 287.077 626.422 287.077C626.417 287.077 626.412 287.077 626.412 287.077C579.289 287.092 420.465 287.149 327.876 287.149C304.842 287.149 285.898 287.149 273.805 287.139C273.799 287.139 273.796 287.139 273.791 287.139ZM639.247 224.309C639.232 224.309 639.216 224.309 639.206 224.309C604.318 224.542 466.154 225.465 430.161 225.636C425.563 225.662 421.92 230.691 422.315 236.471L422.401 237.746C422.743 242.769 426.045 246.58 430.032 246.58C430.063 246.58 430.083 246.58 430.115 246.58L639.061 243.972C643.249 243.92 646.712 239.695 646.889 234.413C647.08 228.876 643.628 224.309 639.247 224.309ZM399.731 244.133L351.364 102.392H329.282L281.125 244.133H300.052L314.772 199.55H365.032L380.174 244.133H399.731ZM641.015 180.67C641 180.67 640.984 180.67 640.974 180.67C606.08 180.903 467.921 181.826 431.929 181.997C427.331 182.023 423.688 187.052 424.084 192.832L424.169 194.107C424.512 199.13 427.813 202.946 431.799 202.946C431.83 202.946 431.851 202.946 431.882 202.941L640.828 200.333C645.017 200.281 648.475 196.056 648.656 190.769C648.848 185.232 645.396 180.67 641.015 180.67ZM361.247 185.248H318.559L332.437 144.242C335.171 135.616 337.483 126.995 339.585 118.587H340.008C342.11 126.788 344.212 135.196 347.367 144.45L361.247 185.248Z" fill="url(#paint8_linear)"/>
<path d="M662.156 149.812C647.892 149.311 636.927 137.014 638.052 122.786L642.745 63.3809L725.428 152.109L662.156 149.812Z" fill="url(#paint9_radial)"/>
<path d="M431.798 202.948C427.809 202.948 424.508 199.137 424.166 194.115L424.08 192.835C423.688 187.053 427.326 182.026 431.93 182.003C467.919 181.83 606.076 180.91 640.968 180.674C640.981 180.674 640.995 180.674 641.009 180.674C645.389 180.674 648.845 185.236 648.654 190.773C648.472 196.059 645.016 200.289 640.822 200.339L431.88 202.944C431.852 202.948 431.825 202.948 431.798 202.948Z" fill="url(#paint10_linear)"/>
<path d="M430.035 246.581C426.042 246.581 422.744 242.77 422.399 237.75L422.317 236.469C421.922 230.691 425.561 225.663 430.162 225.64C466.153 225.463 604.317 224.545 639.203 224.309C639.217 224.309 639.23 224.309 639.244 224.309C643.627 224.309 647.08 228.874 646.889 234.412C646.712 239.695 643.25 243.924 639.058 243.974L430.112 246.581C430.085 246.581 430.062 246.581 430.035 246.581Z" fill="url(#paint11_linear)"/>
<path d="M274.366 308.094C267.607 308.094 261.872 304.248 261.124 299.205L260.933 297.928C260.074 292.147 266.035 287.136 273.791 287.136C273.797 287.136 273.8 287.136 273.805 287.136C285.898 287.149 304.842 287.149 327.877 287.149C420.463 287.149 579.285 287.095 626.411 287.077C626.415 287.077 626.415 287.077 626.42 287.077C633.837 287.077 639.861 291.675 639.73 297.23C639.6 302.516 633.909 306.722 626.842 306.749L274.432 308.094C274.41 308.094 274.388 308.094 274.366 308.094Z" fill="url(#paint12_linear)"/>
<path d="M271.232 353.885C265.997 353.885 261.589 350.077 261.045 345.054L260.904 343.775C260.274 337.995 264.956 332.964 271 332.936C318.253 332.733 499.662 331.697 545.468 331.434C545.487 331.434 545.511 331.434 545.531 331.434C551.279 331.434 555.904 335.995 555.761 341.532C555.625 346.818 551.168 351.049 545.671 351.104L271.342 353.881C271.306 353.885 271.268 353.885 271.232 353.885Z" fill="url(#paint13_linear)"/>
<path d="M273.765 413.855C267.006 413.855 261.274 410.012 260.526 404.973L260.335 403.687C259.473 397.907 265.437 392.904 273.193 392.904C273.199 392.904 273.201 392.904 273.207 392.904C285.328 392.913 304.319 392.913 327.419 392.913C420.028 392.913 578.715 392.859 625.812 392.841C625.816 392.841 625.816 392.841 625.816 392.841C633.242 392.841 639.261 397.439 639.13 402.991C639.004 408.281 633.309 412.484 626.243 412.511L273.834 413.855C273.812 413.855 273.787 413.855 273.765 413.855Z" fill="url(#paint14_linear)"/>
<path d="M268.102 460.412C262.813 460.412 258.374 456.563 257.852 451.522L257.719 450.239C257.12 444.463 261.843 439.462 267.904 439.462C267.912 439.462 267.918 439.462 267.926 439.462C315.402 439.549 497.664 439.636 543.693 439.656C549.496 439.656 554.152 444.26 553.973 449.814C553.811 455.101 549.302 459.304 543.776 459.324L268.147 460.412C268.133 460.412 268.116 460.412 268.102 460.412Z" fill="url(#paint15_linear)"/>
<path d="M270.774 521.777C264.015 521.777 258.28 517.934 257.532 512.891L257.341 511.612C256.482 505.83 262.446 500.825 270.202 500.825C270.205 500.825 270.21 500.825 270.213 500.825C282.309 500.833 301.25 500.836 324.285 500.836C416.871 500.836 575.693 500.781 622.82 500.762H622.825C630.247 500.762 636.267 505.361 636.138 510.913C636.008 516.2 630.314 520.407 623.25 520.435L270.84 521.777C270.818 521.777 270.796 521.777 270.774 521.777Z" fill="url(#paint16_linear)"/>
<path d="M266.726 567.782C261.434 567.782 256.995 563.934 256.473 558.89L256.34 557.611C255.743 551.833 260.467 546.833 266.527 546.833C266.533 546.833 266.541 546.833 266.547 546.833C314.026 546.922 496.291 547.007 542.313 547.027C548.12 547.029 552.773 551.631 552.599 557.186C552.428 562.473 547.926 566.674 542.396 566.694L266.767 567.782C266.754 567.782 266.74 567.782 266.726 567.782Z" fill="url(#paint17_linear)"/>
<path d="M274.363 628.443C267.604 628.443 261.872 624.601 261.124 619.557L260.933 618.278C260.074 612.497 266.035 607.492 273.791 607.492C273.797 607.492 273.8 607.492 273.805 607.492C285.898 607.5 304.842 607.503 327.877 607.503C420.463 607.503 579.285 607.445 626.411 607.428C626.415 607.428 626.415 607.428 626.415 607.428C633.837 607.428 639.861 612.025 639.73 617.58C639.6 622.866 633.909 627.074 626.842 627.101L274.432 628.443C274.41 628.443 274.385 628.443 274.363 628.443Z" fill="url(#paint18_linear)"/>
<path d="M270.547 679.433C265.331 679.433 260.953 675.596 260.434 670.558L260.301 669.279C259.705 663.497 264.376 658.484 270.367 658.484C270.37 658.484 270.37 658.484 270.37 658.484C270.594 658.484 270.828 658.484 271.06 658.484C318.983 658.484 497.429 658.249 542.653 658.188C542.657 658.188 542.661 658.188 542.665 658.188C548.391 658.188 552.987 662.779 552.816 668.328C552.658 673.615 548.212 677.825 542.756 677.858L270.608 679.433C270.588 679.433 270.566 679.433 270.547 679.433Z" fill="url(#paint19_linear)"/>
<path d="M399.731 244.133H380.172L365.029 199.554H314.77L300.05 244.133H281.123L329.28 102.395H351.362L399.731 244.133ZM339.583 118.587C337.481 127.001 335.169 135.621 332.435 144.242L318.557 185.252H361.245L347.365 144.454C344.21 135.203 342.108 126.789 340.006 118.587H339.583Z" fill="url(#paint20_linear)"/>
<path d="M365.626 773.716C365.207 773.716 364.778 773.625 364.369 773.432C362.745 772.67 361.995 770.617 362.693 768.847L429.73 598.752C430.429 596.981 432.309 596.163 433.93 596.923C435.55 597.685 436.301 599.738 435.602 601.508L368.565 771.606C368.045 772.924 366.866 773.716 365.626 773.716Z" fill="url(#paint21_linear)"/>
<path d="M441.148 773.717C439.907 773.717 438.726 772.927 438.208 771.607L371.169 601.509C370.473 599.739 371.222 597.687 372.846 596.924C374.463 596.164 376.343 596.982 377.043 598.753L444.082 768.847C444.778 770.618 444.029 772.67 442.405 773.433C441.996 773.626 441.567 773.717 441.148 773.717Z" fill="url(#paint22_linear)"/>
<path d="M650.978 773.717C650.558 773.717 650.129 773.626 649.719 773.432C648.094 772.67 647.345 770.618 648.044 768.847L715.082 598.752C715.782 596.982 717.656 596.164 719.281 596.924C720.9 597.686 721.65 599.738 720.955 601.509L653.917 771.606C653.393 772.924 652.218 773.717 650.978 773.717Z" fill="url(#paint23_linear)"/>
<path d="M726.495 773.717C725.258 773.717 724.076 772.927 723.561 771.607L656.523 601.51C655.821 599.739 656.573 597.687 658.194 596.924C659.816 596.165 661.694 596.982 662.396 598.753L729.43 768.847C730.127 770.618 729.379 772.67 727.758 773.433C727.344 773.626 726.92 773.717 726.495 773.717Z" fill="url(#paint24_linear)"/>
<path d="M613.949 744.81H606.02V659.094H613.949V744.81Z" fill="url(#paint25_linear)"/>
<path d="M644.696 746.464H575.273V746.092C575.273 743.448 577.42 741.305 580.06 741.305H639.538C642.386 741.305 644.696 743.614 644.696 746.464Z" fill="url(#paint26_linear)"/>
<path d="M654.997 656.12C654.997 660.807 651.158 664.644 646.475 664.644H576.239C571.551 664.644 567.712 660.807 567.712 656.12V648.413C567.712 643.725 571.551 639.889 576.239 639.889H646.475C651.158 639.889 654.997 643.725 654.997 648.413V656.12Z" fill="url(#paint27_linear)"/>
<path d="M551.466 601.943C551.466 601.943 539.689 603.769 526.449 612.619C524.363 614.015 523.223 616.443 523.537 618.929C525.123 631.488 531.642 672.14 553.139 711.848C554.271 713.942 554.598 716.378 554.098 718.707L550.363 736.087L543.44 742.581H561.277L573.158 710.437L568.077 708.829C564.14 707.583 561.438 703.962 561.364 699.832L560.769 665.348C561.277 649.984 551.351 639.383 551.351 639.383L579.842 637.996L551.466 601.943Z" fill="url(#paint28_linear)"/>
<path d="M536.474 745.719C534.845 747.846 553.956 750.649 563.615 746C563.615 746 577 722.712 577 710.721C577 710.721 575.935 708.276 568.078 708.828C568.078 708.828 563.586 736.404 558.839 739.492C554.092 742.581 545.561 739.805 545.561 739.805C545.561 739.805 538.868 742.581 536.474 745.719Z" fill="url(#paint29_linear)"/>
<path d="M576.24 639.887C576.087 639.625 545.563 636.216 545.563 636.216C545.563 636.216 546.561 645.498 543.438 658.276C540.316 671.051 495.5 726.407 495.5 726.407L500.201 741.304C485.672 746.365 471.377 747.174 457.312 743.884L486.436 726.407C486.436 726.407 513.694 633.523 530.389 616.952L560.987 606.367L576.24 639.887Z" fill="url(#paint30_linear)"/>
<path d="M644.697 585.844C644.697 585.844 662.285 612.003 663.726 623.933C665.171 635.866 658.907 640.714 640.454 641.515C622.002 642.313 572.74 642.302 572.74 642.302L530.695 606.368C530.695 606.368 561.332 595.435 569.302 592.344C577.266 589.253 644.697 585.844 644.697 585.844Z" fill="url(#paint31_linear)"/>
<path d="M498.423 736.288C498.423 736.288 503.48 741.189 500.065 746.639C500.065 746.639 459.986 753.743 449.104 750.52C449.104 750.52 451.367 745.363 463.616 739.493L462.711 740.189C461.569 741.065 462.241 742.896 463.678 742.813C471.753 742.352 488.462 740.874 498.423 736.288Z" fill="url(#paint32_linear)"/>
<path d="M584.777 432.556C587.521 432.104 597.624 430.856 599.296 436.916C599.515 437.717 600.517 437.987 601.136 437.433C604.322 434.582 611.831 429.225 620.067 433.003C627.338 436.343 626.667 443.289 625.409 447.551C625.107 448.579 626.229 449.435 627.119 448.836C633.463 444.562 648.08 436.934 657.448 449.51C666.181 461.238 659.055 469.379 654.266 473.08C653.451 473.704 653.838 474.992 654.858 475.094C658.351 475.437 663.172 477.362 665.39 484.839C668.864 496.56 647.363 506.299 644.829 507.402C644.67 507.471 644.498 507.498 644.326 507.49L600.899 505.264C600.559 505.247 600.247 505.078 600.046 504.808L573.402 468.92C573.188 468.627 573.123 468.255 573.235 467.909L583.888 433.343C584.013 432.933 584.353 432.63 584.777 432.556Z" fill="url(#paint33_linear)"/>
<path d="M597.13 582.381C597.13 582.381 576.652 562.88 566.574 549.963C561.124 542.983 559.408 533.791 561.931 525.299C566.532 509.794 574.714 493.732 575.46 491.232C576.601 487.401 599.565 487.561 599.565 487.561C599.565 487.561 644.754 516.888 662.509 566.567L642.569 572.774C642.569 572.774 630.77 552.98 619.11 540.395C619.11 540.395 639.285 567.042 639.995 577.951L597.13 582.381Z" fill="url(#paint34_linear)"/>
<path d="M572.684 469.821C572.921 470.615 578.916 490.484 579.387 490.896C579.854 491.31 592.531 491.99 598.496 487.913L588.375 466.722L572.684 469.821Z" fill="url(#paint35_linear)"/>
<path d="M555.745 441.792C555.745 441.792 550.745 452.421 555.707 468.968C560.674 485.521 569.587 487.225 575.384 483.356C581.181 479.484 588.765 472.479 590.145 457.668C591.525 442.861 562.599 428.365 555.745 441.792Z" fill="url(#paint36_linear)"/>
<path d="M579.108 456.358C579.108 456.358 569.904 433.882 554.628 447.222L553.304 452.895C553.304 452.895 539.296 448.427 544.343 435.759C549.389 423.1 566.083 413.074 580.942 421.853C595.797 430.627 601.103 442.431 599.925 454.065C598.746 465.699 590.129 461.439 590.129 461.439C590.129 461.439 588.721 452.81 584.661 451.159C580.602 449.508 580.487 455.997 580.487 455.997L579.108 456.358Z" fill="url(#paint37_linear)"/>
<path d="M582.502 456.738C582.502 456.738 577.7 445.207 584.932 445.023C592.164 444.839 588.875 456.113 587.303 460.215L582.502 456.738Z" fill="url(#paint38_linear)"/>
<path d="M555.415 583.827L570.46 569.325L591.277 578.118C591.277 578.118 611.997 581.327 623.854 578.118C635.712 574.908 635.712 574.908 635.712 574.908L662.512 566.566L666.717 578.46C667.79 581.479 666.712 584.833 664.103 586.689C661.784 588.336 659.068 590.148 657.337 590.904C653.804 592.448 570.339 589.835 570.339 589.835L555.415 583.827Z" fill="url(#paint39_linear)"/>
<path d="M612.357 590.667C612.287 590.67 612.222 590.67 612.157 590.67L524.87 590.576C522.711 590.573 520.965 588.821 520.97 586.664C520.97 584.507 522.728 582.722 524.879 582.761L612.165 582.858C614.32 582.858 616.07 584.609 616.066 586.766C616.066 588.857 614.42 590.564 612.357 590.667Z" fill="url(#paint40_linear)"/>
<path d="M446.4 511.415H519.091C524.458 511.415 529.34 514.512 531.627 519.362L565.231 590.62H474.895C471.44 590.62 468.332 588.507 467.063 585.295L441.004 519.354C439.497 515.545 442.306 511.415 446.4 511.415Z" fill="url(#paint41_linear)"/>
<path d="M497.616 547.951C499.188 552.846 498.026 557.6 495.016 558.569C492.006 559.536 488.288 556.357 486.712 551.462C485.136 546.567 486.302 541.813 489.312 540.846C492.322 539.876 496.04 543.059 497.616 547.951Z" fill="url(#paint42_linear)"/>
<path d="M734.344 593.856C734.562 592.867 734.263 591.842 733.526 591.066C732.79 590.287 731.688 589.836 730.524 589.836H337.392C335.865 589.836 334.445 590.513 333.622 591.629C332.801 592.745 332.691 594.151 333.329 595.353L337.591 603.361C338.566 605.195 340.679 606.369 343.005 606.369H727.827C729.991 606.369 731.85 605.037 732.261 603.192L734.344 593.856Z" fill="url(#paint43_linear)"/>
<defs>
<linearGradient id="paint0_linear" x1="-16.2489" y1="-824.829" x2="363.595" y2="-395.079" gradientUnits="userSpaceOnUse">
<stop stop-color="#FF7247"/>
<stop offset="1" stop-color="#FF7247"/>
</linearGradient>
<linearGradient id="paint1_linear" x1="115.742" y1="-472.264" x2="1281.5" y2="361.185" gradientUnits="userSpaceOnUse">
<stop stop-color="white"/>
<stop offset="1" stop-color="white"/>
</linearGradient>
<linearGradient id="paint2_linear" x1="89.904" y1="-131.838" x2="300.685" y2="130.562" gradientUnits="userSpaceOnUse">
<stop stop-color="#FF7247"/>
<stop offset="1" stop-color="#FC9677"/>
</linearGradient>
<linearGradient id="paint3_linear" x1="148.97" y1="23.9179" x2="664.475" y2="424.635" gradientUnits="userSpaceOnUse">
<stop stop-color="white"/>
<stop offset="1" stop-color="white"/>
</linearGradient>
<linearGradient id="paint4_linear" x1="759.439" y1="485.094" x2="1052.48" y2="-394.019" gradientUnits="userSpaceOnUse">
<stop stop-color="#2B3582"/>
<stop offset="1" stop-color="#150E42"/>
</linearGradient>
<linearGradient id="paint5_linear" x1="1652.3" y1="-264.001" x2="-1972.48" y2="1731.99" gradientUnits="userSpaceOnUse">
<stop stop-color="#FD9575"/>
<stop offset="1" stop-color="#FFAB92"/>
</linearGradient>
<linearGradient id="paint6_linear" x1="1605.51" y1="-232.668" x2="-1922.11" y2="1709.82" gradientUnits="userSpaceOnUse">
<stop stop-color="#FDF76B" stop-opacity="0.47"/>
<stop offset="1" stop-color="#E26989"/>
</linearGradient>
<linearGradient id="paint7_linear" x1="878.127" y1="864.887" x2="994.228" y2="230.08" gradientUnits="userSpaceOnUse">
<stop stop-color="#2B3582"/>
<stop offset="1" stop-color="#150E42"/>
</linearGradient>
<linearGradient id="paint8_linear" x1="986.248" y1="-568.23" x2="768.925" y2="849.385" gradientUnits="userSpaceOnUse">
<stop stop-color="#4053F3"/>
<stop offset="0.205701" stop-color="#E2E2E2"/>
<stop offset="1" stop-color="#4053F3"/>
</linearGradient>
<radialGradient id="paint9_radial" cx="0" cy="0" r="1" gradientUnits="userSpaceOnUse" gradientTransform="translate(1275.8 -490.198) rotate(131.562) scale(151.991)">
<stop stop-color="#4053F3"/>
<stop offset="0.205701" stop-color="#D9DBEB"/>
<stop offset="1" stop-color="#4053F3"/>
</radialGradient>
<linearGradient id="paint10_linear" x1="854.887" y1="-389.014" x2="664.003" y2="856.134" gradientUnits="userSpaceOnUse">
<stop stop-color="#D9F6FF"/>
<stop offset="0.205701" stop-color="#D8F0FF"/>
<stop offset="1" stop-color="#D3D5FD"/>
</linearGradient>
<linearGradient id="paint11_linear" x1="852.632" y1="-385.938" x2="662.202" y2="856.251" gradientUnits="userSpaceOnUse">
<stop stop-color="#D9F6FF"/>
<stop offset="0.205701" stop-color="#D8F0FF"/>
<stop offset="1" stop-color="#D3D5FD"/>
</linearGradient>
<linearGradient id="paint12_linear" x1="843.455" y1="-373.418" x2="654.872" y2="856.723" gradientUnits="userSpaceOnUse">
<stop stop-color="#D9F6FF"/>
<stop offset="0.205701" stop-color="#D8F0FF"/>
<stop offset="1" stop-color="#D3D5FD"/>
</linearGradient>
<linearGradient id="paint13_linear" x1="736.186" y1="-227.074" x2="569.193" y2="862.234" gradientUnits="userSpaceOnUse">
<stop stop-color="#D9F6FF"/>
<stop offset="0.205701" stop-color="#D8F0FF"/>
<stop offset="1" stop-color="#D3D5FD"/>
</linearGradient>
<linearGradient id="paint14_linear" x1="842.712" y1="-372.406" x2="654.278" y2="856.761" gradientUnits="userSpaceOnUse">
<stop stop-color="#D9F6FF"/>
<stop offset="0.205701" stop-color="#D8F0FF"/>
<stop offset="1" stop-color="#D3D5FD"/>
</linearGradient>
<linearGradient id="paint15_linear" x1="733.892" y1="-223.945" x2="567.36" y2="862.354" gradientUnits="userSpaceOnUse">
<stop stop-color="#D9F6FF"/>
<stop offset="0.205701" stop-color="#D8F0FF"/>
<stop offset="1" stop-color="#D3D5FD"/>
</linearGradient>
<linearGradient id="paint16_linear" x1="838.864" y1="-367.151" x2="651.206" y2="856.958" gradientUnits="userSpaceOnUse">
<stop stop-color="#D9F6FF"/>
<stop offset="0.205701" stop-color="#D8F0FF"/>
<stop offset="1" stop-color="#D3D5FD"/>
</linearGradient>
<linearGradient id="paint17_linear" x1="732.125" y1="-221.528" x2="565.952" y2="862.441" gradientUnits="userSpaceOnUse">
<stop stop-color="#B6EEFF"/>
<stop offset="0.205701" stop-color="#B4E1FE"/>
<stop offset="1" stop-color="#AAAEFB"/>
</linearGradient>
<linearGradient id="paint18_linear" x1="843.455" y1="-373.42" x2="654.871" y2="856.723" gradientUnits="userSpaceOnUse">
<stop stop-color="#A5EBFF"/>
<stop offset="0.205701" stop-color="#A2DAFE"/>
<stop offset="1" stop-color="#979BFB"/>
</linearGradient>
<linearGradient id="paint19_linear" x1="732.408" y1="-221.917" x2="566.175" y2="862.429" gradientUnits="userSpaceOnUse">
<stop stop-color="#91E6FF"/>
<stop offset="0.205701" stop-color="#8DD2FE"/>
<stop offset="1" stop-color="#8085FA"/>
</linearGradient>
<linearGradient id="paint20_linear" x1="931.919" y1="-494.109" x2="725.53" y2="852.177" gradientUnits="userSpaceOnUse">
<stop stop-color="#D9F6FF"/>
<stop offset="0.205701" stop-color="#D8F0FF"/>
<stop offset="1" stop-color="#D3D5FD"/>
</linearGradient>
<linearGradient id="paint21_linear" x1="540.1" y1="385.438" x2="447.972" y2="827.981" gradientUnits="userSpaceOnUse">
<stop stop-color="#18459F"/>
<stop offset="1" stop-color="#2874B5"/>
</linearGradient>
<linearGradient id="paint22_linear" x1="559.958" y1="379.142" x2="466.354" y2="828.769" gradientUnits="userSpaceOnUse">
<stop stop-color="#18459F"/>
<stop offset="1" stop-color="#2874B5"/>
</linearGradient>
<linearGradient id="paint23_linear" x1="1376.51" y1="208.49" x2="1234.73" y2="889.564" gradientUnits="userSpaceOnUse">
<stop stop-color="#18459F"/>
<stop offset="1" stop-color="#2874B5"/>
</linearGradient>
<linearGradient id="paint24_linear" x1="1406.67" y1="204.339" x2="1263.41" y2="892.496" gradientUnits="userSpaceOnUse">
<stop stop-color="#18459F"/>
<stop offset="1" stop-color="#2874B5"/>
</linearGradient>
<linearGradient id="paint25_linear" x1="1027.91" y1="763.478" x2="1002.99" y2="487.92" gradientUnits="userSpaceOnUse">
<stop stop-color="#FDF53F"/>
<stop offset="1" stop-color="#D93C65"/>
</linearGradient>
<linearGradient id="paint26_linear" x1="1070.11" y1="757.926" x2="1044.11" y2="470.394" gradientUnits="userSpaceOnUse">
<stop stop-color="#FDF53F"/>
<stop offset="1" stop-color="#D93C65"/>
</linearGradient>
<linearGradient id="paint27_linear" x1="1102.64" y1="754.402" x2="1076.28" y2="462.855" gradientUnits="userSpaceOnUse">
<stop stop-color="#FDF53F"/>
<stop offset="1" stop-color="#D93C65"/>
</linearGradient>
<linearGradient id="paint28_linear" x1="829.204" y1="557.005" x2="913.486" y2="557.005" gradientUnits="userSpaceOnUse">
<stop stop-color="#F9B776"/>
<stop offset="1" stop-color="#F47960"/>
</linearGradient>
<linearGradient id="paint29_linear" x1="876.663" y1="613.158" x2="864.318" y2="802.438" gradientUnits="userSpaceOnUse">
<stop stop-color="#CB236D"/>
<stop offset="1" stop-color="#4C246D"/>
</linearGradient>
<linearGradient id="paint30_linear" x1="725.835" y1="564.593" x2="902.737" y2="564.593" gradientUnits="userSpaceOnUse">
<stop stop-color="#F9B776"/>
<stop offset="1" stop-color="#F47960"/>
</linearGradient>
<linearGradient id="paint31_linear" x1="903.212" y1="415.67" x2="1127.34" y2="415.67" gradientUnits="userSpaceOnUse">
<stop stop-color="#2B3582"/>
<stop offset="1" stop-color="#150E42"/>
</linearGradient>
<linearGradient id="paint32_linear" x1="661.416" y1="639.219" x2="650.466" y2="807.118" gradientUnits="userSpaceOnUse">
<stop stop-color="#CB236D"/>
<stop offset="1" stop-color="#4C246D"/>
</linearGradient>
<linearGradient id="paint33_linear" x1="1001.26" y1="74.6119" x2="1198.33" y2="248.242" gradientUnits="userSpaceOnUse">
<stop stop-color="#2B3582"/>
<stop offset="1" stop-color="#150E42"/>
</linearGradient>
<linearGradient id="paint34_linear" x1="843.594" y1="636.93" x2="1163.13" y2="188.957" gradientUnits="userSpaceOnUse">
<stop stop-color="#A4A5AC"/>
<stop offset="1" stop-color="#6C7CFD"/>
</linearGradient>
<linearGradient id="paint35_linear" x1="958.367" y1="302.425" x2="949.224" y2="243.762" gradientUnits="userSpaceOnUse">
<stop stop-color="#F9B776"/>
<stop offset="1" stop-color="#F47960"/>
</linearGradient>
<linearGradient id="paint36_linear" x1="885.846" y1="233.812" x2="981.43" y2="220.867" gradientUnits="userSpaceOnUse">
<stop stop-color="#F9B776"/>
<stop offset="1" stop-color="#F47960"/>
</linearGradient>
<linearGradient id="paint37_linear" x1="895.081" y1="159.475" x2="1075.1" y2="318.09" gradientUnits="userSpaceOnUse">
<stop stop-color="#2B3582"/>
<stop offset="1" stop-color="#150E42"/>
</linearGradient>
<linearGradient id="paint38_linear" x1="883.59" y1="226.147" x2="979.065" y2="213.217" gradientUnits="userSpaceOnUse">
<stop stop-color="#F9B776"/>
<stop offset="1" stop-color="#F47960"/>
</linearGradient>
<linearGradient id="paint39_linear" x1="1120.4" y1="354.315" x2="1309.13" y2="354.315" gradientUnits="userSpaceOnUse">
<stop stop-color="#F9B776"/>
<stop offset="1" stop-color="#F47960"/>
</linearGradient>
<linearGradient id="paint40_linear" x1="1042.24" y1="373.148" x2="933.043" y2="408.963" gradientUnits="userSpaceOnUse">
<stop stop-color="#2B3582"/>
<stop offset="1" stop-color="#150E42"/>
</linearGradient>
<linearGradient id="paint41_linear" x1="821.608" y1="344.778" x2="748.603" y2="421.94" gradientUnits="userSpaceOnUse">
<stop stop-color="#2B3582"/>
<stop offset="1" stop-color="#150E42"/>
</linearGradient>
<linearGradient id="paint42_linear" x1="689.028" y1="418.915" x2="659.266" y2="463.732" gradientUnits="userSpaceOnUse">
<stop stop-color="#53D8FF"/>
<stop offset="1" stop-color="#3840F7"/>
</linearGradient>
<linearGradient id="paint43_linear" x1="1051.42" y1="372.286" x2="907.334" y2="1064.4" gradientUnits="userSpaceOnUse">
<stop stop-color="#18459F"/>
<stop offset="1" stop-color="#2874B5"/>
</linearGradient>
</defs>
</svg>
