<svg width="338" height="86" viewBox="0 0 338 86" fill="none" xmlns="http://www.w3.org/2000/svg">
<path d="M102.637 19.3964H109.482C112.478 19.3964 114.712 19.9697 116.187 21.1163C117.661 22.2396 118.398 24.1819 118.398 26.9433C118.398 28.7452 118.129 30.2194 117.591 31.3661C117.076 32.4893 116.175 33.3084 114.888 33.8232L118.854 47.8289H113.659L110.254 34.8061H107.797V47.8289H102.637V19.3964ZM109.447 31.5767C110.921 31.5767 111.963 31.2374 112.571 30.5587C113.203 29.8801 113.519 28.7686 113.519 27.2241C113.519 25.7264 113.238 24.6382 112.676 23.9596C112.138 23.281 111.155 22.9416 109.728 22.9416H107.797V31.5767H109.447ZM128.14 48.1448C125.894 48.1448 124.244 47.5246 123.191 46.2844C122.138 45.0207 121.612 43.1603 121.612 40.7032V34.6657C121.612 32.1851 122.138 30.3247 123.191 29.0845C124.268 27.8442 125.917 27.2241 128.14 27.2241C130.434 27.2241 132.048 27.8676 132.985 29.1547C133.944 30.4417 134.424 32.384 134.424 34.9816V37.895H126.35V41.8966C126.35 42.8795 126.491 43.5932 126.771 44.0379C127.076 44.4825 127.544 44.7048 128.176 44.7048C128.784 44.7048 129.217 44.4942 129.474 44.073C129.755 43.6283 129.896 42.9614 129.896 42.0722V40.3522H134.389V41.7562C134.389 43.8389 133.862 45.4302 132.809 46.5301C131.756 47.6065 130.2 48.1448 128.14 48.1448ZM129.896 35.5432V33.6126C129.896 32.5596 129.767 31.8107 129.509 31.3661C129.252 30.8981 128.796 30.6641 128.14 30.6641C127.462 30.6641 126.994 30.9098 126.736 31.4012C126.479 31.8926 126.35 32.8053 126.35 34.1391V35.5432H129.896ZM137.663 27.54H142.262V29.3302C143.619 27.9027 145.21 27.189 147.035 27.189C147.854 27.189 148.556 27.3996 149.141 27.8208C149.727 28.2186 150.159 28.8271 150.44 29.6461C151.844 28.008 153.553 27.189 155.565 27.189C156.688 27.189 157.589 27.5985 158.268 28.4175C158.97 29.2366 159.321 30.4183 159.321 31.9628V47.8289H154.758V32.4191C154.758 31.6703 154.629 31.1438 154.372 30.8396C154.138 30.5353 153.775 30.3832 153.284 30.3832C152.909 30.3832 152.488 30.4885 152.02 30.6992C151.575 30.9098 151.166 31.2023 150.791 31.5767V31.9628V47.8289H146.263V32.4191C146.263 31.6703 146.134 31.1438 145.877 30.8396C145.62 30.5353 145.245 30.3832 144.754 30.3832C144.379 30.3832 143.97 30.4885 143.525 30.6992C143.081 30.9098 142.659 31.2023 142.262 31.5767V47.8289H137.663V27.54ZM169.001 48.1448C166.825 48.1448 165.198 47.548 164.122 46.3546C163.046 45.1377 162.507 43.3826 162.507 41.0893V34.2795C162.507 31.9862 163.046 30.2428 164.122 29.0494C165.198 27.8325 166.825 27.2241 169.001 27.2241C171.178 27.2241 172.804 27.8325 173.88 29.0494C174.98 30.2428 175.53 31.9862 175.53 34.2795V41.0893C175.53 43.3826 174.98 45.1377 173.88 46.3546C172.804 47.548 171.178 48.1448 169.001 48.1448ZM169.036 44.8452C169.762 44.8452 170.241 44.5644 170.475 44.0028C170.709 43.4177 170.826 42.5636 170.826 41.4403V33.9636C170.826 32.8404 170.709 31.9862 170.475 31.4012C170.241 30.8162 169.762 30.5236 169.036 30.5236C168.287 30.5236 167.796 30.8162 167.562 31.4012C167.328 31.9862 167.211 32.8404 167.211 33.9636V41.4403C167.211 42.5636 167.328 43.4177 167.562 44.0028C167.796 44.5644 168.287 44.8452 169.036 44.8452ZM184.694 48.0746C182.846 48.0746 181.535 47.6299 180.763 46.7407C180.014 45.8515 179.64 44.5293 179.64 42.7742V30.6641H177.604V27.54H179.64V21.4674H184.449V27.54H187.503V30.6641H184.449V42.353C184.449 43.0316 184.589 43.523 184.87 43.8272C185.174 44.1315 185.642 44.2836 186.274 44.2836C186.859 44.2836 187.351 44.2368 187.748 44.1432V47.8289C186.812 47.9927 185.794 48.0746 184.694 48.0746ZM190.803 19.3964H202.738V23.047H195.963V31.2257H201.299V34.8412H195.963V44.2836H202.808V47.8289H190.803V19.3964ZM205.502 27.54H210.1V29.3302C211.457 27.9027 213.049 27.189 214.874 27.189C215.693 27.189 216.395 27.3996 216.98 27.8208C217.565 28.2186 217.998 28.8271 218.279 29.6461C219.683 28.008 221.391 27.189 223.404 27.189C224.527 27.189 225.428 27.5985 226.106 28.4175C226.808 29.2366 227.159 30.4183 227.159 31.9628V47.8289H222.596V32.4191C222.596 31.6703 222.468 31.1438 222.21 30.8396C221.976 30.5353 221.613 30.3832 221.122 30.3832C220.748 30.3832 220.326 30.4885 219.858 30.6992C219.414 30.9098 219.004 31.2023 218.63 31.5767V31.9628V47.8289H214.102V32.4191C214.102 31.6703 213.973 31.1438 213.715 30.8396C213.458 30.5353 213.084 30.3832 212.592 30.3832C212.218 30.3832 211.808 30.4885 211.364 30.6992C210.919 30.9098 210.498 31.2023 210.1 31.5767V47.8289H205.502V27.54ZM230.697 27.54H235.471V29.0845C236.758 27.8442 238.138 27.2241 239.613 27.2241C241.251 27.2241 242.409 27.9027 243.088 29.26C243.766 30.6173 244.106 32.1968 244.106 33.9987V40.8787C244.106 43.055 243.72 44.8101 242.947 46.144C242.199 47.4778 241.005 48.1448 239.367 48.1448C238.056 48.1448 236.758 47.5363 235.471 46.3195V54.4982H230.697V27.54ZM237.577 44.8101C238.255 44.8101 238.712 44.4825 238.946 43.8272C239.203 43.172 239.332 42.2477 239.332 41.0542V33.753C239.332 32.7 239.203 31.8809 238.946 31.2959C238.688 30.7109 238.22 30.4183 237.542 30.4183C236.84 30.4183 236.149 30.7109 235.471 31.2959V44.1081C236.126 44.5761 236.828 44.8101 237.577 44.8101ZM247.707 19.3964H252.445V47.8289H247.707V19.3964ZM262.378 48.1448C260.201 48.1448 258.575 47.548 257.498 46.3546C256.422 45.1377 255.884 43.3826 255.884 41.0893V34.2795C255.884 31.9862 256.422 30.2428 257.498 29.0494C258.575 27.8325 260.201 27.2241 262.378 27.2241C264.554 27.2241 266.18 27.8325 267.257 29.0494C268.357 30.2428 268.907 31.9862 268.907 34.2795V41.0893C268.907 43.3826 268.357 45.1377 267.257 46.3546C266.18 47.548 264.554 48.1448 262.378 48.1448ZM262.413 44.8452C263.138 44.8452 263.618 44.5644 263.852 44.0028C264.086 43.4177 264.203 42.5636 264.203 41.4403V33.9636C264.203 32.8404 264.086 31.9862 263.852 31.4012C263.618 30.8162 263.138 30.5236 262.413 30.5236C261.664 30.5236 261.172 30.8162 260.938 31.4012C260.704 31.9862 260.587 32.8404 260.587 33.9636V41.4403C260.587 42.5636 260.704 43.4177 260.938 44.0028C261.172 44.5644 261.664 44.8452 262.413 44.8452ZM272.349 49.8999C273.613 49.8999 274.502 49.7829 275.017 49.5488C275.555 49.3382 275.824 48.917 275.824 48.2852C275.824 47.864 275.579 46.6705 275.087 44.7048L270.629 27.54H275.263L277.895 40.9489L280.177 27.54H284.775L280.037 48.6362C279.639 50.3445 278.878 51.5497 277.755 52.2517C276.655 52.9771 275.157 53.3398 273.262 53.3398H272.349V49.8999ZM293.126 48.1448C290.879 48.1448 289.23 47.5246 288.177 46.2844C287.124 45.0207 286.597 43.1603 286.597 40.7032V34.6657C286.597 32.1851 287.124 30.3247 288.177 29.0845C289.253 27.8442 290.903 27.2241 293.126 27.2241C295.419 27.2241 297.034 27.8676 297.97 29.1547C298.929 30.4417 299.409 32.384 299.409 34.9816V37.895H291.336V41.8966C291.336 42.8795 291.476 43.5932 291.757 44.0379C292.061 44.4825 292.529 44.7048 293.161 44.7048C293.77 44.7048 294.202 44.4942 294.46 44.073C294.741 43.6283 294.881 42.9614 294.881 42.0722V40.3522H299.374V41.7562C299.374 43.8389 298.848 45.4302 297.795 46.5301C296.741 47.6065 295.185 48.1448 293.126 48.1448ZM294.881 35.5432V33.6126C294.881 32.5596 294.752 31.8107 294.495 31.3661C294.238 30.8981 293.781 30.6641 293.126 30.6641C292.447 30.6641 291.979 30.9098 291.722 31.4012C291.464 31.8926 291.336 32.8053 291.336 34.1391V35.5432H294.881ZM308.792 48.1448C306.545 48.1448 304.895 47.5246 303.842 46.2844C302.789 45.0207 302.263 43.1603 302.263 40.7032V34.6657C302.263 32.1851 302.789 30.3247 303.842 29.0845C304.919 27.8442 306.568 27.2241 308.792 27.2241C311.085 27.2241 312.7 27.8676 313.636 29.1547C314.595 30.4417 315.075 32.384 315.075 34.9816V37.895H307.001V41.8966C307.001 42.8795 307.142 43.5932 307.423 44.0379C307.727 44.4825 308.195 44.7048 308.827 44.7048C309.435 44.7048 309.868 44.4942 310.125 44.073C310.406 43.6283 310.547 42.9614 310.547 42.0722V40.3522H315.04V41.7562C315.04 43.8389 314.513 45.4302 313.46 46.5301C312.407 47.6065 310.851 48.1448 308.792 48.1448ZM310.547 35.5432V33.6126C310.547 32.5596 310.418 31.8107 310.161 31.3661C309.903 30.8981 309.447 30.6641 308.792 30.6641C308.113 30.6641 307.645 30.9098 307.387 31.4012C307.13 31.8926 307.001 32.8053 307.001 34.1391V35.5432H310.547ZM323.825 48.1448C322.117 48.1448 320.713 47.6885 319.613 46.7758C318.513 45.8632 317.729 44.5293 317.261 42.7742L320.807 41.4052C321.345 43.6751 322.328 44.8101 323.755 44.8101C324.293 44.8101 324.703 44.6697 324.984 44.3889C325.288 44.1081 325.44 43.7219 325.44 43.2305C325.44 42.6923 325.276 42.2009 324.949 41.7562C324.621 41.2882 324.036 40.7032 323.193 40.0011L320.771 37.895C319.742 37.0526 318.981 36.2335 318.49 35.4379C317.998 34.6423 317.753 33.6711 317.753 32.5245C317.753 30.9332 318.291 29.6578 319.367 28.6983C320.467 27.7155 321.848 27.2241 323.509 27.2241C325.101 27.2241 326.399 27.7038 327.406 28.6632C328.412 29.5993 329.067 30.8747 329.371 32.4893L326.247 33.8232C326.06 32.8872 325.744 32.1266 325.3 31.5416C324.878 30.9332 324.328 30.629 323.65 30.629C323.158 30.629 322.761 30.7811 322.456 31.0853C322.176 31.3895 322.035 31.7756 322.035 32.2436C322.035 32.6181 322.199 33.0159 322.527 33.4371C322.854 33.8583 323.346 34.3497 324.001 34.9114L326.458 37.1579C327.511 38.0705 328.318 38.9481 328.88 39.7905C329.465 40.6096 329.758 41.6041 329.758 42.7742C329.758 44.4825 329.196 45.8047 328.073 46.7407C326.973 47.6767 325.557 48.1448 323.825 48.1448Z" fill="white"/>
<path d="M106.429 70.0816H105.389V56.2968H100.596V55.3281H111.222V56.2968H106.429V70.0816ZM120.819 70.0816V62.9672C120.819 61.8639 120.587 61.0633 120.123 60.5655C119.659 60.0609 118.939 59.8086 117.963 59.8086C116.651 59.8086 115.689 60.1416 115.077 60.8077C114.472 61.467 114.169 62.54 114.169 64.0268V70.0816H113.17V54.3795H114.169V59.3747L114.118 60.7774H114.189C114.599 60.1181 115.117 59.6404 115.743 59.3444C116.369 59.0484 117.146 58.9004 118.074 58.9004C120.563 58.9004 121.808 60.2358 121.808 62.9067V70.0816H120.819ZM129.79 70.2834C128.196 70.2834 126.951 69.7923 126.056 68.8101C125.168 67.8279 124.724 66.4521 124.724 64.6827C124.724 62.9336 125.155 61.5342 126.016 60.4848C126.877 59.4285 128.038 58.9004 129.498 58.9004C130.789 58.9004 131.809 59.3512 132.555 60.2526C133.302 61.1541 133.675 62.3786 133.675 63.9259V64.7332H125.774C125.787 66.2402 126.137 67.3906 126.823 68.1844C127.516 68.9783 128.505 69.3752 129.79 69.3752C130.416 69.3752 130.964 69.3315 131.435 69.244C131.913 69.1566 132.515 68.9682 133.241 68.6789V69.5871C132.623 69.8562 132.051 70.0379 131.526 70.1321C131.001 70.233 130.423 70.2834 129.79 70.2834ZM129.498 59.7884C128.441 59.7884 127.594 60.1383 126.955 60.8379C126.315 61.5309 125.942 62.5333 125.834 63.8452H132.616C132.616 62.5737 132.34 61.5813 131.788 60.8682C131.237 60.1484 130.473 59.7884 129.498 59.7884ZM151.143 64.5818C151.143 66.3714 150.71 67.7707 149.842 68.7798C148.974 69.7822 147.776 70.2834 146.249 70.2834C145.287 70.2834 144.439 70.0513 143.706 69.5871C142.973 69.1229 142.411 68.4569 142.021 67.589C141.631 66.7212 141.436 65.7188 141.436 64.5818C141.436 62.7923 141.87 61.3997 142.737 60.404C143.605 59.4016 144.796 58.9004 146.31 58.9004C147.817 58.9004 148.997 59.4083 149.852 60.4242C150.713 61.4333 151.143 62.8192 151.143 64.5818ZM142.485 64.5818C142.485 66.0888 142.815 67.2661 143.474 68.1138C144.14 68.9547 145.079 69.3752 146.29 69.3752C147.501 69.3752 148.436 68.9547 149.095 68.1138C149.761 67.2661 150.094 66.0888 150.094 64.5818C150.094 63.0681 149.758 61.8942 149.085 61.06C148.419 60.2257 147.48 59.8086 146.269 59.8086C145.058 59.8086 144.123 60.2257 143.464 61.06C142.811 61.8874 142.485 63.0614 142.485 64.5818ZM155.049 59.1123V66.2166C155.049 67.3199 155.281 68.1239 155.745 68.6285C156.209 69.1263 156.929 69.3752 157.905 69.3752C159.21 69.3752 160.169 69.0456 160.781 68.3863C161.4 67.727 161.709 66.6539 161.709 65.1671V59.1123H162.698V70.0816H161.85L161.669 68.5679H161.608C160.895 69.7116 159.627 70.2834 157.804 70.2834C155.308 70.2834 154.06 68.948 154.06 66.2772V59.1123H155.049ZM169.268 69.3954C169.9 69.3954 170.452 69.3416 170.923 69.2339V70.0412C170.438 70.2027 169.88 70.2834 169.247 70.2834C168.279 70.2834 167.562 70.0244 167.098 69.5064C166.64 68.9884 166.412 68.1743 166.412 67.0643V59.9802H164.787V59.3949L166.412 58.9408L166.916 56.4583H167.431V59.1123H170.65V59.9802H167.431V66.923C167.431 67.764 167.579 68.3863 167.875 68.7899C168.171 69.1936 168.635 69.3954 169.268 69.3954ZM180.096 67.2258C180.096 68.208 179.722 68.9648 178.975 69.4963C178.229 70.0211 177.169 70.2834 175.797 70.2834C174.33 70.2834 173.166 70.0581 172.305 69.6073V68.5275C173.408 69.0792 174.572 69.355 175.797 69.355C176.88 69.355 177.701 69.1767 178.259 68.8202C178.824 68.4569 179.107 67.9759 179.107 67.3771C179.107 66.8255 178.881 66.3613 178.43 65.9845C177.986 65.6078 177.253 65.2378 176.231 64.8745C175.134 64.4776 174.364 64.1378 173.92 63.8553C173.476 63.566 173.139 63.243 172.91 62.8865C172.688 62.5232 172.577 62.0825 172.577 61.5645C172.577 60.7438 172.921 60.0946 173.607 59.6169C174.3 59.1392 175.265 58.9004 176.503 58.9004C177.687 58.9004 178.811 59.1224 179.874 59.5664L179.5 60.4747C178.424 60.0306 177.425 59.8086 176.503 59.8086C175.608 59.8086 174.898 59.9566 174.374 60.2526C173.849 60.5487 173.587 60.959 173.587 61.4838C173.587 62.0556 173.788 62.5131 174.192 62.8562C174.602 63.1993 175.4 63.5828 176.584 64.0066C177.573 64.3632 178.293 64.6861 178.743 64.9754C179.194 65.2579 179.53 65.5809 179.752 65.9442C179.981 66.3074 180.096 66.7346 180.096 67.2258ZM185.817 69.3954C186.45 69.3954 187.001 69.3416 187.472 69.2339V70.0412C186.988 70.2027 186.43 70.2834 185.797 70.2834C184.828 70.2834 184.112 70.0244 183.648 69.5064C183.19 68.9884 182.961 68.1743 182.961 67.0643V59.9802H181.337V59.3949L182.961 58.9408L183.466 56.4583H183.981V59.1123H187.2V59.9802H183.981V66.923C183.981 67.764 184.129 68.3863 184.425 68.7899C184.721 69.1936 185.185 69.3954 185.817 69.3954ZM196.504 70.0816L196.252 68.3459H196.171C195.619 69.0523 195.051 69.5535 194.466 69.8495C193.887 70.1388 193.201 70.2834 192.407 70.2834C191.331 70.2834 190.493 70.0076 189.894 69.4559C189.295 68.9043 188.996 68.1407 188.996 67.1652C188.996 66.0955 189.44 65.2647 190.328 64.6727C191.223 64.0806 192.515 63.7678 194.203 63.7342L196.292 63.6736V62.947C196.292 61.9043 196.08 61.1171 195.656 60.5857C195.233 60.0542 194.55 59.7884 193.608 59.7884C192.592 59.7884 191.539 60.071 190.449 60.6361L190.076 59.7683C191.28 59.2032 192.471 58.9206 193.648 58.9206C194.852 58.9206 195.751 59.2334 196.343 59.8591C196.941 60.4848 197.241 61.4602 197.241 62.7856V70.0816H196.504ZM192.467 69.3752C193.638 69.3752 194.56 69.0422 195.233 68.3762C195.912 67.7034 196.252 66.7716 196.252 65.5809V64.5011L194.334 64.5818C192.794 64.6558 191.694 64.898 191.035 65.3084C190.382 65.7121 190.056 66.3444 190.056 67.2056C190.056 67.8918 190.264 68.4266 190.681 68.8101C191.105 69.1868 191.701 69.3752 192.467 69.3752ZM204.88 59.9802H202.296V70.0816H201.297V59.9802H199.259V59.3949L201.297 59.0215V58.1738C201.297 56.8283 201.543 55.8427 202.034 55.2171C202.532 54.5847 203.343 54.2685 204.466 54.2685C205.072 54.2685 205.677 54.3593 206.283 54.541L206.05 55.4088C205.512 55.2406 204.977 55.1565 204.446 55.1565C203.666 55.1565 203.11 55.3886 202.781 55.8528C202.458 56.3103 202.296 57.0571 202.296 58.0931V59.1123H204.88V59.9802ZM211.076 59.9802H208.493V70.0816H207.493V59.9802H205.455V59.3949L207.493 59.0215V58.1738C207.493 56.8283 207.739 55.8427 208.23 55.2171C208.728 54.5847 209.539 54.2685 210.662 54.2685C211.268 54.2685 211.873 54.3593 212.479 54.541L212.246 55.4088C211.708 55.2406 211.173 55.1565 210.642 55.1565C209.862 55.1565 209.307 55.3886 208.977 55.8528C208.654 56.3103 208.493 57.0571 208.493 58.0931V59.1123H211.076V59.9802ZM214.204 70.0816H213.205V59.1123H214.204V70.0816ZM213.064 56.0647C213.064 55.4189 213.276 55.096 213.7 55.096C213.908 55.096 214.07 55.1801 214.184 55.3483C214.305 55.5165 214.366 55.7553 214.366 56.0647C214.366 56.3675 214.305 56.6063 214.184 56.7812C214.07 56.9561 213.908 57.0436 213.7 57.0436C213.276 57.0436 213.064 56.7173 213.064 56.0647ZM225.527 70.0816V62.9672C225.527 61.8639 225.295 61.0633 224.83 60.5655C224.366 60.0609 223.646 59.8086 222.671 59.8086C221.359 59.8086 220.397 60.1416 219.785 60.8077C219.179 61.467 218.876 62.54 218.876 64.0268V70.0816H217.877V59.1123H218.725L218.917 60.6159H218.977C219.691 59.4723 220.959 58.9004 222.782 58.9004C225.271 58.9004 226.516 60.2358 226.516 62.9067V70.0816H225.527ZM238.625 59.1123V59.8086L236.355 59.9499C236.96 60.7034 237.263 61.5309 237.263 62.4324C237.263 63.4886 236.91 64.3464 236.203 65.0057C235.504 65.6582 234.562 65.9845 233.378 65.9845C232.88 65.9845 232.53 65.9643 232.328 65.924C231.931 66.1325 231.629 66.3781 231.42 66.6606C231.211 66.9432 231.107 67.2426 231.107 67.5588C231.107 67.9086 231.238 68.1643 231.501 68.3257C231.77 68.4872 232.217 68.5679 232.843 68.5679H234.76C235.951 68.5679 236.863 68.8101 237.495 69.2945C238.127 69.7721 238.444 70.4819 238.444 71.4238C238.444 72.5809 237.973 73.4723 237.031 74.098C236.096 74.7303 234.76 75.0465 233.025 75.0465C231.645 75.0465 230.576 74.7808 229.816 74.2493C229.062 73.7178 228.685 72.9778 228.685 72.0292C228.685 71.2757 228.917 70.6501 229.382 70.1522C229.853 69.6544 230.488 69.3147 231.289 69.133C230.959 68.9917 230.693 68.7933 230.492 68.5376C230.297 68.2753 230.199 67.9759 230.199 67.6395C230.199 66.9062 230.667 66.2604 231.602 65.702C230.963 65.4396 230.465 65.0292 230.108 64.4708C229.752 63.9057 229.573 63.2599 229.573 62.5333C229.573 61.4367 229.92 60.5588 230.613 59.8995C231.312 59.2334 232.254 58.9004 233.438 58.9004C234.158 58.9004 234.717 58.9711 235.113 59.1123H238.625ZM229.745 71.9384C229.745 73.4454 230.865 74.1989 233.105 74.1989C235.985 74.1989 237.424 73.2806 237.424 71.4439C237.424 70.7846 237.199 70.307 236.748 70.011C236.297 69.715 235.568 69.5669 234.558 69.5669H232.762C230.751 69.5669 229.745 70.3574 229.745 71.9384ZM230.582 62.5333C230.582 63.381 230.838 64.0403 231.349 64.5112C231.867 64.9754 232.557 65.2075 233.418 65.2075C234.333 65.2075 235.033 64.9754 235.517 64.5112C236.008 64.047 236.254 63.3742 236.254 62.4929C236.254 61.5578 236.001 60.8581 235.497 60.3939C234.999 59.923 234.299 59.6875 233.398 59.6875C232.523 59.6875 231.834 59.9398 231.329 60.4444C230.831 60.9422 230.582 61.6385 230.582 62.5333ZM250.634 70.2834C249.066 70.2834 247.839 69.789 246.951 68.8C246.063 67.8111 245.619 66.4319 245.619 64.6626C245.619 62.8461 246.079 61.4333 247.001 60.4242C247.923 59.4083 249.184 58.9004 250.785 58.9004C251.734 58.9004 252.642 59.0652 253.51 59.3949L253.237 60.2829C252.289 59.9667 251.465 59.8086 250.765 59.8086C249.42 59.8086 248.4 60.2257 247.707 61.06C247.014 61.8874 246.668 63.0816 246.668 64.6424C246.668 66.1224 247.014 67.2829 247.707 68.1239C248.4 68.9581 249.369 69.3752 250.614 69.3752C251.609 69.3752 252.534 69.1969 253.389 68.8404V69.7688C252.689 70.1119 251.771 70.2834 250.634 70.2834ZM265.155 64.5818C265.155 66.3714 264.721 67.7707 263.854 68.7798C262.986 69.7822 261.788 70.2834 260.261 70.2834C259.299 70.2834 258.451 70.0513 257.718 69.5871C256.985 69.1229 256.423 68.4569 256.033 67.589C255.643 66.7212 255.447 65.7188 255.447 64.5818C255.447 62.7923 255.881 61.3997 256.749 60.404C257.617 59.4016 258.808 58.9004 260.322 58.9004C261.829 58.9004 263.009 59.4083 263.864 60.4242C264.725 61.4333 265.155 62.8192 265.155 64.5818ZM256.497 64.5818C256.497 66.0888 256.827 67.2661 257.486 68.1138C258.152 68.9547 259.09 69.3752 260.301 69.3752C261.512 69.3752 262.447 68.9547 263.107 68.1138C263.773 67.2661 264.106 66.0888 264.106 64.5818C264.106 63.0681 263.769 61.8942 263.097 61.06C262.431 60.2257 261.492 59.8086 260.281 59.8086C259.07 59.8086 258.135 60.2257 257.476 61.06C256.823 61.8874 256.497 63.0614 256.497 64.5818ZM281.897 70.0816V62.8865C281.897 61.8168 281.688 61.0364 281.271 60.5453C280.854 60.0542 280.215 59.8086 279.354 59.8086C278.23 59.8086 277.399 60.1181 276.861 60.737C276.323 61.356 276.054 62.3281 276.054 63.6534V70.0816H275.035V62.5837C275.035 60.7337 274.187 59.8086 272.492 59.8086C271.341 59.8086 270.504 60.145 269.979 60.8178C269.454 61.4838 269.192 62.5535 269.192 64.0268V70.0816H268.193V59.1123H269.02L269.232 60.6159H269.293C269.596 60.071 270.026 59.6505 270.584 59.3545C271.143 59.0518 271.758 58.9004 272.431 58.9004C274.16 58.9004 275.27 59.5496 275.761 60.848H275.802C276.158 60.2224 276.636 59.7414 277.235 59.405C277.84 59.0686 278.526 58.9004 279.293 58.9004C280.491 58.9004 281.389 59.22 281.988 59.8591C282.586 60.4982 282.886 61.5141 282.886 62.9067V70.0816H281.897ZM291.13 70.2834C289.442 70.2834 288.211 69.651 287.437 68.3863H287.366L287.397 69.2339C287.424 69.7318 287.437 70.2767 287.437 70.8687V75.0465H286.438V59.1123H287.286L287.477 60.6765H287.538C288.291 59.4924 289.496 58.9004 291.151 58.9004C292.631 58.9004 293.758 59.3882 294.531 60.3637C295.312 61.3324 295.702 62.7452 295.702 64.602C295.702 66.405 295.291 67.8043 294.471 68.8C293.657 69.789 292.543 70.2834 291.13 70.2834ZM291.11 69.3954C292.234 69.3954 293.102 68.9783 293.714 68.1441C294.333 67.3099 294.642 66.1426 294.642 64.6424C294.642 61.4199 293.478 59.8086 291.151 59.8086C289.872 59.8086 288.934 60.1618 288.335 60.8682C287.736 61.5679 287.437 62.7116 287.437 64.2993V64.6222C287.437 66.3377 287.723 67.5621 288.295 68.2954C288.873 69.0287 289.812 69.3954 291.11 69.3954ZM305.41 70.0816L305.157 68.3459H305.077C304.525 69.0523 303.956 69.5535 303.371 69.8495C302.793 70.1388 302.106 70.2834 301.313 70.2834C300.236 70.2834 299.399 70.0076 298.8 69.4559C298.201 68.9043 297.902 68.1407 297.902 67.1652C297.902 66.0955 298.346 65.2647 299.234 64.6727C300.129 64.0806 301.42 63.7678 303.109 63.7342L305.198 63.6736V62.947C305.198 61.9043 304.986 61.1171 304.562 60.5857C304.138 60.0542 303.455 59.7884 302.513 59.7884C301.498 59.7884 300.445 60.071 299.355 60.6361L298.981 59.7683C300.186 59.2032 301.376 58.9206 302.554 58.9206C303.758 58.9206 304.656 59.2334 305.248 59.8591C305.847 60.4848 306.146 61.4602 306.146 62.7856V70.0816H305.41ZM301.373 69.3752C302.544 69.3752 303.465 69.0422 304.138 68.3762C304.818 67.7034 305.157 66.7716 305.157 65.5809V64.5011L303.24 64.5818C301.699 64.6558 300.599 64.898 299.94 65.3084C299.288 65.7121 298.961 66.3444 298.961 67.2056C298.961 67.8918 299.17 68.4266 299.587 68.8101C300.011 69.1868 300.606 69.3752 301.373 69.3752ZM317.358 70.0816V62.9672C317.358 61.8639 317.126 61.0633 316.661 60.5655C316.197 60.0609 315.477 59.8086 314.502 59.8086C313.19 59.8086 312.228 60.1416 311.616 60.8077C311.01 61.467 310.708 62.54 310.708 64.0268V70.0816H309.709V59.1123H310.556L310.748 60.6159H310.809C311.522 59.4723 312.79 58.9004 314.613 58.9004C317.102 58.9004 318.347 60.2358 318.347 62.9067V70.0816H317.358ZM320.062 59.1123H321.092L323.413 65.268C324.119 67.1585 324.566 68.4334 324.755 69.0927H324.815C325.098 68.2248 325.559 66.9297 326.198 65.2075L328.519 59.1123H329.548L324.634 71.8577C324.237 72.8937 323.904 73.5934 323.635 73.9567C323.365 74.32 323.049 74.5924 322.686 74.7741C322.329 74.9557 321.896 75.0465 321.384 75.0465C321.001 75.0465 320.574 74.9759 320.103 74.8346V73.9668C320.493 74.0744 320.913 74.1282 321.364 74.1282C321.707 74.1282 322.01 74.0475 322.272 73.886C322.535 73.7246 322.77 73.4723 322.979 73.1292C323.194 72.7928 323.439 72.2546 323.715 71.5146C323.998 70.7813 324.18 70.3036 324.26 70.0816L320.062 59.1123Z" fill="white"/>
<g opacity="0.3">
<path opacity="0.3" d="M6.97559 1.64124L28.6826 14.177H83.8478V1.64124H6.97559Z" fill="black"/>
<path opacity="0.3" d="M33.7112 32.5162C24.8912 36.8162 16.9739 42.6754 10.317 49.736V19.0088L33.7112 32.5162ZM0.305476 85.1999V85.2031H0.302193C4.24444 71.5185 12.1683 59.5211 22.7346 50.5435L42.7446 85.2031H54.3219L30.8489 44.576C38.7334 39.5899 47.6617 36.1039 57.2301 34.5185L0.289062 1.64124V85.1999" fill="black"/>
<path opacity="0.3" d="M68.043 36.8983L83.8481 36.8917V49.4242H37.5258L35.3955 45.738C45.0558 40.2563 56.1834 37.0624 68.043 36.8983Z" fill="black"/>
<path opacity="0.3" d="M50.9668 72.6641L58.2079 85.1999H83.8539V72.6641H50.9668Z" fill="black"/>
</g>
<path d="M8.61719 0L30.3242 12.5358H85.4894V0H8.61719Z" fill="white"/>
<path d="M35.3528 30.8749C26.5328 35.175 18.6155 41.0342 11.9586 48.0948V17.3676L35.3528 30.8749ZM1.94708 83.5586V83.5619H1.94379C5.88604 69.8773 13.8099 57.8798 24.3762 48.9023L44.3862 83.5619H55.9635L32.4905 42.9347C40.375 37.9487 49.3033 34.4627 58.8717 32.8772L1.93066 0V83.5586" fill="white"/>
<path d="M69.6846 35.2571L85.4897 35.2505V47.783H39.1674L37.0371 44.0968C46.6974 38.615 57.825 35.4212 69.6846 35.2571Z" fill="white"/>
<path d="M52.6084 71.0229L59.8495 83.5587H85.4955V71.0229H52.6084Z" fill="white"/>
</svg>
