<svg width="53" height="42" viewBox="0 0 53 42" fill="none" xmlns="http://www.w3.org/2000/svg">
<g opacity="0.3">
<path opacity="0.3" d="M3.08203 0.747559L13.0873 6.45761H38.5143V0.747559H3.08203Z" fill="black"/>
<path opacity="0.3" d="M15.4051 14.8111C11.3397 16.7698 7.69043 19.4387 4.62212 22.6548V8.6585L15.4051 14.8111ZM0.00756531 38.8086V38.8101H0.00605202C1.82313 32.5767 5.47544 27.1119 10.3457 23.0226L19.5688 38.8101H24.905L14.0857 20.3044C17.7199 18.0332 21.8352 16.4453 26.2455 15.7232L0 0.747559V38.8086" fill="black"/>
<path opacity="0.3" d="M31.2296 16.8072L38.5146 16.8042V22.5128H17.1636L16.1816 20.8337C20.6343 18.3368 25.7633 16.882 31.2296 16.8072Z" fill="black"/>
<path opacity="0.3" d="M23.3584 33.0986L26.696 38.8086H38.5168V33.0986H23.3584Z" fill="black"/>
</g>
<path d="M3.83887 0L13.8441 5.71006H39.2711V0H3.83887Z" fill="white"/>
<path d="M16.1619 14.0636C12.0965 16.0222 8.44726 18.6911 5.37896 21.9072V7.91094L16.1619 14.0636ZM0.764401 38.0611V38.0625H0.762888C2.57996 31.8292 6.23227 26.3643 11.1025 22.275L20.3256 38.0625H25.6618L14.8426 19.5568C18.4767 17.2857 22.592 15.6978 27.0023 14.9756L0.756836 0V38.0611" fill="white"/>
<path d="M31.9855 16.0596L39.2704 16.0566V21.7652H17.9194L16.9375 20.0861C21.3902 17.5892 26.5191 16.1344 31.9855 16.0596Z" fill="white"/>
<path d="M24.1162 32.351L27.4538 38.0611H39.2747V32.351H24.1162Z" fill="white"/>
</svg>
