<svg width="852" height="814" viewBox="0 0 852 814" fill="none" xmlns="http://www.w3.org/2000/svg">
<g clip-path="url(#clip0)">
<path d="M171.213 689.266H659.938L681.59 241.794L682.373 225.616L686.963 130.763L690.152 64.8547C690.864 50.4828 679.409 38.4547 665.049 38.4547C664.997 38.4547 664.942 38.4547 664.89 38.4547L604.177 38.829L225.711 41.1456L144.566 130.855L144.078 131.387L149.337 239.423L150.145 256.063L171.213 689.266ZM600.399 639.255C606.411 639.255 611.093 644.286 610.495 650.09L610.362 651.375C609.841 656.43 605.451 660.279 600.22 660.279C600.2 660.279 600.179 660.279 600.158 660.279L327.208 658.7C321.738 658.667 317.276 654.442 317.113 649.135C316.951 643.568 321.554 638.959 327.295 638.959C327.3 638.959 327.306 638.959 327.311 638.959C372.648 639.019 551.484 639.255 599.641 639.255C599.895 639.255 600.152 639.255 600.399 639.255C600.399 639.255 600.399 639.255 600.399 639.255ZM596.967 588.075C604.746 588.075 610.727 593.099 609.865 598.903L609.674 600.188C608.922 605.246 603.172 609.104 596.394 609.104C596.371 609.104 596.348 609.104 596.325 609.104L242.876 607.755C235.79 607.728 230.075 603.506 229.951 598.2C229.815 592.627 235.86 588.011 243.304 588.011C290.521 588.029 449.537 588.087 542.438 588.087C565.666 588.087 584.776 588.084 596.954 588.075C596.959 588.075 596.962 588.075 596.967 588.075ZM604.252 527.196C610.331 527.196 615.067 532.211 614.468 538.012L614.335 539.294C613.812 544.358 609.359 548.219 604.053 548.219C604.039 548.219 604.024 548.219 604.01 548.219L327.566 547.128C322.025 547.107 317.504 542.891 317.336 537.585C317.162 532.012 321.825 527.39 327.653 527.386C373.81 527.369 556.614 527.281 604.232 527.196C604.238 527.196 604.245 527.196 604.252 527.196ZM600.567 481.015C608.347 481.015 614.328 486.04 613.466 491.844L613.275 493.129C612.523 498.189 606.773 502.045 599.994 502.045C599.971 502.045 599.948 502.045 599.926 502.045L246.476 500.699C239.39 500.672 233.675 496.45 233.551 491.141C233.415 485.567 239.46 480.952 246.904 480.955C294.12 480.973 453.138 481.027 546.039 481.027C569.264 481.027 588.376 481.025 600.555 481.015C600.559 481.015 600.563 481.015 600.567 481.015ZM602.871 419.43C608.949 419.43 613.686 424.449 613.087 430.246L612.953 431.532C612.43 436.596 607.977 440.456 602.671 440.456C602.657 440.456 602.642 440.456 602.628 440.456L326.184 439.366C320.637 439.344 316.121 435.126 315.953 429.819C315.78 424.246 320.448 419.627 326.265 419.624C372.43 419.603 555.233 419.518 602.85 419.43C602.857 419.43 602.863 419.43 602.871 419.43ZM597.565 372.699C605.345 372.699 611.326 377.723 610.464 383.527L610.272 384.812C609.521 389.873 603.771 393.728 596.991 393.728C596.969 393.728 596.946 393.728 596.924 393.728L243.472 392.382C236.386 392.355 230.677 388.133 230.547 382.827C230.417 377.251 236.457 372.639 243.895 372.639C243.9 372.639 243.9 372.639 243.906 372.639C291.122 372.655 450.136 372.71 543.037 372.71C566.263 372.71 585.375 372.71 597.553 372.699C597.557 372.699 597.561 372.699 597.565 372.699ZM324.427 311.006C324.449 311.006 324.47 311.006 324.487 311.006C370.431 311.272 552.371 312.308 599.767 312.515C605.828 312.542 610.523 317.593 609.892 323.393L609.752 324.678C609.204 329.713 604.784 333.538 599.532 333.538C599.496 333.538 599.459 333.538 599.422 333.538L324.286 330.749C318.772 330.69 314.3 326.447 314.164 321.141C314.018 315.585 318.658 311.006 324.427 311.006ZM596.967 266.55C604.746 266.55 610.727 271.574 609.865 277.374L609.674 278.66C608.922 283.722 603.172 287.579 596.393 287.579C596.371 287.579 596.348 287.579 596.325 287.579L242.876 286.228C235.79 286.201 230.075 281.98 229.951 276.674C229.815 271.102 235.855 266.485 243.299 266.485C243.304 266.485 243.304 266.485 243.304 266.485C290.493 266.502 449.334 266.561 542.262 266.561C565.575 266.561 584.742 266.556 596.954 266.55C596.959 266.55 596.962 266.55 596.967 266.55ZM231.219 203.464C231.23 203.464 231.236 203.464 231.246 203.464C269.463 203.588 420.812 204.071 460.236 204.131C465.279 204.142 469.249 209.171 468.801 214.976L468.701 216.262C468.31 221.313 464.67 225.149 460.291 225.149C460.27 225.149 460.245 225.149 460.224 225.149L231.339 223.201C226.747 223.163 222.973 218.931 222.789 213.625C222.599 208.059 226.41 203.464 231.219 203.464ZM553.152 132.531L524.461 224.596L518.086 224.704L486.593 138.017C482.523 127.339 480.17 121.333 479.534 119.988C475.37 111.394 469.025 107.097 460.515 107.097C460.206 107.097 459.894 107.103 459.582 107.113V105.448L508.837 103.663V105.35C493.48 105.898 485.83 111.454 485.83 122.017C485.83 125.875 486.905 130.812 489.052 136.834L510.182 194.392L535.115 114.926C535.633 113.532 535.891 112.143 535.891 110.765C535.891 108.133 534.379 106.468 531.35 105.757C529.188 105.253 525.797 105.003 521.178 105.003C519.34 105.003 517.305 105.041 515.079 105.122V103.44L581.841 101.026V102.724C572.586 103.061 566.844 103.771 564.606 104.862C562.365 105.958 560.457 109.061 558.876 114.172L554.718 127.779L572.592 192.851L603.575 112.582C604.368 110.786 604.765 109.251 604.765 107.981C604.765 105.578 603.212 104.015 600.106 103.305C597.9 102.8 594.442 102.545 589.742 102.545C587.837 102.545 585.727 102.589 583.413 102.67V100.966L651.325 98.5141V100.229C642.079 100.565 636.431 101.243 634.36 102.274C632.293 103.299 630.258 106.451 628.259 111.73L584.594 223.586L577.901 223.7L553.152 132.531ZM229.425 159.664C229.43 159.664 229.441 159.664 229.447 159.664C267.669 159.789 419.013 160.272 458.437 160.337C463.48 160.342 467.453 165.377 467.002 171.177L466.902 172.463C466.511 177.514 462.874 181.355 458.492 181.355C458.471 181.355 458.45 181.355 458.429 181.355L229.539 179.402C224.952 179.364 221.179 175.132 220.994 169.826C220.799 164.265 224.616 159.664 229.425 159.664Z" fill="url(#paint0_linear)"/>
<path d="M207.448 128.715C221.758 128.207 232.758 115.87 231.624 101.593L226.92 41.9669L143.992 131.023L207.448 128.715Z" fill="#4154F4"/>
<path d="M458.491 181.356C462.873 181.356 466.51 177.512 466.901 172.465L467.001 171.177C467.452 165.377 463.479 160.339 458.436 160.334C419.013 160.269 267.664 159.791 229.445 159.665C229.441 159.665 229.431 159.665 229.422 159.665C224.613 159.665 220.8 164.262 220.991 169.824C221.174 175.133 224.949 179.366 229.539 179.403L458.427 181.356C458.448 181.356 458.47 181.356 458.491 181.356Z" fill="url(#paint1_linear)"/>
<path d="M460.289 225.148C464.669 225.148 468.309 221.308 468.7 216.26L468.799 214.976C469.248 209.172 465.278 204.137 460.235 204.128C420.81 204.066 269.459 203.585 231.242 203.462C231.234 203.462 231.225 203.462 231.22 203.462C226.409 203.462 222.599 208.06 222.788 213.625C222.969 218.93 226.749 223.162 231.335 223.202L460.223 225.148C460.244 225.148 460.268 225.148 460.289 225.148Z" fill="url(#paint2_linear)"/>
<path d="M596.391 287.576C603.171 287.576 608.921 283.716 609.672 278.66L609.864 277.373C610.725 271.571 604.745 266.547 596.965 266.547C596.961 266.547 596.957 266.547 596.952 266.547C584.741 266.555 565.574 266.559 542.26 266.559C449.331 266.559 290.488 266.502 243.304 266.482C243.304 266.482 243.3 266.482 243.296 266.482C235.852 266.482 229.812 271.1 229.947 276.673C230.074 281.979 235.786 286.2 242.874 286.228L596.323 287.576C596.346 287.576 596.369 287.576 596.391 287.576Z" fill="url(#paint3_linear)"/>
<path d="M599.533 333.54C604.785 333.54 609.204 329.715 609.752 324.678L609.892 323.394C610.523 317.595 605.828 312.543 599.767 312.513C552.372 312.307 370.431 311.271 324.485 311.008C324.47 311.008 324.448 311.008 324.425 311.008C318.661 311.008 314.021 315.584 314.164 321.142C314.299 326.45 318.773 330.691 324.287 330.751L599.423 333.54C599.459 333.54 599.496 333.54 599.533 333.54Z" fill="url(#paint4_linear)"/>
<path d="M596.989 393.729C603.769 393.729 609.52 389.872 610.271 384.812L610.462 383.526C611.324 377.721 605.343 372.698 597.564 372.698C597.56 372.698 597.555 372.698 597.551 372.698C585.374 372.706 566.261 372.71 543.036 372.71C450.135 372.71 291.121 372.657 243.903 372.637C243.899 372.637 243.899 372.637 243.895 372.637C236.453 372.637 230.415 377.25 230.546 382.826C230.676 388.132 236.383 392.353 243.469 392.382L596.922 393.729C596.944 393.729 596.968 393.729 596.989 393.729Z" fill="url(#paint5_linear)"/>
<path d="M602.671 440.457C607.977 440.457 612.43 436.598 612.953 431.533L613.086 430.247C613.686 424.45 608.95 419.432 602.871 419.432C602.863 419.432 602.857 419.432 602.85 419.432C555.233 419.521 372.431 419.603 326.266 419.624C320.448 419.628 315.779 424.247 315.957 429.819C316.121 435.127 320.641 439.346 326.184 439.368L602.628 440.457C602.642 440.457 602.657 440.457 602.671 440.457Z" fill="url(#paint6_linear)"/>
<path d="M599.992 502.041C606.772 502.041 612.521 498.19 613.273 493.128L613.464 491.84C614.326 486.037 608.345 481.016 600.566 481.016C600.561 481.016 600.557 481.016 600.553 481.016C588.375 481.024 569.262 481.028 546.037 481.028C453.135 481.028 294.119 480.971 246.905 480.954C239.46 480.95 233.416 485.564 233.547 491.139C233.673 496.449 239.387 500.672 246.469 500.696L599.924 502.041C599.947 502.041 599.969 502.041 599.992 502.041Z" fill="url(#paint7_linear)"/>
<path d="M604.053 548.221C609.359 548.221 613.812 544.357 614.335 539.293L614.468 538.011C615.068 532.213 610.331 527.195 604.252 527.195C604.245 527.195 604.238 527.195 604.232 527.195C556.614 527.281 373.811 527.37 327.651 527.388C321.829 527.391 317.16 532.01 317.337 537.583C317.501 542.893 322.024 547.106 327.565 547.128L604.01 548.221C604.024 548.221 604.039 548.221 604.053 548.221Z" fill="url(#paint8_linear)"/>
<path d="M596.392 609.103C603.171 609.103 608.921 605.245 609.672 600.187L609.864 598.902C610.725 593.098 604.745 588.074 596.966 588.074C596.961 588.074 596.957 588.074 596.952 588.074C584.774 588.083 565.664 588.086 542.436 588.086C449.536 588.086 290.521 588.028 243.304 588.01C235.86 588.01 229.812 592.625 229.947 598.199C230.074 603.505 235.786 607.727 242.874 607.754L596.323 609.103C596.346 609.103 596.369 609.103 596.392 609.103Z" fill="url(#paint9_linear)"/>
<path d="M600.22 660.279C605.451 660.279 609.841 656.43 610.362 651.375L610.494 650.09C611.092 644.287 606.41 639.256 600.399 639.256C600.399 639.256 600.398 639.256 600.398 639.256C600.151 639.256 599.894 639.256 599.64 639.256C551.484 639.256 372.647 639.019 327.31 638.959C327.307 638.959 327.299 638.959 327.296 638.959C321.55 638.959 316.947 643.568 317.114 649.136C317.275 654.442 321.735 658.667 327.207 658.7L600.158 660.279C600.178 660.279 600.2 660.279 600.22 660.279Z" fill="url(#paint10_linear)"/>
<path d="M518.086 224.705L524.461 224.599L553.153 132.532L577.902 223.699L584.594 223.588L628.26 111.733C630.259 106.453 632.293 103.303 634.361 102.271C636.432 101.245 642.079 100.567 651.325 100.233V98.5138L583.413 100.971V102.671C585.727 102.59 587.838 102.544 589.743 102.544C594.443 102.544 597.901 102.802 600.107 103.308C603.213 104.021 604.765 105.578 604.765 107.98C604.765 109.255 604.369 110.787 603.575 112.587L572.593 192.851L554.719 127.778L558.877 114.175C560.458 109.063 562.366 105.958 564.607 104.865C566.844 103.773 572.587 103.06 581.841 102.726V101.027L515.079 103.444V105.123C517.305 105.042 519.34 105.002 521.179 105.002C525.797 105.002 529.189 105.255 531.351 105.76C534.38 106.468 535.891 108.137 535.891 110.767C535.891 112.147 535.633 113.533 535.115 114.929L510.183 194.394L489.053 136.835C486.906 130.818 485.831 125.877 485.831 122.019C485.831 111.455 493.481 105.902 508.838 105.351V103.667L459.583 105.447V107.116C459.895 107.106 460.207 107.101 460.516 107.101C469.026 107.101 475.37 111.394 479.534 119.991C480.171 121.331 482.523 127.339 486.594 138.014L518.086 224.705Z" fill="url(#paint11_linear)"/>
<path d="M303.339 683.496C293.031 684.389 275.139 685.835 261.024 686.456C252.547 686.833 247.663 686.001 244.853 684.873C244.858 685.189 244.864 685.491 244.876 685.771C244.945 687.256 246.15 688.444 247.651 688.527C274.31 690.016 295.511 689.043 303.061 688.584C304.619 688.487 305.552 686.79 304.753 685.458C304.353 684.794 303.866 684.142 303.339 683.496Z" fill="url(#paint12_linear)"/>
<path d="M261.025 686.456C275.134 685.835 293.033 684.389 303.341 683.495C293.207 671.05 261.025 662.659 261.025 662.659H251.939C245.687 671.674 244.783 680.262 244.853 684.873C247.663 686 252.548 686.833 261.025 686.456Z" fill="url(#paint13_linear)"/>
<path d="M250.411 647.814L251.264 664.655C251.35 666.478 252.715 668.011 254.541 668.272C256.356 668.531 258.786 668.563 261.373 667.706C262.957 667.178 264.132 665.839 264.426 664.207L267.363 647.814H250.411Z" fill="url(#paint14_linear)"/>
<path d="M132.372 686.331C127.899 685.706 125.874 683.385 125.025 680.898L125.012 680.966C124.353 683.586 125.874 686.302 128.924 687.594C132.607 689.159 136.643 689.424 139.765 689.295C143.121 689.155 146.204 687.766 147.902 685.542L147.928 685.509C144.558 687.178 139.83 687.372 132.372 686.331Z" fill="url(#paint15_linear)"/>
<path d="M153.451 647.702H145.955C134.542 647.469 127.373 671.567 125.022 680.897C125.871 683.384 127.895 685.706 132.368 686.331C139.824 687.371 144.552 687.178 147.921 685.509C154.091 677.388 157.147 665.492 158.616 658.547C160.287 650.652 153.451 647.702 153.451 647.702Z" fill="url(#paint16_linear)"/>
<path d="M146.919 632.075L142.758 648.636C142.251 650.667 143.22 652.77 145.095 653.732C147.426 654.927 150.701 656.186 153.713 655.82C155.132 655.652 156.313 654.651 156.776 653.315L162.889 635.889L146.919 632.075Z" fill="url(#paint17_linear)"/>
<path d="M141.952 636.86C147.131 641.457 163.972 642.063 163.972 642.063C224.641 496.354 249.456 475.654 249.456 475.654C240.698 530.65 248.043 652.406 248.043 652.406C258.053 656.827 270.962 652.406 270.962 652.406C271.778 562.371 285.606 483.847 301.939 421.943C260.939 421.021 239.13 406.978 232.011 401.344C197.834 456.487 141.952 636.86 141.952 636.86Z" fill="url(#paint18_linear)"/>
<path d="M242.427 233.782C234.667 272.519 237.45 341.857 239.278 373.484C239.791 382.373 233.588 394.696 228.576 403.101C227.792 404.421 228.276 406.108 229.643 406.812C238.034 411.128 266.46 424.503 299.409 426.168C301.603 426.28 303.566 424.78 304.138 422.655C328.573 331.336 356.964 272.98 356.964 272.98C325.619 222.896 242.427 233.782 242.427 233.782Z" fill="url(#paint19_linear)"/>
<path d="M253.601 472.203C253.25 472.203 252.905 472.113 252.588 471.92C251.673 471.36 251.38 470.164 251.938 469.249C252.266 468.714 260.112 456.018 275.995 448.353C276.962 447.89 278.124 448.292 278.59 449.257C279.055 450.226 278.647 451.389 277.681 451.855C262.874 459.004 255.332 471.151 255.257 471.273C254.889 471.872 254.251 472.203 253.601 472.203Z" fill="url(#paint20_linear)"/>
<path d="M193.747 344.96C196.239 363.007 203.605 382.694 218.343 403.602L223.943 399.034C223.943 399.034 217.475 372.782 221.152 342.992C212.064 341.213 201.327 343.041 193.747 344.96Z" fill="url(#paint21_linear)"/>
<path d="M251.094 281.577L242.424 233.781C242.424 233.781 184.507 278.083 193.745 344.957C201.326 343.042 212.062 341.212 221.154 342.987C223.795 321.524 231.706 298.225 251.094 281.577Z" fill="url(#paint22_linear)"/>
<path d="M356.966 272.981L334.608 321.167C338.221 350.252 353.836 362.83 370.673 367.657C371.722 354.398 375.072 343.688 378.182 336.279C356.667 314.052 356.966 272.981 356.966 272.981Z" fill="url(#paint23_linear)"/>
<path d="M378.182 336.279C375.073 343.687 371.723 354.397 370.674 367.655C415.598 385.1 427.48 351.271 427.48 351.271L419.179 349.808C400.431 351.783 387.332 345.732 378.182 336.279Z" fill="url(#paint24_linear)"/>
<path d="M336.363 213.498L325.568 253.2C324.354 257.656 319.533 260.052 315.244 258.338C310.615 256.486 304.745 253.958 299.688 251.227C294.29 248.315 292.604 241.363 296.02 236.27L318.462 202.788L336.363 213.498Z" fill="url(#paint25_linear)"/>
<path d="M359.975 183.331C360.075 184.01 350.972 228.636 350.972 228.636L325.618 222.893L327.965 179.318C327.965 179.318 358.332 171.915 359.975 183.331Z" fill="url(#paint26_linear)"/>
<path d="M333.668 189.027L330.636 211.868C330.599 212.165 330.599 212.457 330.642 212.748C330.895 214.535 332.228 220.633 338.376 218.89C343.958 217.309 349.071 215.949 352.604 217.028C354.195 217.514 355.15 219.122 354.821 220.752C353.99 224.806 351.957 233.905 348.985 241.543C348.381 243.097 346.682 243.912 345.086 243.442C340.28 242.039 330.221 238.801 322.74 234.294C321.726 233.684 321.122 232.578 321.171 231.396C321.414 225.631 322.088 208.101 321.522 203.184C320.988 198.569 315.33 195.806 312.876 194.818C312.067 194.494 311.436 193.858 311.118 193.053C309.979 190.193 308.41 183.592 316.721 180.888C318.469 180.321 319.386 178.443 318.765 176.716C317.536 173.283 317.013 168.048 323.447 165.16C329.989 162.229 334.87 165.716 337.508 168.55C338.576 169.699 340.285 169.872 341.607 169.035C342.362 168.56 343.333 168.404 344.503 169.138C346.089 170.12 348.176 169.451 348.99 167.778C350.56 164.556 353.753 161.112 360.15 162.208C371.514 164.156 372.797 176.754 369.804 184.137C366.805 191.521 354.605 188.709 348.489 184.99C343.84 182.156 337.804 185.125 335.178 186.706C334.347 187.208 333.792 188.061 333.668 189.027Z" fill="url(#paint27_linear)"/>
<path d="M320.502 211.513C320.502 211.513 325.174 198.425 320.377 195.223C315.581 192.016 308.469 193.679 310.034 203.16C311.982 214.953 320.502 211.513 320.502 211.513Z" fill="url(#paint28_linear)"/>
<path d="M424.146 357.46C426.412 359.223 434.156 355.536 438.895 352.986C441.208 351.737 442.325 349.035 441.533 346.537C440.393 342.935 438.49 338.287 436.149 337.703C432.262 336.732 414.828 350.176 424.146 357.46Z" fill="url(#paint29_linear)"/>
<path d="M42.7185 466.786L634.267 256.254L665.562 343.251L74.2226 559.665C61.6652 564.262 47.6459 559.166 40.9144 547.599C34.0046 535.721 27.3943 517.16 27.0021 489.36C26.8524 479.254 33.2059 470.175 42.7185 466.786Z" fill="url(#paint30_linear)"/>
<path d="M817.273 233.766L735.562 243.809C735.647 255.062 739.329 269.621 751.794 286.328L820.034 241.278C823.656 238.887 821.58 233.24 817.273 233.766Z" fill="url(#paint31_linear)"/>
<path d="M634.267 256.253C630.521 310.771 665.561 343.251 665.561 343.251L751.794 286.325C739.33 269.621 735.646 255.062 735.562 243.808L634.267 256.253Z" fill="url(#paint32_linear)"/>
<path d="M50.0569 493.466C49.3429 493.466 48.6709 493.021 48.4189 492.308C48.1039 491.403 48.5799 490.409 49.4829 490.09L615.43 289.936C616.34 289.617 617.33 290.091 617.649 290.995C617.969 291.899 617.495 292.893 616.588 293.213L50.6379 493.366C50.4489 493.434 50.2529 493.466 50.0569 493.466Z" fill="#FF7247"/>
<path d="M63.4677 519.969C62.864 519.969 62.2955 519.593 62.0845 518.99C61.8149 518.223 62.2135 517.384 62.9754 517.114L540.924 348.084C541.69 347.815 542.526 348.215 542.796 348.979C543.068 349.745 542.665 350.585 541.902 350.854L63.9541 519.884C63.7959 519.942 63.6318 519.969 63.4677 519.969Z" fill="#FF7247"/>
<path d="M220.334 398.8L242.415 397L251.976 405.819C251.976 405.819 249.718 408.95 242.641 407.15C235.57 405.353 225.883 404.91 225.883 404.91C225.883 404.91 216.116 409.316 216 401.073L220.334 398.8Z" fill="url(#paint33_linear)"/>
</g>
<defs>
<linearGradient id="paint0_linear" x1="-13.9658" y1="-552.456" x2="194.241" y2="804.73" gradientUnits="userSpaceOnUse">
<stop stop-color="#5162F2"/>
<stop offset="0.205701" stop-color="#707EEF"/>
<stop offset="1" stop-color="#A3ABE9"/>
</linearGradient>
<linearGradient id="paint1_linear" x1="110.944" y1="-350.254" x2="290.614" y2="820.913" gradientUnits="userSpaceOnUse">
<stop stop-color="#D9F6FF"/>
<stop offset="0.205701" stop-color="#D8F0FF"/>
<stop offset="1" stop-color="#D3D5FD"/>
</linearGradient>
<linearGradient id="paint2_linear" x1="156.079" y1="-277.194" x2="325.438" y2="826.762" gradientUnits="userSpaceOnUse">
<stop stop-color="#D9F6FF"/>
<stop offset="0.205701" stop-color="#D8F0FF"/>
<stop offset="1" stop-color="#D3D5FD"/>
</linearGradient>
<linearGradient id="paint3_linear" x1="209.068" y1="-191.416" x2="366.321" y2="833.627" gradientUnits="userSpaceOnUse">
<stop stop-color="#D9F6FF"/>
<stop offset="0.205701" stop-color="#D8F0FF"/>
<stop offset="1" stop-color="#D3D5FD"/>
</linearGradient>
<linearGradient id="paint4_linear" x1="266.909" y1="-97.7846" x2="410.948" y2="841.119" gradientUnits="userSpaceOnUse">
<stop stop-color="#D9F6FF"/>
<stop offset="0.205701" stop-color="#D8F0FF"/>
<stop offset="1" stop-color="#D3D5FD"/>
</linearGradient>
<linearGradient id="paint5_linear" x1="209.694" y1="-190.401" x2="366.803" y2="833.706" gradientUnits="userSpaceOnUse">
<stop stop-color="#D9F6FF"/>
<stop offset="0.205701" stop-color="#D8F0FF"/>
<stop offset="1" stop-color="#D3D5FD"/>
</linearGradient>
<linearGradient id="paint6_linear" x1="297.769" y1="-47.8287" x2="434.756" y2="845.116" gradientUnits="userSpaceOnUse">
<stop stop-color="#D9F6FF"/>
<stop offset="0.205701" stop-color="#D8F0FF"/>
<stop offset="1" stop-color="#D3D5FD"/>
</linearGradient>
<linearGradient id="paint7_linear" x1="212.784" y1="-185.393" x2="369.185" y2="834.104" gradientUnits="userSpaceOnUse">
<stop stop-color="#D9F6FF"/>
<stop offset="0.205701" stop-color="#D8F0FF"/>
<stop offset="1" stop-color="#D3D5FD"/>
</linearGradient>
<linearGradient id="paint8_linear" x1="299.174" y1="-45.5556" x2="435.841" y2="845.299" gradientUnits="userSpaceOnUse">
<stop stop-color="#D9F6FF"/>
<stop offset="0.205701" stop-color="#D8F0FF"/>
<stop offset="1" stop-color="#D3D5FD"/>
</linearGradient>
<linearGradient id="paint9_linear" x1="209.068" y1="-191.416" x2="366.321" y2="833.626" gradientUnits="userSpaceOnUse">
<stop stop-color="#D9F6FF"/>
<stop offset="0.205701" stop-color="#D8F0FF"/>
<stop offset="1" stop-color="#D3D5FD"/>
</linearGradient>
<linearGradient id="paint10_linear" x1="298.955" y1="-45.9127" x2="435.673" y2="845.271" gradientUnits="userSpaceOnUse">
<stop stop-color="#D9F6FF"/>
<stop offset="0.205701" stop-color="#D8F0FF"/>
<stop offset="1" stop-color="#D3D5FD"/>
</linearGradient>
<linearGradient id="paint11_linear" x1="47.927" y1="-452.266" x2="241.994" y2="812.749" gradientUnits="userSpaceOnUse">
<stop stop-color="#D9F6FF"/>
<stop offset="0.205701" stop-color="#D8F0FF"/>
<stop offset="1" stop-color="#D3D5FD"/>
</linearGradient>
<linearGradient id="paint12_linear" x1="-336.675" y1="513.177" x2="-239.422" y2="513.177" gradientUnits="userSpaceOnUse">
<stop stop-color="#53D8FF"/>
<stop offset="1" stop-color="#3840F7"/>
</linearGradient>
<linearGradient id="paint13_linear" x1="-336.717" y1="494.085" x2="-242.203" y2="494.085" gradientUnits="userSpaceOnUse">
<stop stop-color="#2B3582"/>
<stop offset="1" stop-color="#150E42"/>
</linearGradient>
<linearGradient id="paint14_linear" x1="-318.768" y1="470.417" x2="-291.535" y2="470.417" gradientUnits="userSpaceOnUse">
<stop stop-color="#F9B776"/>
<stop offset="1" stop-color="#F47960"/>
</linearGradient>
<linearGradient id="paint15_linear" x1="-749.099" y1="453.045" x2="-707.094" y2="453.045" gradientUnits="userSpaceOnUse">
<stop stop-color="#53D8FF"/>
<stop offset="1" stop-color="#3840F7"/>
</linearGradient>
<linearGradient id="paint16_linear" x1="-748.462" y1="420.769" x2="-686.818" y2="420.769" gradientUnits="userSpaceOnUse">
<stop stop-color="#2B3582"/>
<stop offset="1" stop-color="#150E42"/>
</linearGradient>
<linearGradient id="paint17_linear" x1="-684.894" y1="387.992" x2="-648.611" y2="387.992" gradientUnits="userSpaceOnUse">
<stop stop-color="#F9B776"/>
<stop offset="1" stop-color="#F47960"/>
</linearGradient>
<linearGradient id="paint18_linear" x1="-405.383" y1="52.8744" x2="-807.653" y2="638.711" gradientUnits="userSpaceOnUse">
<stop stop-color="#18459F"/>
<stop offset="0.113867" stop-color="#2874B5"/>
<stop offset="1" stop-color="#2874B5"/>
</linearGradient>
<linearGradient id="paint19_linear" x1="-112.706" y1="-260.585" x2="-876.937" y2="403.628" gradientUnits="userSpaceOnUse">
<stop stop-color="#8AA2A9"/>
<stop offset="1" stop-color="#7F979F"/>
</linearGradient>
<linearGradient id="paint20_linear" x1="-380.162" y1="327.926" x2="-364.569" y2="296.763" gradientUnits="userSpaceOnUse">
<stop stop-color="#53D8FF"/>
<stop offset="1" stop-color="#3840F7"/>
</linearGradient>
<linearGradient id="paint21_linear" x1="-435.255" y1="-87.0846" x2="-558.183" y2="21.6927" gradientUnits="userSpaceOnUse">
<stop stop-color="#F9B776"/>
<stop offset="1" stop-color="#F47960"/>
</linearGradient>
<linearGradient id="paint22_linear" x1="-226.773" y1="-378.958" x2="-1015.63" y2="306.66" gradientUnits="userSpaceOnUse">
<stop stop-color="#7F969D"/>
<stop offset="1" stop-color="#7A1DBC"/>
</linearGradient>
<linearGradient id="paint23_linear" x1="81.1204" y1="-64.9366" x2="-595.43" y2="523.071" gradientUnits="userSpaceOnUse">
<stop stop-color="#7F88A2"/>
<stop offset="1" stop-color="#7A1DBC"/>
</linearGradient>
<linearGradient id="paint24_linear" x1="42.825" y1="108.849" x2="122.381" y2="108.849" gradientUnits="userSpaceOnUse">
<stop stop-color="#F9B776"/>
<stop offset="1" stop-color="#F47960"/>
</linearGradient>
<linearGradient id="paint25_linear" x1="-148.758" y1="-203.955" x2="-149.71" y2="-41.4051" gradientUnits="userSpaceOnUse">
<stop stop-color="#F9B776"/>
<stop offset="1" stop-color="#F47960"/>
</linearGradient>
<linearGradient id="paint26_linear" x1="-50.9966" y1="-188.678" x2="-112.849" y2="-76.5987" gradientUnits="userSpaceOnUse">
<stop stop-color="#F9B776"/>
<stop offset="1" stop-color="#F47960"/>
</linearGradient>
<linearGradient id="paint27_linear" x1="-128.968" y1="-175.97" x2="-36.1197" y2="-189.357" gradientUnits="userSpaceOnUse">
<stop stop-color="#2B3582"/>
<stop offset="1" stop-color="#150E42"/>
</linearGradient>
<linearGradient id="paint28_linear" x1="-175.827" y1="-111.878" x2="-122.642" y2="-184.881" gradientUnits="userSpaceOnUse">
<stop stop-color="#F9B776"/>
<stop offset="1" stop-color="#F47960"/>
</linearGradient>
<linearGradient id="paint29_linear" x1="180.628" y1="153.352" x2="207.351" y2="153.352" gradientUnits="userSpaceOnUse">
<stop stop-color="#F9B776"/>
<stop offset="1" stop-color="#F47960"/>
</linearGradient>
<linearGradient id="paint30_linear" x1="113.221" y1="-579.202" x2="-1593.75" y2="665.119" gradientUnits="userSpaceOnUse">
<stop stop-color="#2B3582"/>
<stop offset="1" stop-color="#150E42"/>
</linearGradient>
<linearGradient id="paint31_linear" x1="547.974" y1="166.448" x2="689.879" y2="43.1869" gradientUnits="userSpaceOnUse">
<stop stop-color="#2B3582"/>
<stop offset="1" stop-color="#150E42"/>
</linearGradient>
<linearGradient id="paint32_linear" x1="679.067" y1="-1.13246" x2="160.805" y2="531.111" gradientUnits="userSpaceOnUse">
<stop stop-color="#FDF53F"/>
<stop offset="1" stop-color="#D93C65"/>
</linearGradient>
<linearGradient id="paint33_linear" x1="-263.015" y1="54.5491" x2="-364.454" y2="144.311" gradientUnits="userSpaceOnUse">
<stop stop-color="#F9B776"/>
<stop offset="1" stop-color="#F47960"/>
</linearGradient>
<clipPath id="clip0">
<rect width="852" height="814" fill="white" transform="matrix(-1 0 0 1 852 0.000244141)"/>
</clipPath>
</defs>
</svg>
