<svg width="880" height="833" viewBox="0 0 880 833" fill="none" xmlns="http://www.w3.org/2000/svg">
<path d="M533.267 209.392L142.505 207C129.663 206.921 119.392 217.647 120.028 230.475L146.912 785.65H581.752L605.898 289.63L533.267 209.392Z" fill="#838FED"/>
<path d="M318.782 239.406V297.853L315.755 297.84C312.434 275.441 307.164 260.005 299.933 251.541C293.987 244.452 285.199 240.831 273.544 240.686C270.623 240.65 269.016 240.767 268.725 241.038C268.14 241.448 267.849 243.243 267.849 246.418V358.349C267.849 362.353 268.14 364.91 268.725 366.01C269.016 366.565 270.041 367.147 271.793 367.756C273.544 368.364 276.898 368.865 281.855 369.248C286.798 369.627 293.48 369.794 301.887 369.74V371.796L206.121 372.423V370.335C214.596 370.285 221.34 370.033 226.377 369.586C231.402 369.14 234.798 368.599 236.571 367.963C238.34 367.327 239.48 366.556 239.997 365.654C240.512 364.748 240.771 362.353 240.771 358.47V246.31C240.771 242.707 240.329 240.758 239.445 240.465C239.002 240.326 237.455 240.235 234.798 240.199C223.269 240.059 214.444 243.433 208.356 250.328C200.908 258.905 195.315 274.427 191.585 296.897L188.444 296.884V237.742L318.782 239.406Z" fill="white"/>
<path d="M347.826 324.285C343.927 324.285 340.689 320.869 340.338 316.376L340.253 315.234C339.849 310.075 343.386 305.598 347.875 305.594C382.948 305.541 517.612 305.109 551.619 305C551.627 305 551.635 305 551.639 305C555.918 305 559.309 309.086 559.14 314.035C558.978 318.754 555.615 322.512 551.538 322.549L347.883 324.285C347.863 324.285 347.843 324.285 347.826 324.285Z" fill="#E7EEFE"/>
<path d="M346.222 363.226C342.328 363.226 339.085 359.812 338.737 355.321L338.649 354.182C338.249 349.02 341.784 344.546 346.27 344.538C381.348 344.482 516.009 344.054 550.016 343.942C550.024 343.942 550.028 343.942 550.036 343.942C554.318 343.942 557.709 348.028 557.541 352.978C557.377 357.697 554.014 361.455 549.932 361.491L346.282 363.226C346.262 363.226 346.242 363.226 346.222 363.226Z" fill="#E7EEFE"/>
<path d="M225.127 418.728C219.095 418.728 213.979 415.299 213.31 410.798L213.14 409.658C212.372 404.499 217.696 400.029 224.617 400.029C224.62 400.029 224.626 400.029 224.628 400.029C235.44 400.037 252.391 400.037 272.998 400.037C355.636 400.037 497.254 399.99 539.29 399.974H539.294C545.918 399.974 551.29 404.075 551.171 409.032C551.057 413.751 545.981 417.504 539.674 417.528L225.186 418.728C225.167 418.728 225.146 418.728 225.127 418.728Z" fill="#E7EEFE"/>
<path d="M222.333 459.595C217.659 459.595 213.727 456.198 213.239 451.715L213.115 450.574C212.554 445.416 216.732 440.926 222.123 440.902C264.293 440.72 426.177 439.796 467.056 439.562C467.074 439.562 467.095 439.562 467.109 439.562C472.242 439.562 476.368 443.631 476.242 448.569C476.12 453.29 472.141 457.065 467.235 457.111L222.43 459.595C222.398 459.595 222.366 459.595 222.333 459.595Z" fill="#E7EEFE"/>
<path d="M224.595 513.11C218.563 513.11 213.447 509.68 212.776 505.182L212.606 504.039C211.84 498.877 217.161 494.411 224.083 494.411C224.088 494.411 224.091 494.411 224.093 494.411C234.878 494.419 251.754 494.423 272.285 494.423C354.901 494.423 496.695 494.371 538.756 494.355H538.76C545.382 494.355 550.758 498.458 550.635 503.414C550.525 508.133 545.445 511.887 539.14 511.911L224.654 513.11C224.635 513.11 224.614 513.11 224.595 513.11Z" fill="#E7EEFE"/>
<path d="M219.542 554.656C214.82 554.656 210.857 551.222 210.394 546.72L210.275 545.575C209.742 540.424 213.954 535.961 219.364 535.961C219.369 535.961 219.375 535.961 219.383 535.961C261.749 536.038 424.401 536.114 465.472 536.132C470.655 536.135 474.807 540.243 474.65 545.198C474.5 549.916 470.48 553.664 465.549 553.685L219.58 554.656C219.566 554.656 219.553 554.656 219.542 554.656Z" fill="#E7EEFE"/>
<path d="M221.922 609.415C215.893 609.415 210.777 605.987 210.108 601.488L209.936 600.345C209.17 595.186 214.491 590.717 221.413 590.717C221.418 590.717 221.421 590.717 221.424 590.717C232.235 590.725 249.176 590.728 269.774 590.728C352.412 590.728 494.048 590.679 536.085 590.664C542.711 590.661 548.088 594.766 547.966 599.722C547.855 604.439 542.774 608.194 536.471 608.219L221.984 609.415C221.965 609.415 221.944 609.415 221.922 609.415Z" fill="#E7EEFE"/>
<path d="M218.312 650.472C213.59 650.472 209.628 647.038 209.161 642.536L209.046 641.394C208.512 636.237 212.725 631.776 218.134 631.776C218.14 631.776 218.145 631.776 218.153 631.776C260.52 631.855 423.172 631.93 464.242 631.949C469.423 631.952 473.578 636.059 473.417 641.014C473.271 645.731 469.249 649.48 464.318 649.501L218.35 650.472C218.337 650.472 218.323 650.472 218.312 650.472Z" fill="#E7EEFE"/>
<path d="M225.127 704.604C219.095 704.604 213.979 701.175 213.31 696.674L213.14 695.534C212.372 690.375 217.696 685.906 224.617 685.906C224.62 685.906 224.626 685.906 224.628 685.906C235.469 685.914 252.491 685.916 273.173 685.916C355.838 685.916 497.285 685.865 539.29 685.851C539.294 685.851 539.294 685.851 539.294 685.851C545.918 685.851 551.29 689.954 551.171 694.909C551.057 699.628 545.981 703.383 539.674 703.407L225.186 704.604C225.167 704.604 225.146 704.604 225.127 704.604Z" fill="#E7EEFE"/>
<path d="M221.721 750.106C217.066 750.106 213.16 746.683 212.696 742.187L212.578 741.047C212.047 735.885 216.211 731.413 221.562 731.413C221.78 731.413 222.009 731.413 222.236 731.413C265.083 731.413 424.203 731.203 464.544 731.149C464.548 731.149 464.551 731.149 464.555 731.149C469.668 731.149 473.761 735.246 473.612 740.198C473.469 744.918 469.501 748.672 464.635 748.702L221.775 750.106C221.756 750.106 221.74 750.106 221.721 750.106Z" fill="#E7EEFE"/>
<path d="M441.855 331.264C437.955 331.264 434.717 327.849 434.366 323.356L434.281 322.214C433.878 317.054 437.414 312.577 441.903 312.573C476.976 312.521 611.64 312.089 645.647 311.98C645.655 311.98 645.663 311.98 645.667 311.98C649.947 311.98 653.338 316.065 653.168 321.015C653.007 325.734 649.644 329.492 645.566 329.529L441.911 331.264C441.891 331.264 441.871 331.264 441.855 331.264Z" fill="#E7EEFE"/>
<path d="M582.06 288.01C582.06 288.01 644.858 364.485 667.958 346.055C691.054 327.63 628.689 227.176 628.689 227.176L582.06 288.01Z" fill="url(#paint0_linear)"/>
<path d="M584.631 784.572C584.638 784.197 584.613 783.817 584.516 783.434C578.846 760.952 550.697 746.949 550.697 746.949L539.542 747.823C533.129 767.639 533.954 779.793 534.984 785.205C535.016 785.356 535.059 785.502 535.102 785.647C544.302 786.469 563.24 787.009 584.631 784.572Z" fill="url(#paint1_linear)"/>
<path d="M535.062 731.211L539.783 753.949C540.133 755.618 541.411 756.866 542.961 757.011C544.858 757.189 547.564 757.294 550.28 756.893C552.717 756.537 554.413 754.06 553.985 751.402L550.698 731.211H535.062Z" fill="url(#paint2_linear)"/>
<path d="M683.437 783.579C683.353 783.409 683.282 783.231 683.169 783.069C677.194 774.725 661.982 758.104 631.919 750.896L617.5 750.441C617.5 750.441 611.077 761.603 610.955 782.277C614.251 783.625 620.624 785.075 632.942 785.42C651.982 785.951 674.569 784.312 683.437 783.579Z" fill="url(#paint3_linear)"/>
<path d="M614.822 728.588C614.982 729.661 616.96 746 617.726 752.335C617.904 753.839 618.996 755.003 620.372 755.168C622.829 755.461 626.801 755.728 630.275 755.016C632.149 754.631 633.509 752.831 633.509 750.736V725.089L614.822 728.588Z" fill="url(#paint4_linear)"/>
<path d="M603.253 430.428C603.253 430.428 638.035 562.617 637.409 728.964C637.397 731.997 635.266 734.614 632.298 735.239C627.926 736.161 621.497 737.253 616.174 737.105C613.331 737.026 610.957 734.918 610.48 732.115C605.603 703.514 577.615 542.391 561.667 516.232C561.667 516.232 551.175 659.738 554.53 734.188C554.612 736.04 553.255 737.646 551.417 737.859C548.625 738.18 544.159 738.426 538.473 737.821C536.314 737.593 534.574 735.962 534.265 733.813C530.792 709.609 510.797 565.526 511.645 461.733C511.692 455.879 527.124 430.428 527.124 430.428H603.253Z" fill="url(#paint5_linear)"/>
<path d="M627.21 227.82C579.342 220.898 526.761 227.253 501.238 230.468C492.976 231.506 485.418 235.579 479.972 241.885C458.378 266.877 410.99 335.297 466.768 404.238C473.905 400.278 484.046 393.923 490.937 386.571C484.764 369.173 484.261 346.947 497.192 319.687C497.631 321.85 498.179 323.985 498.847 326.093C516.665 382.561 517.616 429.55 517.58 440.382C517.571 441.85 518.458 443.176 519.82 443.72C543.281 453.125 588.437 447.528 603.598 445.27C606.378 444.858 608.248 442.27 607.86 439.486C602.528 400.854 620.63 344.359 635.033 307.278C640.721 292.623 630.191 231.931 627.21 227.82Z" fill="url(#paint6_linear)"/>
<path d="M550.909 171.672L544.302 226.306C544.003 228.785 545.526 231.126 547.921 231.826C555.096 233.922 570.456 237.101 584.488 231.326C587.152 230.229 588.621 227.35 588.009 224.533L579.654 186.081L550.909 171.672Z" fill="url(#paint7_linear)"/>
<path d="M593.762 132.841C594.175 133.594 603.019 189.689 603.019 189.689L570.882 194.059L554.603 142.139C554.603 142.139 586.858 120.23 593.762 132.841Z" fill="url(#paint8_linear)"/>
<path d="M566.513 147.301C565.598 148.422 565.254 149.893 565.577 151.3L571.914 178.902C572.01 179.32 572.158 179.717 572.364 180.092C573.517 182.166 577.707 188.466 584.044 183.806C589.45 179.833 594.47 176.263 598.839 175.533C601.389 175.109 603.78 176.892 604.177 179.447C604.986 184.716 606.404 195.375 606.335 205.018C606.319 207.436 604.425 209.425 602.008 209.594C595.644 210.043 583.192 210.546 572.882 208.695C571.19 208.393 569.809 207.187 569.275 205.552C566.926 198.358 560.25 178.22 557.489 172.824C554.929 167.815 547.465 166.958 544.016 166.841C542.704 166.794 541.487 166.212 540.625 165.223C538.054 162.255 534.034 155.638 541.789 149.173C543.714 147.565 543.942 144.667 542.376 142.704C539.567 139.192 537.129 133.521 543.143 127.58C549.237 121.566 556.124 123.089 560.488 125.121C562.424 126.025 564.81 125.634 566.191 124.01C566.804 123.285 567.714 122.798 569.063 122.952C571.602 123.243 573.877 121.576 574.184 119.037C574.718 114.684 577.051 109.563 584.753 108.098C598.882 105.406 605.885 119.561 605.605 129.49C605.325 139.424 589.841 141.466 581.066 139.795C574.617 138.562 569.026 144.217 566.513 147.301Z" fill="url(#paint9_linear)"/>
<path d="M559.934 183.001C559.934 183.001 559.677 165.674 552.668 164.027C545.664 162.379 538.086 167.43 544.051 177.817C551.471 190.743 559.934 183.001 559.934 183.001Z" fill="url(#paint10_linear)"/>
<path d="M494.827 315.461C485.37 289.59 488.799 258.346 488.834 258.032L491.442 258.329C491.407 258.635 488.048 289.284 497.29 314.561L494.827 315.461Z" fill="url(#paint11_linear)"/>
<path d="M560.39 512.861C559.807 512.861 559.273 512.472 559.121 511.875C556.24 500.755 534.636 488.528 534.419 488.407C533.789 488.052 533.565 487.252 533.92 486.622C534.274 485.988 535.071 485.76 535.705 486.115C536.632 486.636 558.498 499.014 561.661 511.221C561.844 511.92 561.424 512.637 560.72 512.816C560.61 512.847 560.5 512.861 560.39 512.861Z" fill="url(#paint12_linear)"/>
<path d="M490.939 386.569C484.049 393.921 473.905 400.274 466.768 404.237C477.427 417.412 491.852 430.605 510.944 443.52L513.256 448.703C515.232 453.145 519.556 456.09 524.413 456.319C551.097 457.594 558.484 451.935 533.916 434.797C533.916 434.797 502.5 419.166 490.939 386.569Z" fill="url(#paint13_linear)"/>
<path d="M687.128 270.767C687.128 270.767 653.457 305.774 645.678 318.47C637.899 331.171 646.557 354.297 664.231 348.927C681.905 343.557 702.475 282.821 702.475 282.821L687.128 270.767Z" fill="url(#paint14_linear)"/>
<path d="M630.767 221.051C630.767 221.051 660.357 299.094 669.707 315.327C680.56 334.17 712.255 322.164 710.674 306.39C709.098 290.621 672.069 225.43 672.069 225.43L630.767 221.051Z" fill="url(#paint15_linear)"/>
<path d="M852.735 273.002L826.675 267.187L672.715 232.837L665.721 231.274L666.147 225.582L670.751 164.206L714.656 148.98L854.661 100.44L852.735 273.002ZM685.801 162.349C685.657 162.349 685.502 162.376 685.352 162.44L678.183 165.369C677.569 165.619 677.276 166.318 677.526 166.932C677.718 167.396 678.167 167.673 678.636 167.673C678.785 167.673 678.94 167.647 679.09 167.588L686.259 164.654C686.873 164.408 687.166 163.704 686.916 163.096C686.724 162.632 686.275 162.349 685.801 162.349ZM836.768 113.254C836.645 113.254 836.528 113.27 836.405 113.312L697.11 157.639C696.481 157.836 696.134 158.508 696.331 159.143C696.491 159.65 696.966 159.975 697.473 159.975C697.59 159.975 697.713 159.959 697.836 159.917L837.131 115.59C837.76 115.393 838.112 114.721 837.91 114.086C837.744 113.579 837.275 113.254 836.768 113.254Z" fill="url(#paint16_linear)"/>
<path d="M872.908 187.221C872.908 236.195 864.821 275.899 854.839 275.899C844.857 275.899 836.771 236.195 836.771 187.221C836.771 138.242 844.857 98.5379 854.839 98.5379C864.821 98.5379 872.908 138.242 872.908 187.221Z" fill="url(#paint17_linear)"/>
<path d="M856.214 269.838C854.582 268.175 851.021 261.767 847.971 245.196C845.023 229.186 843.402 208.42 843.402 186.716C843.402 165.017 845.023 144.251 847.971 128.241C851.021 111.671 854.582 105.262 856.214 103.599C857.845 105.262 861.401 111.671 864.456 128.241C867.404 144.251 869.025 165.017 869.025 186.716C869.025 208.42 867.404 229.186 864.456 245.196C861.401 261.767 857.845 268.175 856.214 269.838Z" fill="url(#paint18_linear)"/>
<path d="M854.768 213.372V213.345H853.937V213.318H853.425V213.291H853.047V213.264H852.669V213.237H852.265V213.21H852.022V213.183H851.806V213.156H851.563V213.129H851.348V213.102H851.105V213.075H850.889V213.048H850.673V213.021H850.511V212.994H850.35V212.967H850.215V212.94H850.053V212.913H849.891V212.887H849.729V212.86H849.567V212.833H849.406V212.806H849.244V212.779H849.136V212.752H849.001V212.725H848.866V212.698H848.758V212.671H848.623V212.644H848.515V212.617H848.38V212.59H848.246V212.563H848.138V212.536H848.003V212.509H847.895V212.482H847.787V212.455H847.684V212.428H847.577V212.401H847.496V212.374H847.388V212.347H847.28V212.32H847.172V212.293H847.091V212.266H846.983V212.239H846.875V212.212H846.767V212.185H846.686V212.158H846.579V212.131H846.471V212.104H846.39V212.077H846.309V212.05H846.228V212.023H846.147V211.996H846.066V211.969H845.958V211.942H845.877V211.915H845.796V211.888H845.715V211.861H845.634V211.835H845.553V211.808H845.473V211.781H845.365V211.754H845.284V211.727H845.203V211.7H845.122V211.673H845.068V211.646H844.987V211.619H844.906V211.592H844.825V211.565H844.771V211.538H844.69V211.511H844.609V211.484H844.555V211.457H844.474V211.43H844.394V211.403H844.313V211.376H844.259V211.349H844.178V211.322H844.097V211.052H844.07V210.621H844.043V210.108H844.016V209.596H843.989V209.083H843.962V208.571H843.935V208.058H843.908V207.546H843.881V207.033H843.854V206.499H843.827V205.852H843.8V205.231H843.773V204.584H843.746V203.963H843.719V203.316H843.692V202.668H843.665V201.859H843.638V201.023H843.611V200.214H843.584V199.41H843.557V198.493H843.53V197.333H843.503V196.2H843.476V195.04H843.449V193.26H843.422V191.35H843.396V182.103H843.422V180.161H843.449V178.413H843.476V177.253H843.503V176.093H843.53V174.96H843.557V174.043H843.584V173.233H843.611V172.397H843.638V171.588H843.665V170.784H843.692V170.11H843.719V169.489H843.746V168.869H843.773V168.222H843.8V167.601H843.827V166.954H843.854V166.414H843.881V165.902H843.908V165.389H843.935V164.85H843.962V164.343H843.989V163.83H844.016V163.318H844.043V162.832H844.07V162.4H844.097V161.969H844.124V161.537H844.151V161.106H844.178V160.782H844.232V160.755H844.313V160.728H844.367V160.701H844.448V160.674H844.528V160.647H844.582V160.62H844.663V160.593H844.744V160.566H844.798V160.539H844.879V160.512H844.96V160.485H845.041V160.458H845.095V160.431H845.176V160.404H845.257V160.377H845.338V160.35H845.419V160.323H845.527V160.296H845.607V160.269H845.688V160.242H845.769V160.215H845.85V160.188H845.931V160.161H846.039V160.135H846.12V160.108H846.201V160.081H846.282V160.054H846.363V160.027H846.444V160H846.552V159.973H846.632V159.946H846.74V159.919H846.848V159.892H846.956V159.865H847.037V159.838H847.145V159.811H847.253V159.784H847.361V159.757H847.442V159.73H847.55V159.703H847.658V159.676H847.76V159.649H847.841V159.622H847.976V159.595H848.084V159.568H848.219V159.541H848.327V159.514H848.461V159.487H848.596V159.46H848.704V159.433H848.839V159.406H848.974V159.379H849.082V159.352H849.217V159.325H849.352V159.298H849.513V159.271H849.675V159.244H849.837V159.217H849.999V159.19H850.134V159.163H850.296V159.136H850.458V159.109H850.619V159.083H850.808V159.056H851.051V159.029H851.267V159.002H851.483V158.975H851.725V158.948H851.941V158.921H852.157V158.894H852.535V158.867H852.912V158.84H853.29V158.813H853.668V158.786H854.504V158.759H855.874V158.786H856.683V158.813H857.061V158.84H857.439V158.867H857.789V158.894H858.14V158.921H858.356V158.948H858.572V158.975H858.787V159.002H859.003V159.029H859.219V159.056H859.435V159.083H859.624V159.109H859.758V159.136H859.92V159.163H860.055V159.19H860.217V159.217H860.379V159.244H860.514V159.271H860.676V159.298H860.81V159.325H860.945V159.352H861.053V159.379H861.161V159.406H861.296V159.433H861.404V159.46H861.512V159.487H861.62V159.514H861.755V159.541H861.857V159.568H861.965V159.595H862.073V159.622H862.181V159.649H862.289V159.676H862.37V159.703H862.477V159.73H862.558V159.757H862.639V159.784H862.747V159.811H862.828V159.838H862.936V159.865H863.017V159.892H863.098V159.919H863.206V159.946H863.287V159.973H863.395V160H863.449V160.027H863.529V160.054H863.61V160.081H863.691V160.108H863.772V160.135H863.826V160.161H863.907V160.188H863.988V160.215H864.069V160.242H864.15V160.269H864.204V160.296H864.285V160.323H864.366V160.35H864.447V160.377H864.528V160.404H864.581V160.431H864.662V160.458H864.716V160.485H864.797V160.512H864.851V160.539H864.905V160.566H864.986V160.593H865.04V160.62H865.094V160.647H865.175V160.674H865.229V160.701H865.31V160.728H865.364V160.755H865.418V160.782H865.499V160.809H865.553V160.836H865.607V160.863H865.687V160.89H865.741V160.917H865.795V160.944H865.849V160.971H865.903V160.998H865.957V161.025H866.011V161.052H866.065V161.079H866.119V161.106H866.173V161.133H866.227V161.16H866.281V161.187H866.335V161.214H866.416V161.24H866.47V161.267H866.524V161.294H866.578V161.321H866.632V161.348H866.686V161.375H866.739V161.402H866.793V161.429H866.847V161.456H866.901V161.483H866.928V161.51H866.982V161.537H867.036V161.564H867.09V161.591H867.117V161.618H867.171V161.645H867.225V161.672H867.279V161.699H867.333V161.726H867.36V161.753H867.414V161.78H867.468V161.807H867.522V161.834H867.549V161.861H867.603V161.888H867.657V161.915H867.711V161.942H867.738V161.969H867.791V161.996H867.845V162.023H867.899V162.05H867.926V162.077H867.98V162.104H868.007V162.131H868.061V162.158H868.115V162.185H868.142V162.212H868.196V162.239H868.223V162.266H868.277V162.293H868.304V162.319H868.358V162.346H868.385V162.373H868.439V162.4H868.466V162.427H868.52V162.454H868.574V162.481H868.601V162.508H868.655V162.535H868.682V162.562H868.736V162.589H868.763V162.616H868.817V162.643H868.838V162.67H868.892V162.697H868.919V162.724H868.973V162.751H869V162.778H869.054V162.805H869.081V162.832H869.108V162.859H869.162V162.886H869.189V162.913H869.216V162.94H869.27V162.967H869.297V162.994H869.351V163.021H869.378V163.048H869.405V163.075H869.459V163.102H869.485V163.129H869.512V163.156H869.566V163.183H869.593V163.21H869.62V163.237H869.674V163.264H869.701V163.291H869.755V163.318H869.782V163.345H869.809V163.371H869.863V163.398H869.89V163.425H869.917V163.452H869.971V163.479H869.998V163.506H870.025V163.533H870.052V163.56H870.079V163.587H870.133V163.614H870.16V163.641H870.187V163.668H870.214V163.695H870.241V163.722H870.295V163.749H870.322V163.776H870.349V163.803H870.376V163.83H870.403V163.857H870.457V163.884H870.484V163.911H870.511V163.938H870.537V163.965H870.591V163.992H870.618V164.019H870.645V164.046H870.672V164.073H870.699V164.1H870.753V164.127H870.78V164.154H870.807V164.181H870.834V164.208H870.861V164.235H870.888V164.262H870.915V164.289H870.969V164.316H870.996V164.343H871.023V164.37H871.05V164.397H871.077V164.424H871.104V164.45H871.131V164.477H871.158V164.499H871.185V164.526H871.212V164.553H871.239V164.58H871.266V164.607H871.293V164.634H871.347V164.661H871.374V164.688H871.401V164.715H871.428V164.742H871.455V164.769H871.482V164.796H871.509V164.823H871.536V164.85H871.563V164.877H871.59V164.904H871.616V164.931H871.643V164.958H871.67V164.985H871.724V165.012H871.751V165.066H871.778V165.093H871.805V165.119H871.832V165.146H871.859V165.173H871.886V165.2H871.913V165.227H871.94V165.254H871.967V165.281H871.994V165.308H872.021V165.335H872.048V165.362H872.075V165.389H872.102V165.416H872.129V165.443H872.156V165.47H872.183V165.497H872.21V165.524H872.237V165.551H872.264V165.578H872.291V165.605H872.318V165.632H872.345V165.659H872.372V165.686H872.399V165.713H872.426V165.74H872.453V165.767H872.48V165.794H872.507V165.848H872.534V165.875H872.561V165.902H872.588V165.929H872.615V165.956H872.642V165.983H872.669V166.01H872.695V166.064H872.722V166.091H872.749V166.118H872.776V166.145H872.803V166.172H872.83V166.198H872.857V166.252H872.884V166.279H872.911V166.306H872.938V166.333H872.965V166.36H872.992V166.387H873.019V166.414H873.046V166.468H873.073V166.495H873.1V166.522H873.127V166.549H873.154V166.576H873.181V166.603H873.208V166.657H873.235V166.684H873.262V166.711H873.289V166.738H873.316V166.765H873.343V166.819H873.37V166.846H873.397V166.873H873.424V166.9H873.451V166.954H873.478V166.981H873.505V167.008H873.532V167.062H873.559V167.089H873.586V167.116H873.613V167.143H873.64V167.197H873.667V167.224H873.694V167.251H873.721V167.304H873.747V167.331H873.774V167.358H873.801V167.412H873.828V167.439H873.855V167.466H873.882V167.493H873.909V167.547H873.936V167.574H873.963V167.601H873.99V167.655H874.017V167.682H874.044V167.709H874.071V167.763H874.098V167.79H874.125V167.817H874.152V167.871H874.179V167.898H874.206V167.952H874.233V167.979H874.26V168.033H874.287V168.06H874.314V168.114H874.341V168.141H874.368V168.168H874.395V168.222H874.422V168.249H874.449V168.303H874.476V168.329H874.503V168.383H874.53V168.41H874.557V168.464H874.584V168.491H874.611V168.518H874.638V168.572H874.665V168.599H874.692V168.653H874.719V168.68H874.746V168.734H874.773V168.761H874.8V168.815H874.826V168.869H874.853V168.896H874.88V168.95H874.907V168.977H874.934V169.031H874.961V169.085H874.988V169.112H875.015V169.166H875.042V169.22H875.069V169.247H875.096V169.301H875.123V169.328H875.15V169.382H875.177V169.435H875.204V169.462H875.231V169.516H875.258V169.543H875.285V169.597H875.312V169.651H875.339V169.678H875.366V169.732H875.393V169.786H875.42V169.84H875.447V169.867H875.474V169.921H875.501V169.975H875.528V170.029H875.555V170.083H875.582V170.11H875.609V170.164H875.636V170.218H875.663V170.272H875.69V170.326H875.717V170.353H875.744V170.407H875.771V170.461H875.798V170.514H875.825V170.568H875.852V170.595H875.873V170.649H875.9V170.703H875.927V170.757H875.954V170.811H875.981V170.865H876.008V170.919H876.035V170.973H876.062V171.027H876.089V171.081H876.116V171.135H876.143V171.189H876.17V171.243H876.197V171.297H876.224V171.351H876.251V171.405H876.278V171.459H876.305V171.513H876.332V171.561H876.359V171.615H876.386V171.669H876.413V171.723H876.44V171.777H876.467V171.831H876.494V171.885H876.521V171.966H876.547V172.02H876.574V172.074H876.601V172.128H876.628V172.208H876.655V172.262H876.682V172.316H876.709V172.397H876.736V172.451H876.763V172.505H876.79V172.586H876.817V172.64H876.844V172.694H876.871V172.748H876.898V172.829H876.925V172.883H876.952V172.937H876.979V173.018H877.006V173.072H877.033V173.153H877.06V173.207H877.087V173.287H877.114V173.341H877.141V173.422H877.168V173.503H877.195V173.557H877.222V173.638H877.249V173.719H877.276V173.773H877.303V173.854H877.33V173.908H877.357V173.989H877.384V174.07H877.411V174.124H877.438V174.205H877.465V174.286H877.492V174.366H877.519V174.447H877.546V174.528H877.573V174.609H877.6V174.69H877.626V174.771H877.653V174.852H877.68V174.933H877.707V175.014H877.734V175.095H877.761V175.176H877.788V175.257H877.815V175.338H877.842V175.418H877.869V175.499H877.896V175.607H877.923V175.688H877.95V175.769H877.977V175.877H878.004V175.958H878.031V176.066H878.058V176.147H878.085V176.255H878.112V176.336H878.139V176.444H878.166V176.524H878.193V176.632H878.22V176.74H878.247V176.848H878.274V176.956H878.301V177.064H878.328V177.172H878.355V177.28H878.382V177.388H878.409V177.496H878.436V177.63H878.463V177.738H878.49V177.846H878.517V177.954H878.544V178.089H878.571V178.224H878.598V178.359H878.625V178.494H878.652V178.623H878.679V178.758H878.705V178.893H878.732V179.028H878.759V179.163H878.786V179.297H878.813V179.459H878.84V179.621H878.867V179.81H878.894V179.972H878.921V180.134H878.948V180.296H878.975V180.457H879.002V180.646H879.029V180.889H879.056V181.105H879.083V181.321H879.11V181.536H879.137V181.752H879.164V181.995H879.191V182.319H879.218V182.615H879.245V182.939H879.272V183.236H879.299V183.748H879.326V184.261H879.353V184.989H879.38V187.142H879.353V187.843H879.326V188.383H879.299V188.895H879.272V189.192H879.245V189.516H879.218V189.812H879.191V190.136H879.164V190.379H879.137V190.594H879.11V190.81H879.083V191.026H879.056V191.242H879.029V191.458H879.002V191.647H878.975V191.835H878.948V191.997H878.921V192.159H878.894V192.321H878.867V192.483H878.84V192.639H878.813V192.828H878.786V192.963H878.759V193.098H878.732V193.233H878.705V193.368H878.679V193.502H878.652V193.637H878.625V193.772H878.598V193.907H878.571V194.042H878.544V194.177H878.517V194.285H878.49V194.393H878.463V194.5H878.436V194.608H878.409V194.716H878.382V194.824H878.355V194.959H878.328V195.067H878.301V195.175H878.274V195.283H878.247V195.391H878.22V195.499H878.193V195.579H878.166V195.687H878.139V195.768H878.112V195.876H878.085V195.957H878.058V196.065H878.031V196.146H878.004V196.254H877.977V196.335H877.95V196.443H877.923V196.524H877.896V196.631H877.869V196.712H877.842V196.793H877.815V196.874H877.788V196.955H877.761V197.036H877.734V197.117H877.707V197.198H877.68V197.279H877.653V197.36H877.626V197.441H877.6V197.522H877.573V197.603H877.546V197.684H877.519V197.764H877.492V197.845H877.465V197.926H877.438V197.98H877.411V198.061H877.384V198.142H877.357V198.196H877.33V198.277H877.303V198.358H877.276V198.412H877.249V198.493H877.222V198.547H877.195V198.628H877.168V198.709H877.141V198.763H877.114V198.843H877.087V198.897H877.06V198.978H877.033V199.059H877.006V199.113H876.979V199.167H876.952V199.248H876.925V199.302H876.898V199.356H876.871V199.437H876.844V199.491H876.817V199.545H876.79V199.599H876.763V199.674H876.736V199.728H876.709V199.782H876.682V199.863H876.655V199.917H876.628V199.971H876.601V200.025H876.574V200.106H876.547V200.16H876.521V200.214H876.494V200.268H876.467V200.322H876.44V200.376H876.413V200.43H876.386V200.51H876.359V200.564H876.332V200.618H876.305V200.672H876.278V200.726H876.251V200.78H876.224V200.834H876.197V200.888H876.17V200.942H876.143V200.996H876.116V201.05H876.089V201.104H876.062V201.158H876.035V201.212H876.008V201.266H875.981V201.32H875.954V201.374H875.927V201.428H875.9V201.455H875.873V201.509H875.852V201.563H875.825V201.616H875.798V201.67H875.771V201.697H875.744V201.751H875.717V201.805H875.69V201.859H875.663V201.913H875.636V201.94H875.609V201.994H875.582V202.048H875.555V202.102H875.528V202.156H875.501V202.21H875.474V202.237H875.447V202.291H875.42V202.345H875.393V202.399H875.366V202.426H875.339V202.48H875.312V202.534H875.285V202.561H875.258V202.615H875.231V202.642H875.204V202.695H875.177V202.749H875.15V202.776H875.123V202.83H875.096V202.884H875.069V202.911H875.042V202.965H875.015V202.992H874.988V203.046H874.961V203.1H874.934V203.127H874.907V203.181H874.88V203.208H874.853V203.262H874.826V203.316H874.8V203.343H874.773V203.397H874.746V203.424H874.719V203.478H874.692V203.505H874.665V203.559H874.638V203.586H874.611V203.64H874.584V203.667H874.557V203.721H874.53V203.747H874.503V203.774H874.476V203.828H874.449V203.855H874.422V203.909H874.395V203.936H874.368V203.99H874.341V204.017H874.314V204.071H874.287V204.098H874.26V204.125H874.233V204.179H874.206V204.206H874.179V204.26H874.152V204.287H874.125V204.341H874.098V204.368H874.071V204.395H874.044V204.449H874.017V204.476H873.99V204.503H873.963V204.557H873.936V204.584H873.909V204.611H873.882V204.665H873.855V204.692H873.828V204.719H873.801V204.746H873.774V204.799H873.747V204.826H873.721V204.853H873.694V204.907H873.667V204.934H873.64V204.961H873.613V204.988H873.586V205.042H873.559V205.069H873.532V205.096H873.505V205.15H873.478V205.177H873.451V205.204H873.424V205.258H873.397V205.285H873.37V205.312H873.343V205.339H873.316V205.393H873.289V205.42H873.262V205.447H873.235V205.474H873.208V205.501H873.181V205.528H873.154V205.582H873.127V205.609H873.1V205.636H873.073V205.663H873.046V205.69H873.019V205.717H872.992V205.771H872.965V205.798H872.938V205.825H872.911V205.852H872.884V205.878H872.857V205.905H872.83V205.932H872.803V205.986H872.776V206.013H872.749V206.04H872.722V206.067H872.695V206.094H872.669V206.121H872.642V206.175H872.615V206.202H872.588V206.229H872.561V206.256H872.534V206.283H872.507V206.31H872.48V206.337H872.453V206.364H872.426V206.391H872.399V206.418H872.372V206.445H872.345V206.472H872.318V206.499H872.291V206.526H872.264V206.553H872.237V206.607H872.21V206.634H872.183V206.661H872.156V206.688H872.129V206.709H872.102V206.736H872.075V206.763H872.048V206.79H872.021V206.817H871.994V206.844H871.967V206.871H871.94V206.898H871.913V206.925H871.886V206.952H871.859V206.979H871.832V207.006H871.805V207.033H871.778V207.06H871.751V207.087H871.724V207.114H871.697V207.141H871.67V207.168H871.643V207.195H871.616V207.222H871.59V207.249H871.563V207.276H871.536V207.303H871.509V207.33H871.482V207.357H871.428V207.384H871.401V207.411H871.374V207.438H871.347V207.465H871.32V207.492H871.293V207.519H871.266V207.546H871.239V207.572H871.212V207.599H871.185V207.626H871.158V207.653H871.131V207.68H871.104V207.707H871.05V207.734H871.023V207.761H870.996V207.788H870.969V207.815H870.942V207.842H870.915V207.869H870.888V207.896H870.861V207.923H870.834V207.95H870.807V207.977H870.753V208.004H870.726V208.031H870.699V208.058H870.672V208.085H870.645V208.112H870.591V208.139H870.564V208.166H870.537V208.193H870.511V208.22H870.457V208.247H870.43V208.274H870.403V208.301H870.376V208.328H870.349V208.355H870.295V208.382H870.268V208.409H870.241V208.436H870.214V208.463H870.187V208.49H870.133V208.517H870.106V208.544H870.079V208.571H870.052V208.598H870.025V208.624H869.971V208.651H869.944V208.678H869.917V208.705H869.89V208.732H869.836V208.759H869.809V208.786H869.755V208.813H869.728V208.84H869.701V208.867H869.647V208.894H869.62V208.921H869.593V208.948H869.539V208.975H869.512V209.002H869.485V209.029H869.432V209.056H869.405V209.083H869.351V209.11H869.324V209.137H869.297V209.164H869.243V209.191H869.216V209.218H869.189V209.245H869.135V209.272H869.108V209.299H869.081V209.326H869.027V209.353H869V209.38H868.946V209.407H868.919V209.434H868.865V209.461H868.838V209.488H868.79V209.515H868.763V209.542H868.709V209.569H868.682V209.596H868.628V209.623H868.601V209.65H868.547V209.677H868.493V209.703H868.466V209.73H868.412V209.757H868.385V209.784H868.331V209.811H868.304V209.838H868.25V209.865H868.223V209.892H868.169V209.919H868.142V209.946H868.088V209.973H868.034V210H868.007V210.027H867.953V210.054H867.926V210.081H867.872V210.108H867.818V210.135H867.791V210.162H867.738V210.189H867.684V210.216H867.63V210.243H867.576V210.27H867.549V210.297H867.495V210.324H867.441V210.351H867.387V210.378H867.36V210.405H867.306V210.432H867.252V210.459H867.198V210.486H867.171V210.513H867.117V210.54H867.063V210.567H867.009V210.594H866.982V210.621H866.928V210.648H866.874V210.675H866.82V210.702H866.766V210.729H866.713V210.756H866.659V210.782H866.605V210.809H866.551V210.836H866.497V210.863H866.443V210.89H866.389V210.917H866.335V210.944H866.281V210.971H866.227V210.998H866.173V211.025H866.119V211.052H866.065V211.079H866.011V211.106H865.957V211.133H865.903V211.16H865.849V211.187H865.768V211.214H865.714V211.241H865.66V211.268H865.607V211.295H865.526V211.322H865.472V211.349H865.391V211.376H865.337V211.403H865.283V211.43H865.202V211.457H865.148V211.484H865.094V211.511H865.013V211.538H864.959V211.565H864.905V211.592H864.824V211.619H864.77V211.646H864.689V211.673H864.635V211.7H864.581V211.727H864.501V211.754H864.42V211.781H864.339V211.808H864.258V211.835H864.177V211.861H864.123V211.888H864.042V211.915H863.961V211.942H863.88V211.969H863.799V211.996H863.745V212.023H863.664V212.05H863.583V212.077H863.503V212.104H863.422V212.131H863.341V212.158H863.26V212.185H863.179V212.212H863.071V212.239H862.99V212.266H862.882V212.293H862.801V212.32H862.72V212.347H862.612V212.374H862.531V212.401H862.424V212.428H862.343V212.455H862.262V212.482H862.154V212.509H862.046V212.536H861.938V212.563H861.83V212.59H861.701V212.617H861.593V212.644H861.485V212.671H861.377V212.698H861.242V212.725H861.134V212.752H861.026V212.779H860.918V212.806H860.783V212.833H860.622V212.86H860.46V212.887H860.325V212.913H860.163V212.94H860.028V212.967H859.866V212.994H859.704V213.021H859.57V213.048H859.381V213.075H859.165V213.102H858.949V213.129H858.733V213.156H858.518V213.183H858.302V213.21H858.032V213.237H857.681V213.264H857.304V213.291H856.926V213.318H856.44V213.345H855.577V213.372" fill="url(#paint19_linear)"/>
<path d="M641.086 160.497C649.74 159.493 662.143 159.131 675.559 162.202C671.14 185.287 671.806 209.351 676.916 234.264H639.083C633.053 234.264 627.904 229.885 626.964 223.925C625.08 211.98 622.779 191.908 625.234 175.788C626.467 167.695 632.959 161.442 641.086 160.497Z" fill="url(#paint20_linear)"/>
<path d="M663.792 178.613H634.315C633.167 178.613 632.117 177.99 631.567 176.984C631.023 175.973 631.067 174.751 631.69 173.79C632.048 173.231 632.789 173.073 633.348 173.432C633.903 173.795 634.06 174.536 633.702 175.09C633.486 175.419 633.608 175.723 633.672 175.836C633.736 175.954 633.922 176.218 634.315 176.218H663.792C664.2 176.218 664.528 175.89 664.528 175.487V173.392C664.528 172.985 664.2 172.656 663.792 172.656H634.099C633.437 172.656 632.897 172.122 632.897 171.459C632.897 170.797 633.437 170.262 634.099 170.262H663.792C665.519 170.262 666.923 171.665 666.923 173.392V175.487C666.923 177.21 665.519 178.613 663.792 178.613Z" fill="#91B3FA"/>
<path d="M661.163 191.674H631.685C630.536 191.674 629.484 191.046 628.938 190.038C628.388 189.034 628.436 187.808 629.059 186.848C629.421 186.288 630.159 186.133 630.714 186.49C631.27 186.852 631.429 187.591 631.067 188.146C630.854 188.479 630.98 188.778 631.043 188.894C631.105 189.01 631.294 189.275 631.685 189.275H661.163C661.569 189.275 661.897 188.947 661.897 188.546V186.447C661.897 186.042 661.569 185.713 661.163 185.713H631.467C630.806 185.713 630.27 185.178 630.27 184.516C630.27 183.855 630.806 183.32 631.467 183.32H661.163C662.886 183.32 664.291 184.724 664.291 186.447V188.546C664.291 190.269 662.886 191.674 661.163 191.674Z" fill="#91B3FA"/>
<path d="M697.471 159.973C696.967 159.973 696.494 159.647 696.331 159.137C696.131 158.506 696.478 157.834 697.109 157.634L836.407 113.309C836.528 113.267 836.649 113.251 836.77 113.251C837.274 113.251 837.747 113.577 837.91 114.087C838.11 114.718 837.763 115.39 837.132 115.59L697.834 159.915C697.713 159.957 697.592 159.973 697.471 159.973Z" fill="url(#paint21_linear)"/>
<path d="M678.635 167.676C678.165 167.676 677.719 167.393 677.53 166.933C677.278 166.318 677.57 165.62 678.184 165.367L685.354 162.438C685.503 162.379 685.656 162.349 685.805 162.349C686.276 162.349 686.727 162.632 686.915 163.092C687.163 163.707 686.87 164.406 686.261 164.658L679.091 167.587C678.942 167.646 678.789 167.676 678.635 167.676Z" fill="url(#paint22_linear)"/>
<path d="M663.794 206.962H634.315C633.165 206.962 632.115 206.337 631.57 205.329C631.017 204.321 631.064 203.096 631.689 202.135C632.048 201.576 632.791 201.42 633.345 201.78C633.899 202.14 634.06 202.878 633.7 203.436C633.487 203.768 633.61 204.07 633.672 204.184C633.733 204.298 633.923 204.567 634.315 204.567H663.794C664.196 204.567 664.527 204.236 664.527 203.834V201.737C664.527 201.335 664.196 201.004 663.794 201.004H634.098C633.435 201.004 632.896 200.469 632.896 199.806C632.896 199.144 633.435 198.609 634.098 198.609H663.794C665.517 198.609 666.917 200.01 666.917 201.737V203.834C666.917 205.556 665.517 206.962 663.794 206.962Z" fill="#91B3FA"/>
<path d="M666.554 223.931H637.075C635.928 223.931 634.877 223.301 634.326 222.297C633.78 221.288 633.826 220.066 634.451 219.104C634.812 218.548 635.553 218.386 636.108 218.747C636.664 219.108 636.821 219.849 636.46 220.404C636.247 220.733 636.372 221.038 636.432 221.154C636.497 221.27 636.682 221.533 637.075 221.533H666.554C666.961 221.533 667.29 221.205 667.29 220.802V218.705C667.29 218.298 666.961 217.97 666.554 217.97H636.858C636.196 217.97 635.659 217.437 635.659 216.775C635.659 216.114 636.196 215.577 636.858 215.577H666.554C668.28 215.577 669.682 216.979 669.682 218.705V220.802C669.682 222.529 668.28 223.931 666.554 223.931Z" fill="#91B3FA"/>
<path d="M692.881 316.202C691.49 316.202 690.087 316.052 688.683 315.747C682.556 314.414 677.564 310.371 674.99 304.659L651.44 252.333C651.167 251.733 651.44 251.026 652.041 250.753C652.641 250.483 653.352 250.748 653.625 251.353L677.175 303.675C679.431 308.689 683.814 312.234 689.195 313.408C694.479 314.56 699.829 313.192 703.868 309.656C704.089 309.466 704.309 309.263 704.534 309.064C705.02 308.619 705.775 308.649 706.221 309.139C706.671 309.625 706.636 310.384 706.15 310.83C705.912 311.046 705.682 311.254 705.448 311.461C701.904 314.56 697.476 316.202 692.881 316.202Z" fill="#91B3FA"/>
<path d="M649.052 245.305C648.594 245.305 648.157 245.044 647.96 244.599L645.333 238.761C645.059 238.158 645.328 237.452 645.931 237.178C646.534 236.908 647.244 237.178 647.514 237.78L650.141 243.618C650.415 244.221 650.145 244.927 649.543 245.201C649.381 245.273 649.214 245.305 649.052 245.305Z" fill="#91B3FA"/>
<path d="M875.062 185.713C874.438 185.713 873.911 185.235 873.868 184.6C873.352 177.359 870.858 171.961 866.444 168.569C858.799 162.687 847.8 164.703 847.687 164.725C847.036 164.849 846.413 164.424 846.289 163.773C846.166 163.123 846.585 162.499 847.235 162.37C847.73 162.279 859.38 160.123 867.89 166.66C872.879 170.488 875.691 176.466 876.255 184.434C876.304 185.09 875.809 185.665 875.148 185.713C875.116 185.713 875.089 185.713 875.062 185.713Z" fill="#91B3FA"/>
<path d="M674.378 250.645C674.378 250.645 683.972 242.506 691.468 250.645C698.968 258.789 700.45 273.005 698.924 273.697C697.398 274.389 651.042 262.878 674.378 250.645Z" fill="url(#paint23_linear)"/>
<defs>
<linearGradient id="paint0_linear" x1="1134.94" y1="-247.037" x2="958.387" y2="9.76752" gradientUnits="userSpaceOnUse">
<stop stop-color="#89A0A7"/>
<stop offset="1" stop-color="#848F93"/>
</linearGradient>
<linearGradient id="paint1_linear" x1="600.101" y1="956.826" x2="727.661" y2="734.219" gradientUnits="userSpaceOnUse">
<stop stop-color="#09005D"/>
<stop offset="1" stop-color="#1A0F91"/>
</linearGradient>
<linearGradient id="paint2_linear" x1="691.441" y1="641.257" x2="679.312" y2="747.112" gradientUnits="userSpaceOnUse">
<stop stop-color="#FEBBBA"/>
<stop offset="1" stop-color="#FF928E"/>
</linearGradient>
<linearGradient id="paint3_linear" x1="805.554" y1="1014.21" x2="954.674" y2="753.988" gradientUnits="userSpaceOnUse">
<stop stop-color="#09005D"/>
<stop offset="1" stop-color="#1A0F91"/>
</linearGradient>
<linearGradient id="paint4_linear" x1="903.543" y1="607.07" x2="889.674" y2="728.102" gradientUnits="userSpaceOnUse">
<stop stop-color="#FEBBBA"/>
<stop offset="1" stop-color="#FF928E"/>
</linearGradient>
<linearGradient id="paint5_linear" x1="935.767" y1="263.903" x2="489.461" y2="956.45" gradientUnits="userSpaceOnUse">
<stop stop-color="#09005D"/>
<stop offset="1" stop-color="#1A0F91"/>
</linearGradient>
<linearGradient id="paint6_linear" x1="998.119" y1="-276.824" x2="538.338" y2="732.136" gradientUnits="userSpaceOnUse">
<stop stop-color="#869EA5"/>
<stop offset="1" stop-color="#89A0A7"/>
</linearGradient>
<linearGradient id="paint7_linear" x1="986.197" y1="-524.205" x2="1039.39" y2="-360.219" gradientUnits="userSpaceOnUse">
<stop stop-color="#FEBBBA"/>
<stop offset="1" stop-color="#FF928E"/>
</linearGradient>
<linearGradient id="paint8_linear" x1="1115.55" y1="-620.237" x2="1085.41" y2="-415.62" gradientUnits="userSpaceOnUse">
<stop stop-color="#FEBBBA"/>
<stop offset="1" stop-color="#FF928E"/>
</linearGradient>
<linearGradient id="paint9_linear" x1="1077.48" y1="-577.716" x2="1211.44" y2="-651.07" gradientUnits="userSpaceOnUse">
<stop stop-color="#09005D"/>
<stop offset="1" stop-color="#1A0F91"/>
</linearGradient>
<linearGradient id="paint10_linear" x1="3512.32" y1="1464.33" x2="3649.47" y2="1571.57" gradientUnits="userSpaceOnUse">
<stop stop-color="#FEBBBA"/>
<stop offset="1" stop-color="#FF928E"/>
</linearGradient>
<linearGradient id="paint11_linear" x1="1152.18" y1="-418.919" x2="600.868" y2="19.6986" gradientUnits="userSpaceOnUse">
<stop stop-color="#86989D"/>
<stop offset="1" stop-color="#747C7E"/>
</linearGradient>
<linearGradient id="paint12_linear" x1="788.399" y1="211.516" x2="755.421" y2="270.206" gradientUnits="userSpaceOnUse">
<stop stop-color="#09005D"/>
<stop offset="1" stop-color="#1A0F91"/>
</linearGradient>
<linearGradient id="paint13_linear" x1="619.834" y1="241.674" x2="728.897" y2="241.674" gradientUnits="userSpaceOnUse">
<stop stop-color="#FEBBBA"/>
<stop offset="1" stop-color="#FF928E"/>
</linearGradient>
<linearGradient id="paint14_linear" x1="1053.7" y1="-117.266" x2="1100.75" y2="-48.4456" gradientUnits="userSpaceOnUse">
<stop stop-color="#FEBBBA"/>
<stop offset="1" stop-color="#FF928E"/>
</linearGradient>
<linearGradient id="paint15_linear" x1="1064.83" y1="-124.118" x2="1175.05" y2="-271.975" gradientUnits="userSpaceOnUse">
<stop stop-color="#09005D"/>
<stop offset="1" stop-color="#1A0F91"/>
</linearGradient>
<linearGradient id="paint16_linear" x1="1295.49" y1="-392.846" x2="1648.91" y2="-599.936" gradientUnits="userSpaceOnUse">
<stop stop-color="#FF7247"/>
<stop offset="1" stop-color="#FC9677"/>
</linearGradient>
<linearGradient id="paint17_linear" x1="1898.66" y1="-668.668" x2="1660.52" y2="-569.442" gradientUnits="userSpaceOnUse">
<stop stop-color="#FEBBBA"/>
<stop offset="1" stop-color="#FF928E"/>
</linearGradient>
<linearGradient id="paint18_linear" x1="1480.78" y1="-450.119" x2="1758.38" y2="-618.662" gradientUnits="userSpaceOnUse">
<stop stop-color="#FF928E"/>
<stop offset="1" stop-color="#FE7062"/>
</linearGradient>
<linearGradient id="paint19_linear" x1="1791.11" y1="-603.642" x2="1534.37" y2="-588.911" gradientUnits="userSpaceOnUse">
<stop stop-color="#4053F3"/>
<stop offset="1" stop-color="#4053F3"/>
</linearGradient>
<linearGradient id="paint20_linear" x1="1202.19" y1="-395.876" x2="1193.47" y2="-615.456" gradientUnits="userSpaceOnUse">
<stop stop-color="#09005D"/>
<stop offset="1" stop-color="#1A0F91"/>
</linearGradient>
<linearGradient id="paint21_linear" x1="1276.4" y1="-372.768" x2="1624.61" y2="-576.806" gradientUnits="userSpaceOnUse">
<stop stop-color="#FFDBDA"/>
<stop offset="1" stop-color="#FFD0CB"/>
</linearGradient>
<linearGradient id="paint22_linear" x1="1203.25" y1="-295.819" x2="1531.51" y2="-488.162" gradientUnits="userSpaceOnUse">
<stop stop-color="#FFDBDA"/>
<stop offset="1" stop-color="#FFD0CB"/>
</linearGradient>
<linearGradient id="paint23_linear" x1="1098.96" y1="-197.744" x2="1151.03" y2="-197.744" gradientUnits="userSpaceOnUse">
<stop stop-color="#FEBBBA"/>
<stop offset="1" stop-color="#FF928E"/>
</linearGradient>
</defs>
</svg>
