<svg width="925" height="937" viewBox="0 0 925 937" fill="none" xmlns="http://www.w3.org/2000/svg">
<path d="M792.485 727.13H315.817L293.929 275.254L293.08 257.72L286.347 118.728C285.652 104.724 296.825 93 310.832 93C310.882 93 310.936 93 310.986 93L398.405 93.5386L739.329 95.6242L789.936 151.509L818.948 183.557L815.997 244.193L815.164 261.275L792.485 727.13ZM370.183 658.315C360.174 658.315 352.061 663.719 352.061 670.39C352.061 677.067 360.174 682.47 370.183 682.47H716.149C726.16 682.47 734.273 677.067 734.273 670.39C734.273 663.719 726.16 658.315 716.149 658.315H370.183ZM370.183 611.099C360.174 611.099 352.061 616.509 352.061 623.179C352.061 629.85 360.174 635.254 370.183 635.254H716.149C726.16 635.254 734.273 629.85 734.273 623.179C734.273 616.509 726.16 611.099 716.149 611.099H370.183ZM370.183 563.889C360.174 563.889 352.061 569.292 352.061 575.963C352.061 582.634 360.174 588.044 370.183 588.044H716.149C726.16 588.044 734.273 582.634 734.273 575.963C734.273 569.292 726.16 563.889 716.149 563.889H370.183ZM370.183 490.323C360.174 490.323 352.061 495.727 352.061 502.397C352.061 509.068 360.174 514.478 370.183 514.478H716.149C726.16 514.478 734.273 509.068 734.273 502.397C734.273 495.727 726.16 490.323 716.149 490.323H370.183ZM370.183 443.106C360.174 443.106 352.061 448.514 352.061 455.184C352.061 461.855 360.174 467.262 370.183 467.262H716.149C726.16 467.262 734.273 461.855 734.273 455.184C734.273 448.514 726.16 443.106 716.149 443.106H370.183ZM370.183 395.893C360.174 395.893 352.061 401.299 352.061 407.971C352.061 414.641 360.174 420.049 370.183 420.049H716.149C726.16 420.049 734.273 414.641 734.273 407.971C734.273 401.299 726.16 395.893 716.149 395.893H370.183ZM484.222 322.327C477.349 322.327 471.78 327.734 471.78 334.404C471.78 341.075 477.349 346.482 484.222 346.482H721.825C728.698 346.482 734.273 341.075 734.273 334.404C734.273 327.734 728.698 322.327 721.825 322.327H484.222ZM484.222 275.112C477.349 275.112 471.78 280.52 471.78 287.19C471.78 293.861 477.349 299.268 484.222 299.268H721.825C728.698 299.268 734.273 293.861 734.273 287.19C734.273 280.52 728.698 275.112 721.825 275.112H484.222ZM484.222 227.899C477.349 227.899 471.78 233.306 471.78 239.976C471.78 246.647 477.349 252.054 484.222 252.054H721.825C728.698 252.054 734.273 246.647 734.273 239.976C734.273 233.306 728.698 227.899 721.825 227.899H484.222ZM483.858 172.997C477.18 172.997 471.78 178.402 471.78 185.079C471.78 191.749 477.18 197.154 483.858 197.154H714.502C721.174 197.154 726.58 191.749 726.58 185.079C726.58 178.402 721.174 172.997 714.502 172.997H483.858Z" fill="url(#paint0_linear)"/>
<path d="M757.137 180.949C743.184 180.461 732.458 168.435 733.56 154.523L738.147 96.4292L819.032 183.198L757.137 180.949Z" fill="url(#paint1_linear)"/>
<path d="M482.924 197.172V197.113H482.33V197.053H481.973V196.994H481.556V196.934H481.259V196.875H481.021V196.816H480.783V196.756H480.545V196.697H480.308V196.637H480.129V196.578H479.951V196.518H479.832V196.459H479.653V196.399H479.475V196.34H479.356V196.28H479.178V196.221H479.059V196.162H478.88V196.102H478.761V196.043H478.642V195.983H478.524V195.924H478.405V195.864H478.286V195.805H478.167V195.745H478.048V195.686H477.929V195.626H477.869V195.567H477.75V195.508H477.632V195.448H477.572V195.389H477.453V195.329H477.334V195.27H477.275V195.21H477.156V195.151H477.096V195.091H476.977V195.032H476.918V194.973H476.858V194.913H476.739V194.854H476.68V194.794H476.621V194.735H476.502V194.675H476.442V194.616H476.383V194.556H476.264V194.497H476.204V194.437H476.145V194.378H476.026V194.319H475.966V194.259H475.907V194.2H475.847V194.14H475.788V194.081H475.729V194.021H475.669V193.962H475.61V193.902H475.55V193.843H475.491V193.783H475.372V193.724H475.312V193.665H475.253V193.605H475.193V193.546H475.134V193.427H475.074V193.367H475.015V193.308H474.955V193.248H474.896V193.189H474.836V193.13H474.777V193.07H474.718V193.011H474.658V192.951H474.599V192.892H474.539V192.773H474.48V192.713H474.42V192.654H474.361V192.535H474.301V192.476H474.242V192.416H474.182V192.297H474.123V192.238H474.063V192.178H474.004V192.059H473.944V192H473.885V191.94H473.826V191.822H473.766V191.762H473.707V191.643H473.647V191.524H473.588V191.465H473.528V191.346H473.469V191.227H473.409V191.168H473.35V191.049H473.29V190.989H473.231V190.87H473.171V190.751H473.112V190.633H473.052V190.514H472.993V190.395H472.934V190.216H472.874V190.097H472.815V189.979H472.755V189.86H472.696V189.741H472.636V189.562H472.577V189.384H472.517V189.265H472.458V189.087H472.398V188.908H472.339V188.73H472.279V188.552H472.22V188.314H472.16V188.076H472.101V187.838H472.041V187.601H471.982V187.303H471.923V186.887H471.863V186.53H471.804V185.876H471.744V184.271H471.804V183.617H471.863V183.261H471.923V182.844H471.982V182.547H472.041V182.309H472.101V182.072H472.16V181.834H472.22V181.596H472.279V181.418H472.339V181.239H472.398V181.061H472.458V180.882H472.517V180.764H472.577V180.585H472.636V180.407H472.696V180.288H472.755V180.169H472.815V180.05H472.874V179.931H472.934V179.812H472.993V179.634H473.052V179.515H473.112V179.396H473.171V179.277H473.231V179.218H473.29V179.099H473.35V178.98H473.409V178.921H473.469V178.802H473.528V178.683H473.588V178.623H473.647V178.504H473.707V178.385H473.766V178.326H473.826V178.207H473.885V178.148H473.944V178.088H474.004V177.969H474.063V177.91H474.123V177.85H474.182V177.732H474.242V177.672H474.301V177.613H474.361V177.494H474.42V177.434H474.48V177.375H474.539V177.315H474.599V177.196H474.658V177.137H474.718V177.078H474.777V177.018H474.836V176.959H474.896V176.899H474.955V176.84H475.015V176.78H475.074V176.721H475.134V176.661H475.193V176.542H475.253V176.483H475.312V176.424H475.431V176.364H475.491V176.305H475.55V176.245H475.61V176.186H475.669V176.126H475.729V176.067H475.788V176.007H475.847V175.948H475.907V175.889H475.966V175.829H476.085V175.77H476.145V175.71H476.204V175.651H476.264V175.591H476.383V175.532H476.442V175.472H476.502V175.413H476.621V175.353H476.68V175.294H476.739V175.235H476.858V175.175H476.918V175.116H476.977V175.056H477.096V174.997H477.156V174.937H477.275V174.878H477.394V174.818H477.453V174.759H477.572V174.699H477.691V174.64H477.75V174.581H477.869V174.521H477.929V174.462H478.048V174.402H478.167V174.343H478.286V174.283H478.405V174.224H478.524V174.164H478.642V174.105H478.821V174.046H478.94V173.986H479.059V173.927H479.178V173.867H479.356V173.808H479.475V173.748H479.653V173.689H479.832V173.629H480.01V173.57H480.129V173.51H480.367V173.451H480.605V173.392H480.783V173.332H481.021V173.273H481.259V173.213H481.556V173.154H481.973V173.094H482.389V173.035H482.984V172.975H715.386V173.035H715.981V173.094H716.397V173.154H716.754V173.213H717.051V173.273H717.289V173.332H717.527V173.392H717.765V173.451H718.003V173.51H718.181V173.57H718.36V173.629H718.538V173.689H718.717V173.748H718.836V173.808H719.014V173.867H719.192V173.927H719.311V173.986H719.43V174.046H719.549V174.105H719.668V174.164H719.787V174.224H719.906V174.283H720.025V174.343H720.203V174.402H720.322V174.462H720.382V174.521H720.501V174.581H720.62V174.64H720.679V174.699H720.798V174.759H720.857V174.818H720.976V174.878H721.095V174.937H721.155V174.997H721.274V175.056H721.333V175.116H721.452V175.175H721.512V175.235H721.571V175.294H721.69V175.353H721.749V175.413H721.809V175.472H721.928V175.532H721.987V175.591H722.047V175.651H722.166V175.71H722.225V175.77H722.285V175.829H722.344V175.889H722.404V175.948H722.463V176.007H722.582V176.067H722.642V176.126H722.701V176.186H722.76V176.245H722.82V176.305H722.879V176.364H722.939V176.424H722.998V176.483H723.058V176.542H723.117V176.602H723.177V176.661H723.236V176.721H723.296V176.78H723.355V176.84H723.415V176.899H723.474V176.959H723.534V177.018H723.593V177.137H723.652V177.196H723.712V177.256H723.771V177.315H723.831V177.375H723.89V177.434H723.95V177.553H724.009V177.613H724.069V177.672H724.128V177.791H724.188V177.85H724.247V177.91H724.307V178.029H724.366V178.088H724.426V178.148H724.485V178.267H724.545V178.326H724.604V178.445H724.663V178.564H724.723V178.623H724.782V178.742H724.842V178.802H724.901V178.921H724.961V179.039H725.02V179.099H725.08V179.218H725.139V179.337H725.199V179.456H725.258V179.575H725.318V179.693H725.377V179.812H725.437V179.931H725.496V180.05H725.555V180.169H725.615V180.288H725.674V180.466H725.734V180.645H725.793V180.764H725.853V180.942H725.912V181.12H725.972V181.299H726.031V181.418H726.091V181.655H726.15V181.893H726.21V182.131H726.269V182.369H726.329V182.607H726.388V182.963H726.448V183.379H726.507V183.736H726.566V184.568H726.626V185.579H726.566V186.411H726.507V186.768H726.448V187.184H726.388V187.541H726.329V187.779H726.269V188.017H726.21V188.254H726.15V188.492H726.091V188.73H726.031V188.849H725.972V189.027H725.912V189.206H725.853V189.384H725.793V189.503H725.734V189.681H725.674V189.86H725.615V189.979H725.555V190.097H725.496V190.216H725.437V190.335H725.377V190.454H725.318V190.573H725.258V190.692H725.199V190.811H725.139V190.93H725.08V191.049H725.02V191.108H724.961V191.227H724.901V191.346H724.842V191.405H724.782V191.524H724.723V191.643H724.663V191.703H724.604V191.822H724.545V191.881H724.485V192H724.426V192.059H724.366V192.119H724.307V192.238H724.247V192.297H724.188V192.357H724.128V192.476H724.069V192.535H724.009V192.594H723.95V192.713H723.89V192.773H723.831V192.832H723.771V192.892H723.712V192.951H723.652V193.011H723.593V193.13H723.534V193.189H723.474V193.248H723.415V193.308H723.355V193.367H723.296V193.427H723.236V193.486H723.177V193.546H723.117V193.605H723.058V193.665H722.998V193.724H722.939V193.783H722.879V193.843H722.82V193.902H722.76V193.962H722.701V194.021H722.642V194.081H722.582V194.14H722.523V194.2H722.404V194.259H722.344V194.319H722.285V194.378H722.225V194.437H722.166V194.497H722.106V194.556H721.987V194.616H721.928V194.675H721.868V194.735H721.749V194.794H721.69V194.854H721.631V194.913H721.512V194.973H721.452V195.032H721.333V195.091H721.274V195.151H721.214V195.21H721.095V195.27H720.976V195.329H720.917V195.389H720.798V195.448H720.679V195.508H720.62V195.567H720.501V195.626H720.382V195.686H720.322V195.745H720.203V195.805H720.084V195.864H719.965V195.924H719.787V195.983H719.668V196.043H719.549V196.102H719.43V196.162H719.311V196.221H719.192V196.28H719.014V196.34H718.836V196.399H718.717V196.459H718.538V196.518H718.36V196.578H718.241V196.637H718.003V196.697H717.765V196.756H717.527V196.816H717.349V196.875H717.111V196.934H716.814V196.994H716.397V197.053H716.041V197.113H715.446V197.172" fill="url(#paint2_linear)"/>
<path d="M721.822 252.052H484.222C477.348 252.052 471.775 246.648 471.775 239.977C471.775 233.307 477.348 227.897 484.222 227.897H721.822C728.697 227.897 734.269 233.307 734.269 239.977C734.269 246.648 728.697 252.052 721.822 252.052Z" fill="url(#paint3_linear)"/>
<path d="M721.822 299.268H484.222C477.348 299.268 471.775 293.861 471.775 287.19C471.775 280.519 477.348 275.112 484.222 275.112H721.822C728.697 275.112 734.269 280.519 734.269 287.19C734.269 293.861 728.697 299.268 721.822 299.268Z" fill="url(#paint4_linear)"/>
<path d="M721.822 346.482H484.222C477.348 346.482 471.775 341.075 471.775 334.404C471.775 327.733 477.348 322.326 484.222 322.326H721.822C728.697 322.326 734.269 327.733 734.269 334.404C734.269 341.075 728.697 346.482 721.822 346.482Z" fill="url(#paint5_linear)"/>
<path d="M716.149 420.048H370.181C360.172 420.048 352.059 414.641 352.059 407.97C352.059 401.299 360.172 395.893 370.181 395.893H716.149C726.157 395.893 734.269 401.299 734.269 407.97C734.269 414.641 726.157 420.048 716.149 420.048Z" fill="url(#paint6_linear)"/>
<path d="M716.149 467.263H370.181C360.172 467.263 352.059 461.855 352.059 455.184C352.059 448.514 360.172 443.106 370.181 443.106H716.149C726.157 443.106 734.269 448.514 734.269 455.184C734.269 461.855 726.157 467.263 716.149 467.263Z" fill="url(#paint7_linear)"/>
<path d="M716.149 514.478H370.181C360.172 514.478 352.059 509.068 352.059 502.397C352.059 495.727 360.172 490.323 370.181 490.323H716.149C726.157 490.323 734.269 495.727 734.269 502.397C734.269 509.068 726.157 514.478 716.149 514.478Z" fill="url(#paint8_linear)"/>
<path d="M716.149 588.043H370.181C360.172 588.043 352.059 582.633 352.059 575.963C352.059 569.292 360.172 563.888 370.181 563.888H716.149C726.157 563.888 734.269 569.292 734.269 575.963C734.269 582.633 726.157 588.043 716.149 588.043Z" fill="url(#paint9_linear)"/>
<path d="M716.149 635.254H370.181C360.172 635.254 352.059 629.85 352.059 623.179C352.059 616.509 360.172 611.099 370.181 611.099H716.149C726.157 611.099 734.269 616.509 734.269 623.179C734.269 629.85 726.157 635.254 716.149 635.254Z" fill="url(#paint10_linear)"/>
<path d="M716.149 682.47H370.181C360.172 682.47 352.059 677.066 352.059 670.39C352.059 663.719 360.172 658.315 370.181 658.315H716.149C726.157 658.315 734.269 663.719 734.269 670.39C734.269 677.066 726.157 682.47 716.149 682.47Z" fill="url(#paint11_linear)"/>
<path d="M422.576 346.482H255.178C242.566 346.482 232.342 336.261 232.342 323.652V171.673C232.342 159.064 242.566 148.844 255.178 148.844H422.576C435.189 148.844 445.412 159.064 445.412 171.673V323.652C445.412 336.261 435.189 346.482 422.576 346.482Z" fill="#C9C9CA"/>
<path d="M355.968 256.077L341.694 209.205C340.819 206.328 336.735 206.358 335.907 209.247C332.15 222.374 325.355 244.442 321.756 256.053C320.575 259.87 323.428 263.729 327.421 263.729H350.297C354.277 263.729 357.127 259.882 355.968 256.077ZM401.489 323.853H383.568C379.635 323.853 376.153 321.312 374.955 317.566L367.61 294.603C366.738 291.877 364.204 290.027 361.342 290.027H316.872C314.002 290.027 311.464 291.885 310.597 294.62L303.338 317.542C302.148 321.299 298.66 323.853 294.717 323.853H277.13C270.854 323.853 266.487 317.617 268.633 311.721L314.086 186.893C317.386 177.827 326.004 171.792 335.652 171.792H344.01C353.72 171.792 362.38 177.904 365.634 187.054L410.011 311.783C412.104 317.669 407.739 323.853 401.489 323.853Z" fill="white"/>
<path d="M246.619 278.955H245.521V186.941C245.521 175.015 255.226 165.312 267.156 165.312H306.478V166.412H267.156C255.832 166.412 246.619 175.621 246.619 186.941V278.955Z" fill="#BDD0FB"/>
<path d="M231.779 769.704C230.168 769.704 228.745 768.663 228.468 767.201L176.176 490.471C175.868 488.836 177.101 487.29 178.932 487.011C180.763 486.737 182.497 487.837 182.806 489.472L235.098 766.202C235.406 767.837 234.173 769.383 232.342 769.662C232.153 769.692 231.964 769.704 231.779 769.704Z" fill="url(#paint12_linear)"/>
<path d="M55.3657 769.704C55.1456 769.704 54.922 769.686 54.6978 769.644C52.8781 769.317 51.7 767.73 52.067 766.107L113.71 492.98C114.077 491.357 115.846 490.293 117.67 490.632C119.489 490.958 120.667 492.54 120.3 494.163L58.6578 767.296C58.3361 768.717 56.9338 769.704 55.3657 769.704Z" fill="url(#paint13_linear)"/>
<path d="M191.88 558.859H102.519C100.663 558.859 99.1582 557.515 99.1582 555.856C99.1582 554.198 100.663 552.854 102.519 552.854H191.88C193.736 552.854 195.241 554.198 195.241 555.856C195.241 557.515 193.736 558.859 191.88 558.859Z" fill="url(#paint14_linear)"/>
<path d="M190.257 558.859H104.14C102.351 558.859 100.9 557.515 100.9 555.856C100.9 554.198 102.351 552.854 104.14 552.854H190.257C192.046 552.854 193.497 554.198 193.497 555.856C193.497 557.515 192.046 558.859 190.257 558.859Z" fill="url(#paint15_linear)"/>
<path d="M191.88 608.893H102.519C100.663 608.893 99.1582 607.549 99.1582 605.891C99.1582 604.232 100.663 602.888 102.519 602.888H191.88C193.736 602.888 195.241 604.232 195.241 605.891C195.241 607.549 193.736 608.893 191.88 608.893Z" fill="url(#paint16_linear)"/>
<path d="M199.991 608.893H91.6547C89.7981 608.893 88.293 607.549 88.293 605.891C88.293 604.232 89.7981 602.888 91.6547 602.888H199.991C201.847 602.888 203.353 604.232 203.353 605.891C203.353 607.549 201.847 608.893 199.991 608.893Z" fill="url(#paint17_linear)"/>
<path d="M191.88 658.933H102.519C100.663 658.933 99.1582 657.59 99.1582 655.931C99.1582 654.272 100.663 652.929 102.519 652.929H191.88C193.736 652.929 195.241 654.272 195.241 655.931C195.241 657.59 193.736 658.933 191.88 658.933Z" fill="url(#paint18_linear)"/>
<path d="M210.341 658.933H80.6625C78.8059 658.933 77.3008 657.59 77.3008 655.931C77.3008 654.272 78.8059 652.929 80.6625 652.929H210.341C212.197 652.929 213.702 654.272 213.702 655.931C213.702 657.59 212.197 658.933 210.341 658.933Z" fill="url(#paint19_linear)"/>
<path d="M191.88 708.968H70.2387C68.3821 708.968 66.877 707.624 66.877 705.965C66.877 704.307 68.3821 702.963 70.2387 702.963H191.88C193.736 702.963 195.241 704.307 195.241 705.965C195.241 707.624 193.736 708.968 191.88 708.968Z" fill="url(#paint20_linear)"/>
<path d="M218.712 708.968H70.2387C68.3821 708.968 66.877 707.624 66.877 705.965C66.877 704.307 68.3821 702.963 70.2387 702.963H218.712C220.568 702.963 222.074 704.307 222.074 705.965C222.074 707.624 220.568 708.968 218.712 708.968Z" fill="url(#paint21_linear)"/>
<path d="M111.486 540.987C111.486 540.987 109.305 544.424 108.757 554.049C108.705 554.947 109.416 555.708 110.314 555.708H127.37C128.056 555.708 128.546 555.036 128.326 554.388C127.327 551.427 124.305 544.216 117.562 540.096L111.486 540.987Z" fill="url(#paint22_linear)"/>
<path d="M110.744 534.471L111.709 542.557C111.793 543.252 112.339 543.811 113.037 543.894C113.97 544.001 115.326 544.079 116.644 543.859C117.842 543.663 118.704 542.592 118.704 541.38V533.574L110.744 534.471Z" fill="url(#paint23_linear)"/>
<path d="M153.686 540.096C153.686 540.096 150.422 545.173 150.491 552.135C150.508 553.775 151.882 555.077 153.522 555.077H180.012C181.252 555.077 181.756 553.49 180.741 552.777C175.728 549.257 165.876 542.682 158.75 540.096H153.686Z" fill="url(#paint24_linear)"/>
<path d="M150.957 531.362L153.014 541.35C153.244 542.468 154.338 543.223 155.451 542.973C156.128 542.818 156.926 542.533 157.78 541.998C158.59 541.493 159.001 540.529 158.836 539.584L156.708 527.486L150.957 531.362Z" fill="url(#paint25_linear)"/>
<path d="M114.524 392.507C114.524 392.507 107.369 398.813 106.023 406.4C104.677 413.986 109.838 537.295 109.838 537.295C109.838 537.295 116.992 538.484 120.679 536.249C120.679 536.249 125.054 456.224 128.379 437.732C128.379 437.732 145.816 520.631 150.647 535.607C150.647 535.607 157.539 536.445 159.762 535.137C159.762 535.137 155.194 427.677 149.455 408.573L114.524 392.507Z" fill="url(#paint26_linear)"/>
<path d="M128.169 435.178C127.802 435.178 127.468 434.933 127.372 434.562L124.414 423.219L118.12 419.183C117.737 418.938 117.625 418.428 117.871 418.045C118.116 417.664 118.628 417.551 119.009 417.797L125.574 422.007C125.748 422.118 125.874 422.291 125.927 422.492L128.966 434.147C129.08 434.587 128.816 435.037 128.376 435.151C128.307 435.17 128.237 435.178 128.169 435.178Z" fill="url(#paint27_linear)"/>
<path d="M185.127 321.257C155.009 318.757 147.137 324.989 147.137 324.989L161.611 347.832C161.611 347.832 191.205 347.247 212.409 330.908C208.441 326.635 205.685 321.914 203.917 318.237C198.449 320.508 192.152 321.84 185.127 321.257Z" fill="url(#paint28_linear)"/>
<path d="M232.292 277.061C232.251 276.096 230.943 275.833 230.533 276.708L226.69 284.906C225.947 286.491 225.71 288.264 226.008 289.988L227.356 294.76C227.759 297.087 227.152 299.471 225.676 301.315C222.145 305.729 214.624 313.789 203.918 318.237C205.685 321.914 208.442 326.635 212.41 330.908C220.191 324.913 226.844 316.8 230.489 305.812C232.235 305.276 233.402 303.632 233.333 301.806L232.292 277.061Z" fill="url(#paint29_linear)"/>
<path d="M195.041 334.501C184.439 323.079 164.243 317.919 152.55 315.8C147.428 314.871 142.378 317.72 140.563 322.599C135.301 336.74 120.99 373.53 118.216 379.852C115.941 385.039 113.565 390.106 112.055 393.274C111.153 395.165 111.941 397.43 113.829 398.34C123.667 403.081 141.369 408.444 148.545 410.536C150.124 410.996 151.696 409.811 151.696 408.168C151.696 406.774 152.075 405.405 152.792 404.21L179.971 358.931C196.912 377.709 211.747 379.427 223.144 375.316C221.228 369.396 219.973 363.464 219.372 357.521C202.535 354.638 195.041 334.501 195.041 334.501Z" fill="url(#paint30_linear)"/>
<path d="M247.201 354.37L244.163 350.32C234.326 357.073 226.104 358.674 219.373 357.521C219.974 363.464 221.228 369.396 223.145 375.316C238.158 369.901 247.201 354.37 247.201 354.37Z" fill="url(#paint31_linear)"/>
<path d="M245.056 354.443L262.174 355.11L277.935 346.31C275.673 344.892 262.88 347.79 262.88 347.79C262.88 347.79 249.506 345.769 245.886 345.763C242.88 345.76 243.309 350.081 243.542 351.546C243.589 351.845 243.628 352.025 243.628 352.025L245.056 354.443Z" fill="url(#paint32_linear)"/>
<path d="M168.634 294.823L159.602 316.856C159.602 316.856 169.979 324.037 178.328 323.354L182.836 303.542L168.634 294.823Z" fill="url(#paint33_linear)"/>
<path d="M183.889 279.803C184.096 280.096 190.423 302.946 190.423 302.946L177.295 306.281L168.08 285.513C168.08 285.513 180.426 274.898 183.889 279.803Z" fill="url(#paint34_linear)"/>
<path d="M173.022 288.669L177.017 299.981C177.068 300.126 177.136 300.26 177.225 300.386C177.767 301.156 179.827 303.669 182.269 301.405C184.486 299.351 186.539 297.511 188.436 297.176C189.287 297.026 190.112 297.546 190.342 298.379C190.917 300.455 192.125 305.157 192.55 309.403C192.637 310.265 192.041 311.044 191.19 311.205C188.627 311.692 183.19 312.567 178.651 312.247C178.037 312.204 177.495 311.835 177.239 311.275C175.988 308.542 172.156 300.252 170.731 298.107C169.393 296.094 166.114 296.151 164.738 296.272C164.287 296.313 163.844 296.167 163.504 295.869C162.301 294.814 160.01 292.122 163.231 288.9C163.906 288.225 163.888 287.137 163.193 286.484C161.809 285.184 160.33 282.878 162.635 280.017C164.977 277.11 168.07 277.573 169.964 278.264C170.73 278.544 171.566 278.22 171.983 277.519C172.219 277.12 172.633 276.818 173.35 276.88C174.317 276.962 175.129 276.156 175.112 275.187C175.079 273.324 175.745 270.971 178.977 269.966C184.712 268.181 188.288 273.72 188.642 277.853C188.997 281.986 182.669 283.567 178.948 283.288C176.119 283.076 174.019 285.879 173.174 287.236C172.907 287.665 172.853 288.191 173.022 288.669Z" fill="url(#paint35_linear)"/>
<path d="M172.228 302.211C172.228 302.211 171.301 295.037 168.315 294.685C165.33 294.334 162.424 296.787 165.392 300.814C169.084 305.823 172.228 302.211 172.228 302.211Z" fill="url(#paint36_linear)"/>
<defs>
<linearGradient id="paint0_linear" x1="622.604" y1="114" x2="503.336" y2="892.212" gradientUnits="userSpaceOnUse">
<stop stop-color="#8590ED"/>
<stop offset="1" stop-color="#838FED"/>
</linearGradient>
<linearGradient id="paint1_linear" x1="858.935" y1="64.6856" x2="800.063" y2="142.369" gradientUnits="userSpaceOnUse">
<stop stop-color="#4154F4"/>
<stop offset="1" stop-color="#4154F4"/>
</linearGradient>
<linearGradient id="paint2_linear" x1="580.744" y1="151.733" x2="467.529" y2="890.454" gradientUnits="userSpaceOnUse">
<stop stop-color="#FFE8E6"/>
<stop offset="1" stop-color="#FFEDED"/>
</linearGradient>
<linearGradient id="paint3_linear" x1="580.745" y1="151.733" x2="467.53" y2="890.454" gradientUnits="userSpaceOnUse">
<stop stop-color="#FFE8E6"/>
<stop offset="1" stop-color="#FFEDED"/>
</linearGradient>
<linearGradient id="paint4_linear" x1="580.745" y1="151.734" x2="467.531" y2="890.452" gradientUnits="userSpaceOnUse">
<stop stop-color="#FFE8E6"/>
<stop offset="1" stop-color="#FFEDED"/>
</linearGradient>
<linearGradient id="paint5_linear" x1="580.745" y1="151.733" x2="467.53" y2="890.455" gradientUnits="userSpaceOnUse">
<stop stop-color="#FFE8E6"/>
<stop offset="1" stop-color="#FFEDED"/>
</linearGradient>
<linearGradient id="paint6_linear" x1="580.745" y1="151.733" x2="467.53" y2="890.454" gradientUnits="userSpaceOnUse">
<stop stop-color="#FFE8E6"/>
<stop offset="1" stop-color="#FFEDED"/>
</linearGradient>
<linearGradient id="paint7_linear" x1="580.745" y1="151.733" x2="467.53" y2="890.455" gradientUnits="userSpaceOnUse">
<stop stop-color="#FFE8E6"/>
<stop offset="1" stop-color="#FFEDED"/>
</linearGradient>
<linearGradient id="paint8_linear" x1="580.745" y1="151.733" x2="467.53" y2="890.454" gradientUnits="userSpaceOnUse">
<stop stop-color="#FFE8E6"/>
<stop offset="1" stop-color="#FFEDED"/>
</linearGradient>
<linearGradient id="paint9_linear" x1="580.745" y1="151.733" x2="467.53" y2="890.454" gradientUnits="userSpaceOnUse">
<stop stop-color="#FFE8E6"/>
<stop offset="1" stop-color="#FFEDED"/>
</linearGradient>
<linearGradient id="paint10_linear" x1="580.745" y1="151.735" x2="467.531" y2="890.453" gradientUnits="userSpaceOnUse">
<stop stop-color="#FFE8E6"/>
<stop offset="1" stop-color="#FFEDED"/>
</linearGradient>
<linearGradient id="paint11_linear" x1="580.745" y1="151.732" x2="467.53" y2="890.454" gradientUnits="userSpaceOnUse">
<stop stop-color="#FFE8E6"/>
<stop offset="1" stop-color="#FFEDED"/>
</linearGradient>
<linearGradient id="paint12_linear" x1="176.129" y1="628.334" x2="235.145" y2="628.334" gradientUnits="userSpaceOnUse">
<stop stop-color="#FE7062"/>
<stop offset="1" stop-color="#FF928E"/>
</linearGradient>
<linearGradient id="paint13_linear" x1="51.9998" y1="630.135" x2="120.368" y2="630.135" gradientUnits="userSpaceOnUse">
<stop stop-color="#FE7062"/>
<stop offset="1" stop-color="#FF928E"/>
</linearGradient>
<linearGradient id="paint14_linear" x1="99.1576" y1="555.856" x2="195.241" y2="555.856" gradientUnits="userSpaceOnUse">
<stop stop-color="#FE7062"/>
<stop offset="1" stop-color="#FF928E"/>
</linearGradient>
<linearGradient id="paint15_linear" x1="100.9" y1="555.856" x2="193.497" y2="555.856" gradientUnits="userSpaceOnUse">
<stop stop-color="#FE7062"/>
<stop offset="1" stop-color="#FF928E"/>
</linearGradient>
<linearGradient id="paint16_linear" x1="99.1576" y1="605.891" x2="195.241" y2="605.891" gradientUnits="userSpaceOnUse">
<stop stop-color="#FE7062"/>
<stop offset="1" stop-color="#FF928E"/>
</linearGradient>
<linearGradient id="paint17_linear" x1="88.293" y1="605.891" x2="203.353" y2="605.891" gradientUnits="userSpaceOnUse">
<stop stop-color="#FE7062"/>
<stop offset="1" stop-color="#FF928E"/>
</linearGradient>
<linearGradient id="paint18_linear" x1="99.1576" y1="655.931" x2="195.241" y2="655.931" gradientUnits="userSpaceOnUse">
<stop stop-color="#FE7062"/>
<stop offset="1" stop-color="#FF928E"/>
</linearGradient>
<linearGradient id="paint19_linear" x1="77.3008" y1="655.931" x2="213.702" y2="655.931" gradientUnits="userSpaceOnUse">
<stop stop-color="#FE7062"/>
<stop offset="1" stop-color="#FF928E"/>
</linearGradient>
<linearGradient id="paint20_linear" x1="66.877" y1="705.965" x2="195.242" y2="705.965" gradientUnits="userSpaceOnUse">
<stop stop-color="#FE7062"/>
<stop offset="1" stop-color="#FF928E"/>
</linearGradient>
<linearGradient id="paint21_linear" x1="66.877" y1="705.965" x2="222.074" y2="705.965" gradientUnits="userSpaceOnUse">
<stop stop-color="#FE7062"/>
<stop offset="1" stop-color="#FF928E"/>
</linearGradient>
<linearGradient id="paint22_linear" x1="108.754" y1="547.902" x2="128.38" y2="547.902" gradientUnits="userSpaceOnUse">
<stop stop-color="#09005D"/>
<stop offset="1" stop-color="#1A0F91"/>
</linearGradient>
<linearGradient id="paint23_linear" x1="110.744" y1="538.788" x2="118.703" y2="538.788" gradientUnits="userSpaceOnUse">
<stop stop-color="#FF928E"/>
<stop offset="1" stop-color="#FEB3B1"/>
</linearGradient>
<linearGradient id="paint24_linear" x1="150.491" y1="547.586" x2="181.284" y2="547.586" gradientUnits="userSpaceOnUse">
<stop stop-color="#09005D"/>
<stop offset="1" stop-color="#1A0F91"/>
</linearGradient>
<linearGradient id="paint25_linear" x1="150.956" y1="535.25" x2="158.872" y2="535.25" gradientUnits="userSpaceOnUse">
<stop stop-color="#FF928E"/>
<stop offset="1" stop-color="#FEB3B1"/>
</linearGradient>
<linearGradient id="paint26_linear" x1="130.805" y1="642.394" x2="133.182" y2="439.069" gradientUnits="userSpaceOnUse">
<stop stop-color="#09005D"/>
<stop offset="1" stop-color="#1A0F91"/>
</linearGradient>
<linearGradient id="paint27_linear" x1="117.74" y1="426.422" x2="128.993" y2="426.422" gradientUnits="userSpaceOnUse">
<stop stop-color="#4042E2"/>
<stop offset="1" stop-color="#4F52FF"/>
</linearGradient>
<linearGradient id="paint28_linear" x1="185.02" y1="305.579" x2="198.492" y2="248.107" gradientUnits="userSpaceOnUse">
<stop stop-color="#7E979E"/>
<stop offset="1" stop-color="#7F989E"/>
</linearGradient>
<linearGradient id="paint29_linear" x1="255.519" y1="229.68" x2="208.149" y2="333.56" gradientUnits="userSpaceOnUse">
<stop stop-color="#FF928E"/>
<stop offset="1" stop-color="#FEB3B1"/>
</linearGradient>
<linearGradient id="paint30_linear" x1="332.152" y1="204.223" x2="132.982" y2="395.148" gradientUnits="userSpaceOnUse">
<stop stop-color="#EDFBFF"/>
<stop offset="1" stop-color="#748E96"/>
</linearGradient>
<linearGradient id="paint31_linear" x1="279.219" y1="310.029" x2="195.987" y2="395.068" gradientUnits="userSpaceOnUse">
<stop stop-color="#FF928E"/>
<stop offset="1" stop-color="#FEB3B1"/>
</linearGradient>
<linearGradient id="paint32_linear" x1="288.132" y1="318.755" x2="204.9" y2="403.794" gradientUnits="userSpaceOnUse">
<stop stop-color="#FF928E"/>
<stop offset="1" stop-color="#FEB3B1"/>
</linearGradient>
<linearGradient id="paint33_linear" x1="199.02" y1="262.177" x2="137.485" y2="375.274" gradientUnits="userSpaceOnUse">
<stop stop-color="#FF928E"/>
<stop offset="1" stop-color="#FEB3B1"/>
</linearGradient>
<linearGradient id="paint34_linear" x1="179.618" y1="283.01" x2="178.147" y2="328.093" gradientUnits="userSpaceOnUse">
<stop stop-color="#FF928E"/>
<stop offset="1" stop-color="#FEB3B1"/>
</linearGradient>
<linearGradient id="paint35_linear" x1="178.236" y1="250.381" x2="175.201" y2="362.726" gradientUnits="userSpaceOnUse">
<stop stop-color="#192E4C"/>
<stop offset="1" stop-color="#192E4C"/>
</linearGradient>
<linearGradient id="paint36_linear" x1="163.5" y1="329.264" x2="168.414" y2="298.395" gradientUnits="userSpaceOnUse">
<stop stop-color="#FF928E"/>
<stop offset="1" stop-color="#FEB3B1"/>
</linearGradient>
</defs>
</svg>
