<svg width="1920" height="521" viewBox="0 0 1920 521" fill="none" xmlns="http://www.w3.org/2000/svg">
<path fill-rule="evenodd" clip-rule="evenodd" d="M-704.322 520.726L-604.125 463.636C-503.927 406.547 -303.533 292.369 -102.983 225.49C97.5676 158.612 298.273 139.032 499.165 176.213C700.057 213.393 901.135 307.333 1101.93 316.133C1302.73 324.934 1503.25 248.595 1704.02 247.936C1904.79 247.276 2105.8 322.296 2206.31 359.806L2306.82 397.316L2305.51 8.48074e-06L2205.13 0.329694C2104.75 0.65938 1903.98 1.31875 1703.21 1.97812C1502.44 2.6375 1301.68 3.29687 1100.91 3.95624C900.141 4.61561 699.373 5.27498 498.606 5.93436C297.838 6.59373 97.0705 7.2531 -103.697 7.91247C-304.465 8.57184 -505.232 9.23122 -605.616 9.5609L-706 9.89059L-704.322 520.726Z" fill="#828EED"/>
</svg>
