<svg width="1920" height="433" viewBox="0 0 1920 433" fill="none" xmlns="http://www.w3.org/2000/svg">
<path fill-rule="evenodd" clip-rule="evenodd" d="M-292.609 0.287109L-199.57 47.6494C-106.53 95.0116 79.5493 189.736 265.757 245.247C451.966 300.758 638.302 317.056 824.794 286.297C1011.29 255.538 1197.93 177.724 1384.35 170.493C1570.76 163.262 1756.94 226.616 1943.33 227.228C2129.72 227.84 2316.31 165.711 2409.61 134.646L2502.91 103.582L2501.83 432.975L2408.63 432.669C2315.44 432.363 2129.05 431.751 1942.66 431.138C1756.27 430.526 1569.88 429.914 1383.5 429.302C1197.11 428.69 1010.72 428.078 824.33 427.466C637.942 426.853 451.553 426.241 265.165 425.629C78.7766 425.017 -107.612 424.405 -200.806 424.099L-294 423.793L-292.609 0.287109Z" fill="#828EED"/>
</svg>
